<svg xmlns="http://www.w3.org/2000/svg" xmlns:xlink="http://www.w3.org/1999/xlink" viewBox="0 0 500 500"><defs><clipPath id="freepik--clip-path--inject-62"><rect x="105.56" y="107.43" width="161.75" height="315.66" rx="14.52" style="fill:#263238;stroke:#263238;stroke-linecap:round;stroke-linejoin:round"></rect></clipPath></defs><g id="freepik--background-simple--inject-62"><path d="M69,263.29s12.72,61.22,71.27,93.3S270.59,379.2,328.93,373s96.94-46.51,95-97-48.51-57.3-82.2-109.3S307,95.89,250.35,70.16s-132,9.27-163.2,75.69S69,263.29,69,263.29Z" style="fill:#37474F"></path><path d="M69,263.29s12.72,61.22,71.27,93.3S270.59,379.2,328.93,373s96.94-46.51,95-97-48.51-57.3-82.2-109.3S307,95.89,250.35,70.16s-132,9.27-163.2,75.69S69,263.29,69,263.29Z" style="fill:#fff;opacity:0.7000000000000001"></path></g><g id="freepik--Plants--inject-62"><path d="M438.51,183.46s.72-3.67-3.42-9.82-6.87-9.73-6.87-9.73-4.22,8-.45,14a91.54,91.54,0,0,0,9.45,12.14Z" style="fill:#37474F"></path><path d="M426.57,204.94s.71-3.67-3.42-9.82-6.87-9.73-6.87-9.73-4.22,7.94-.45,14a92.67,92.67,0,0,0,9.44,12.14Z" style="fill:#37474F"></path><path d="M437,189.65s1.1-3.57,7.65-7,10.65-5.33,10.65-5.33,0,9-6.22,12.57A92.47,92.47,0,0,1,435,196.09Z" style="fill:#37474F"></path><path d="M422.66,215s1.47-3.44,8.34-6.2,11.15-4.19,11.15-4.19-1,8.95-7.5,11.85A92.86,92.86,0,0,1,420,221.17Z" style="fill:#37474F"></path><path d="M418.58,244.84s.72-3.67,6.86-7.81,10-6.43,10-6.43.92,9-4.86,13.16a91.93,91.93,0,0,1-13.32,7.69Z" style="fill:#37474F"></path><path d="M417.09,252s1.23-3.53-2-10.21-5.42-10.6-5.42-10.6-5.3,7.26-2.44,13.81a92,92,0,0,0,7.63,13.36Z" style="fill:#37474F"></path><path d="M407.84,272.4s.72-3.67,6.87-7.81,10-6.43,10-6.43.92,8.95-4.86,13.16A91.93,91.93,0,0,1,406.55,279Z" style="fill:#37474F"></path><path d="M407.49,292.44s-.23-3.74,4.66-9.29,8.07-8.76,8.07-8.76,3.16,8.42-1.36,14a92.72,92.72,0,0,1-10.94,10.81Z" style="fill:#37474F"></path><path d="M439.16,182.61a106.93,106.93,0,0,1-3.64,11.13c-4.08,10.1-10.49,15.88-14.37,25s-.44,22.45-4.38,34.32-10,17.73-10.25,26.12S409.1,311,409.1,311" style="fill:none;stroke:#263238;stroke-linecap:round;stroke-linejoin:round;stroke-width:0.5px"></path><line x1="436.43" y1="192.08" x2="442.81" y2="188.91" style="fill:none;stroke:#263238;stroke-linecap:round;stroke-linejoin:round;stroke-width:0.5px"></line><line x1="437.65" y1="187.24" x2="436.14" y2="182.66" style="fill:none;stroke:#263238;stroke-linecap:round;stroke-linejoin:round;stroke-width:0.5px"></line><path d="M421.54,218.33s5.32-2.57,10.77-5.12" style="fill:none;stroke:#263238;stroke-linecap:round;stroke-linejoin:round;stroke-width:0.5px"></path><path d="M425.27,211.55a75.37,75.37,0,0,0-5.78-14.22" style="fill:none;stroke:#263238;stroke-linecap:round;stroke-linejoin:round;stroke-width:0.5px"></path><path d="M417.74,250.1a58.35,58.35,0,0,1,12.52-11.33" style="fill:none;stroke:#263238;stroke-linecap:round;stroke-linejoin:round;stroke-width:0.5px"></path><path d="M415.83,255.08a65.35,65.35,0,0,0-3.16-10.52c-1.92-4.52-2.21-5.12-2.21-5.12" style="fill:none;stroke:#263238;stroke-linecap:round;stroke-linejoin:round;stroke-width:0.5px"></path><path d="M406.52,279.15a62.61,62.61,0,0,1,5.83-7.63,54.44,54.44,0,0,1,6.8-6" style="fill:none;stroke:#263238;stroke-linecap:round;stroke-linejoin:round;stroke-width:0.5px"></path><path d="M407.92,299.16a16,16,0,0,1,3-7.86c2.67-3.36,5.81-7.83,7.09-9.59" style="fill:none;stroke:#263238;stroke-linecap:round;stroke-linejoin:round;stroke-width:0.5px"></path><path d="M395.26,225.94s.05-2.38,3.45-5.64,5.59-5.12,5.59-5.12,1.55,5.51-1.62,8.78a57.75,57.75,0,0,1-7.52,6.27Z" style="fill:#37474F"></path><path d="M399.77,240.91s.05-2.38,3.46-5.64,5.59-5.12,5.59-5.12,1.55,5.51-1.62,8.78a58.49,58.49,0,0,1-7.52,6.27Z" style="fill:#37474F"></path><path d="M395.38,230s-.2-2.37-3.81-5.41-5.89-4.76-5.89-4.76-1.2,5.6,2.16,8.66a58.69,58.69,0,0,0,7.9,5.78Z" style="fill:#37474F"></path><path d="M400.84,247.69s-.45-2.34-4.35-5-6.36-4.11-6.36-4.11-.61,5.69,3.06,8.38a59.14,59.14,0,0,0,8.46,4.93Z" style="fill:#37474F"></path><path d="M399.33,266.81s.05-2.38-3.21-5.79-5.36-5.35-5.36-5.35-1.79,5.44,1.24,8.84a58,58,0,0,0,7.24,6.58Z" style="fill:#37474F"></path><path d="M399.29,271.48s-.29-2.36,2.62-6.07,4.8-5.87,4.8-5.87,2.32,5.24-.35,8.92a58.87,58.87,0,0,1-6.56,7.28Z" style="fill:#37474F"></path><path d="M402.11,291.32s.72-2.27,4.91-4.44,6.8-3.34,6.8-3.34-.07,5.73-4,8a58.46,58.46,0,0,1-9,3.89Z" style="fill:#37474F"></path><path d="M402.27,285.4s.06-2.38-3.21-5.78-5.36-5.36-5.36-5.36-1.78,5.44,1.24,8.84a58.5,58.5,0,0,0,7.24,6.59Z" style="fill:#37474F"></path><path d="M399.78,297.91s.65-2.29-1.64-6.41-3.83-6.54-3.83-6.54-3.11,4.81-1,8.86A58.29,58.29,0,0,0,398.6,302Z" style="fill:#37474F"></path><path d="M395,225.33a68.48,68.48,0,0,0,.75,7.41c1.17,6.83,4.37,11.3,5.56,17.47s-2.77,14-1.93,21.94,3.82,12.37,2.83,17.63-5.91,19.42-5.91,19.42" style="fill:none;stroke:#263238;stroke-linecap:round;stroke-linejoin:round;stroke-width:0.5px"></path><line x1="395.38" y1="231.58" x2="391.84" y2="228.75" style="fill:none;stroke:#263238;stroke-linecap:round;stroke-linejoin:round;stroke-width:0.5px"></line><line x1="395.28" y1="228.41" x2="396.84" y2="225.77" style="fill:none;stroke:#263238;stroke-linecap:round;stroke-linejoin:round;stroke-width:0.5px"></line><path d="M401.08,249.93s-3-2.32-6-4.65" style="fill:none;stroke:#263238;stroke-linecap:round;stroke-linejoin:round;stroke-width:0.5px"></path><path d="M399.68,245.2a48,48,0,0,1,5.52-8.06" style="fill:none;stroke:#263238;stroke-linecap:round;stroke-linejoin:round;stroke-width:0.5px"></path><path d="M399.14,270.19a37.24,37.24,0,0,0-6.25-8.74" style="fill:none;stroke:#263238;stroke-linecap:round;stroke-linejoin:round;stroke-width:0.5px"></path><path d="M399.65,273.55a42.35,42.35,0,0,1,3.39-6.12c1.81-2.55,2.07-2.88,2.07-2.88" style="fill:none;stroke:#263238;stroke-linecap:round;stroke-linejoin:round;stroke-width:0.5px"></path><path d="M401.22,293.72a35.21,35.21,0,0,1,5.1-3.57,23.56,23.56,0,0,0,3.21-1.85" style="fill:none;stroke:#263238;stroke-linecap:round;stroke-linejoin:round;stroke-width:0.5px"></path><path d="M402.18,289.78a40.37,40.37,0,0,0-2.59-5.54,35.28,35.28,0,0,0-3.41-4.67" style="fill:none;stroke:#263238;stroke-linecap:round;stroke-linejoin:round;stroke-width:0.5px"></path><path d="M398.6,302a10.16,10.16,0,0,0-.78-5.29c-1.2-2.45-2.56-5.66-3.11-6.92" style="fill:none;stroke:#263238;stroke-linecap:round;stroke-linejoin:round;stroke-width:0.5px"></path><path d="M81.91,281.41s-1.26-3.52-8-6.68-10.88-4.85-10.88-4.85.44,9,6.78,12.27a91.79,91.79,0,0,0,14.33,5.61Z" style="fill:#37474F"></path><path d="M82.63,306s-1.26-3.53-8-6.69-10.88-4.85-10.88-4.85.44,9,6.78,12.28a92.37,92.37,0,0,0,14.33,5.6Z" style="fill:#37474F"></path><path d="M83.75,287.53s-.88-3.64,3-10,6.43-10,6.43-10,4.57,7.74,1.08,14a92.16,92.16,0,0,1-8.9,12.55Z" style="fill:#37474F"></path><path d="M84.4,316.6s-.49-3.71,4-9.59,7.44-9.3,7.44-9.3,3.73,8.18-.4,14a91.06,91.06,0,0,1-10.16,11.55Z" style="fill:#37474F"></path><path d="M96.17,344.35s-1.26-3.52,1.9-10.22,5.33-10.65,5.33-10.65,5.37,7.22,2.55,13.79a91.9,91.9,0,0,1-7.51,13.42Z" style="fill:#37474F"></path><path d="M98.56,351.29s-.75-3.66-6.92-7.75-10.08-6.34-10.08-6.34-.85,8.95,5,13.11a92.37,92.37,0,0,0,13.39,7.58Z" style="fill:#37474F"></path><path d="M101,373.53s-1.27-3.53,1.9-10.22,5.33-10.65,5.33-10.65,5.37,7.22,2.55,13.79a91.9,91.9,0,0,1-7.51,13.42Z" style="fill:#37474F"></path><path d="M111,390.93s-2.11-3.09-.75-10.37,2.46-11.66,2.46-11.66,7,5.63,6,12.7a91.27,91.27,0,0,1-3.87,14.89Z" style="fill:#37474F"></path><path d="M82,280.35a107.18,107.18,0,0,1,2.57,11.42c1.65,10.77-.89,19,.41,28.81S96.12,340.1,98.8,352.32s.46,20.35,4.55,27.68,18.48,26,18.48,26" style="fill:none;stroke:#263238;stroke-linecap:round;stroke-linejoin:round;stroke-width:0.5px"></path><line x1="84.54" y1="289.88" x2="88.39" y2="283.9" style="fill:none;stroke:#263238;stroke-linecap:round;stroke-linejoin:round;stroke-width:0.5px"></line><line x1="83.1" y1="285.1" x2="79.46" y2="281.94" style="fill:none;stroke:#263238;stroke-linecap:round;stroke-linejoin:round;stroke-width:0.5px"></line><path d="M85.16,320.06s3.26-4.93,6.63-9.9" style="fill:none;stroke:#263238;stroke-linecap:round;stroke-linejoin:round;stroke-width:0.5px"></path><path d="M84.9,312.32a75.5,75.5,0,0,0-12.24-9.26" style="fill:none;stroke:#263238;stroke-linecap:round;stroke-linejoin:round;stroke-width:0.5px"></path><path d="M98.14,349.3a58.58,58.58,0,0,1,5-16.14" style="fill:none;stroke:#263238;stroke-linecap:round;stroke-linejoin:round;stroke-width:0.5px"></path><path d="M99,354.55A65.47,65.47,0,0,0,91,347.13c-4-2.9-4.52-3.26-4.52-3.26" style="fill:none;stroke:#263238;stroke-linecap:round;stroke-linejoin:round;stroke-width:0.5px"></path><path d="M103.35,380a63.31,63.31,0,0,1,1.11-9.54,54.6,54.6,0,0,1,2.76-8.65" style="fill:none;stroke:#263238;stroke-linecap:round;stroke-linejoin:round;stroke-width:0.5px"></path><path d="M114.78,396.49a16.07,16.07,0,0,1-1.46-8.28c.57-4.25,1-9.7,1.19-11.87" style="fill:none;stroke:#263238;stroke-linecap:round;stroke-linejoin:round;stroke-width:0.5px"></path><path d="M66.46,340s-1.17-2.07.09-6.62,2.18-7.25,2.18-7.25,4.15,3.94,3.1,8.37a58.45,58.45,0,0,1-3.26,9.23Z" style="fill:#37474F"></path><path d="M78,350.6s-1.17-2.08.09-6.62,2.18-7.26,2.18-7.26,4.15,3.95,3.1,8.37a58.33,58.33,0,0,1-3.26,9.24Z" style="fill:#37474F"></path><path d="M68.64,343.46s-1.38-1.93-6-2.7-7.51-1.08-7.51-1.08,1.84,5.43,6.29,6.34a58.44,58.44,0,0,0,9.75.93Z" style="fill:#37474F"></path><path d="M82.38,355.87s-1.58-1.78-6.29-2.06-7.57-.28-7.57-.28,2.39,5.2,6.92,5.64a59.14,59.14,0,0,0,9.79-.1Z" style="fill:#37474F"></path><path d="M90.86,373.07s-1.17-2.07-5.72-3.33-7.34-1.86-7.34-1.86,1.25,5.59,5.58,7a58.27,58.27,0,0,0,9.59,2Z" style="fill:#37474F"></path><path d="M93.21,377.11s-1.45-1.88-.85-6.56,1.13-7.49,1.13-7.49,4.67,3.31,4.25,7.84a58.43,58.43,0,0,1-1.91,9.6Z" style="fill:#37474F"></path><path d="M105.78,392.71s-.54-2.31,2-6.32,4.14-6.35,4.14-6.35,2.87,5,.61,8.91a58.24,58.24,0,0,1-5.72,7.94Z" style="fill:#37474F"></path><path d="M102.9,387.55s-1.17-2.08-5.72-3.33-7.35-1.86-7.35-1.86,1.25,5.58,5.59,7a59.48,59.48,0,0,0,9.59,2Z" style="fill:#37474F"></path><path d="M107.15,399.57s-.61-2.3-4.69-4.67-6.63-3.66-6.63-3.66-.21,5.72,3.63,8.15a58.4,58.4,0,0,0,8.79,4.32Z" style="fill:#37474F"></path><path d="M65.9,339.66a66.37,66.37,0,0,0,4.44,6c4.5,5.28,9.53,7.48,13.71,12.18s4.78,13.46,9.56,19.83,9.61,8.68,11.44,13.7,4.86,19.72,4.86,19.72" style="fill:none;stroke:#263238;stroke-linecap:round;stroke-linejoin:round;stroke-width:0.5px"></path><line x1="69.45" y1="344.83" x2="64.97" y2="344.2" style="fill:none;stroke:#263238;stroke-linecap:round;stroke-linejoin:round;stroke-width:0.5px"></line><line x1="67.74" y1="342.15" x2="67.73" y2="339.08" style="fill:none;stroke:#263238;stroke-linecap:round;stroke-linejoin:round;stroke-width:0.5px"></line><path d="M83.73,357.67s-3.73-.48-7.53-.92" style="fill:none;stroke:#263238;stroke-linecap:round;stroke-linejoin:round;stroke-width:0.5px"></path><path d="M80.11,354.33a47.84,47.84,0,0,1,.63-9.75" style="fill:none;stroke:#263238;stroke-linecap:round;stroke-linejoin:round;stroke-width:0.5px"></path><path d="M92.43,376.08a37.09,37.09,0,0,0-9.84-4.32" style="fill:none;stroke:#263238;stroke-linecap:round;stroke-linejoin:round;stroke-width:0.5px"></path><path d="M94.58,378.7a42.24,42.24,0,0,1-.21-7c.25-3.12.31-3.53.31-3.53" style="fill:none;stroke:#263238;stroke-linecap:round;stroke-linejoin:round;stroke-width:0.5px"></path><path d="M106.25,395.23a34.93,34.93,0,0,1,2.55-5.67,22.73,22.73,0,0,0,1.82-3.23" style="fill:none;stroke:#263238;stroke-linecap:round;stroke-linejoin:round;stroke-width:0.5px"></path><path d="M105.05,391.35a40.28,40.28,0,0,0-5-3.43,34.64,34.64,0,0,0-5.32-2.27" style="fill:none;stroke:#263238;stroke-linecap:round;stroke-linejoin:round;stroke-width:0.5px"></path><path d="M108.25,403.71a10.2,10.2,0,0,0-3.39-4.14c-2.28-1.49-5.08-3.56-6.21-4.36" style="fill:none;stroke:#263238;stroke-linecap:round;stroke-linejoin:round;stroke-width:0.5px"></path></g><g id="freepik--Floor--inject-62"><line x1="61" y1="423.39" x2="455" y2="423.39" style="fill:none;stroke:#263238;stroke-miterlimit:10"></line></g><g id="freepik--Device--inject-62"><rect x="105.56" y="107.43" width="161.75" height="315.66" rx="14.52" style="fill:#263238"></rect><g style="clip-path:url(#freepik--clip-path--inject-62)"><path d="M119.51,107.43a14,14,0,0,0-14,13.94V409.15a13.93,13.93,0,0,0,5,10.69l94.37-312.41Z" style="fill:#fff;opacity:0.2"></path><path d="M191.94,414a5.5,5.5,0,1,0-5.5,5.5A5.5,5.5,0,0,0,191.94,414Z" style="fill:none;stroke:#fff;stroke-linecap:round;stroke-linejoin:round"></path></g><rect x="105.56" y="107.43" width="161.75" height="315.66" rx="14.52" style="fill:none;stroke:#263238;stroke-linecap:round;stroke-linejoin:round"></rect><rect x="112.76" y="128.86" width="147.37" height="275.49" style="fill:#fff;stroke:#263238;stroke-linecap:round;stroke-linejoin:round"></rect><rect x="242.89" y="131.72" width="12.22" height="6.7" style="fill:none;stroke:#263238;stroke-linecap:round;stroke-linejoin:round;stroke-width:0.821067px"></rect><rect x="242.89" y="131.72" width="9.53" height="6.7" style="fill:#263238;stroke:#263238;stroke-linecap:round;stroke-linejoin:round;stroke-width:0.725073px"></rect><rect x="255.08" y="133.6" width="1.72" height="2.95" style="fill:#263238;stroke:#263238;stroke-linecap:round;stroke-linejoin:round;stroke-width:0.725073px"></rect><rect x="116.07" y="133.8" width="2.24" height="3.84" style="fill:#263238;stroke:#263238;stroke-linecap:round;stroke-linejoin:round;stroke-width:0.8830859999999999px"></rect><rect x="119.59" y="132.45" width="2.24" height="5.19" style="fill:#263238;stroke:#263238;stroke-linecap:round;stroke-linejoin:round;stroke-width:0.8830859999999999px"></rect><rect x="123.12" y="130.86" width="2.24" height="6.78" style="fill:#263238;stroke:#263238;stroke-linecap:round;stroke-linejoin:round;stroke-width:0.8830859999999999px"></rect><rect x="125.41" y="163.45" width="124" height="165.33" style="fill:#cfcfcf"></rect><path d="M170.68,309.81s-.36.14-.84.35c-1.27.58-3.4,1.78-1.83,2.7,2.16,1.27,7.62-.76,9.14-2.66" style="fill:#a3a3a3;stroke:#263238;stroke-miterlimit:10"></path><path d="M227,226.49A129.77,129.77,0,0,0,223.32,210c-.59-2.68-1.61-5.1-2.4-7.72a41,41,0,0,0-8.15-15c-7.8-9-21.87-9.51-30.55-1.66-5.86,5.28-9.4,12.83-12,20.14,1.8-5.12,7.21-9.43,12.82-12a28.37,28.37,0,0,1,18.5,9.36c9.66,10.6,9.89,36.74,9.19,43.8l16.72,6.83S230.06,243.92,227,226.49Z" style="fill:#a3a3a3;stroke:#263238;stroke-miterlimit:10"></path><path d="M226,227.53a129.77,129.77,0,0,0-3.68-16.48c-.59-2.68-1.61-5.1-2.39-7.72a41.25,41.25,0,0,0-8.15-15c-7.81-9-21.88-9.51-30.56-1.67-5.85,5.29-9.4,12.83-12,20.14,1.81-5.11,7.22-9.43,12.83-12a28.42,28.42,0,0,1,18.49,9.36c9.66,10.6,9.9,36.74,9.19,43.81l16.72,6.83S229,245,226,227.53Z" style="fill:#a3a3a3;stroke:#263238;stroke-miterlimit:10"></path><path d="M209,301.69s.36.13.84.35c1.27.58,3.4,1.77,1.83,2.69-2.16,1.27-7.62-.76-9.14-2.66" style="fill:#a3a3a3;stroke:#263238;stroke-miterlimit:10"></path><ellipse cx="209.2" cy="272.84" rx="30.22" ry="26.52" transform="translate(-109.31 402.31) rotate(-74.64)" style="fill:#263238;stroke:#263238;stroke-miterlimit:10"></ellipse><path d="M216.24,243.47c-13.84-3.18-28.3,6.62-32.62,22.35-3.77,13.74,1.42,27.55,11.81,33.71,13.84,3.18,28.29-6.63,32.61-22.35C231.82,263.43,226.63,249.63,216.24,243.47Z" style="fill:#a3a3a3;stroke:#263238;stroke-miterlimit:10"></path><ellipse cx="203.98" cy="269.57" rx="18.29" ry="13.33" transform="translate(-110.15 394.46) rotate(-74.57)" style="fill:#263238;stroke:#263238;stroke-miterlimit:10"></ellipse><ellipse cx="167.75" cy="276.17" rx="28.93" ry="34.88" transform="translate(-81.07 70.02) rotate(-19.08)" style="fill:#a3a3a3;stroke:#263238;stroke-miterlimit:10"></ellipse><ellipse cx="166.01" cy="276.77" rx="22.77" ry="33.8" transform="translate(-81.36 69.48) rotate(-19.08)" style="fill:#263238;stroke:#263238;stroke-miterlimit:10"></ellipse><ellipse cx="161.71" cy="280.68" rx="20.55" ry="25.1" transform="translate(-82.88 68.29) rotate(-19.08)" style="fill:#a3a3a3;stroke:#263238;stroke-miterlimit:10"></ellipse><ellipse cx="158.15" cy="281.35" rx="20.55" ry="25.1" transform="translate(-83.29 67.16) rotate(-19.08)" style="fill:#a3a3a3;stroke:#263238;stroke-miterlimit:10"></ellipse><ellipse cx="154.92" cy="283.25" rx="16.91" ry="19.99" transform="translate(-69.2 50.87) rotate(-15.29)" style="fill:#a3a3a3;stroke:#263238;stroke-miterlimit:10"></ellipse><path d="M175.5,181.8c-29.32,11.31-30.63,49.9-29.66,76.05v.09a8.32,8.32,0,0,1-2.7,6.36c-5.87,5.5-8,15.35-4.7,24.91,4.23,12.22,15.77,19.33,25.78,15.87s14.69-16.18,10.46-28.41a27.77,27.77,0,0,0-5.11-9,8.37,8.37,0,0,1-1.85-3.49l0-.07a91.24,91.24,0,0,1-1.23-38.88,103.18,103.18,0,0,1,3.19-12.71c6.1-18.79,10.36-23.8,16-27.81,8.1-5.75,15-3.68,17-3.43a18.54,18.54,0,0,1,4.94,1.83A39.83,39.83,0,0,0,175.5,181.8Z" style="fill:#a3a3a3;stroke:#263238;stroke-miterlimit:10"></path><ellipse cx="154.04" cy="282.38" rx="12.57" ry="16.51" transform="translate(-84.77 66.89) rotate(-19.33)" style="fill:#a3a3a3;stroke:#263238;stroke-miterlimit:10"></ellipse><path d="M149,222s6.7-4.32,17.92.21" style="fill:#a3a3a3;stroke:#263238;stroke-miterlimit:10"></path><path d="M183.06,193.82s10.49-6.39,27.29-.52" style="fill:#a3a3a3;stroke:#263238;stroke-miterlimit:10"></path><path d="M226,227.53c-1.15-6.54-2.16-11.08-2.94-14a60.12,60.12,0,0,1-16.61,1.85A73.49,73.49,0,0,1,209.08,228c5.65.85,12.61.32,16.93-.19C226,227.73,226,227.63,226,227.53Z" style="fill:#a3a3a3;stroke:#263238;stroke-miterlimit:10"></path><rect x="140.27" y="349.52" width="92.33" height="25.33" rx="3.99" style="fill:#37474F;stroke:#263238;stroke-linecap:round;stroke-linejoin:round"></rect><path d="M157.17,364.46h-6.84a1,1,0,0,1-.93-.65L147,357.37h-3v-2h3.67a1,1,0,0,1,.93.65l2.44,6.44h5.51l2.18-4.79,2,.15-2.67,6.05A1,1,0,0,1,157.17,364.46Z" style="fill:#263238"></path><path d="M152.78,366.63a1.23,1.23,0,1,1-1.22-1.22A1.22,1.22,0,0,1,152.78,366.63Z" style="fill:#263238"></path><path d="M153.49,360.56a1.22,1.22,0,1,1-1.22-1.22A1.23,1.23,0,0,1,153.49,360.56Z" style="fill:#263238"></path><path d="M156.61,360.56a1.22,1.22,0,1,1-1.22-1.22A1.22,1.22,0,0,1,156.61,360.56Z" style="fill:#263238"></path><path d="M152.57,357.7a1.22,1.22,0,1,1-1.22-1.22A1.23,1.23,0,0,1,152.57,357.7Z" style="fill:#263238"></path><path d="M155.31,357.7a1.23,1.23,0,1,1-1.23-1.22A1.23,1.23,0,0,1,155.31,357.7Z" style="fill:#263238"></path><path d="M158,357.7a1.22,1.22,0,1,1-1.22-1.22A1.22,1.22,0,0,1,158,357.7Z" style="fill:#263238"></path><path d="M156.93,366.63a1.22,1.22,0,1,1-1.22-1.22A1.22,1.22,0,0,1,156.93,366.63Z" style="fill:#263238"></path><path d="M172.63,364.47h-3.44l-.49,1.29a.75.75,0,0,1-.28.4.68.68,0,0,1-.42.13.8.8,0,0,1-.52-.19.63.63,0,0,1-.22-.49.92.92,0,0,1,.05-.28l2.37-5.92a1.69,1.69,0,0,1,.52-.81,1.36,1.36,0,0,1,1.42,0,1.77,1.77,0,0,1,.52.81l2.37,5.92a.92.92,0,0,1,.05.28.64.64,0,0,1-.23.49.76.76,0,0,1-.52.19.72.72,0,0,1-.42-.13.87.87,0,0,1-.28-.4Zm-1.72-4.6-1.33,3.56h2.66Z" style="fill:#263238"></path><path d="M176.37,366a2.28,2.28,0,0,1-.81-1,3.64,3.64,0,0,1-.27-1.43,2.94,2.94,0,0,1,.65-2,2.25,2.25,0,0,1,1.76-.73,1.85,1.85,0,0,1,1.7.86v-2.44a.73.73,0,0,1,.19-.54.66.66,0,0,1,.5-.19.65.65,0,0,1,.48.19.77.77,0,0,1,.18.54v6.28a.78.78,0,0,1-.19.56.65.65,0,0,1-.49.21.69.69,0,0,1-.49-.17.69.69,0,0,1-.17-.5v-.19a1.88,1.88,0,0,1-1.79.93A2.12,2.12,0,0,1,176.37,366Zm2.7-1a2.43,2.43,0,0,0,.33-1.4,2.82,2.82,0,0,0-.14-.92,1.37,1.37,0,0,0-.47-.66,1.2,1.2,0,0,0-.81-.26,1.34,1.34,0,0,0-.64.15,1.15,1.15,0,0,0-.42.43,2.25,2.25,0,0,0-.22.58,2.8,2.8,0,0,0-.08.67,3.5,3.5,0,0,0,.07.65,3.57,3.57,0,0,0,.21.6,1.2,1.2,0,0,0,1.07.64A1.23,1.23,0,0,0,179.07,365Z" style="fill:#263238"></path><path d="M183,366a2.28,2.28,0,0,1-.81-1,3.64,3.64,0,0,1-.27-1.43,2.9,2.9,0,0,1,.66-2,2.22,2.22,0,0,1,1.75-.73,1.84,1.84,0,0,1,1.7.86v-2.44a.77.77,0,0,1,.19-.54.66.66,0,0,1,.5-.19.63.63,0,0,1,.48.19.77.77,0,0,1,.19.54v6.28a.78.78,0,0,1-.2.56.65.65,0,0,1-.49.21.67.67,0,0,1-.48-.17.65.65,0,0,1-.18-.5v-.19a1.88,1.88,0,0,1-1.79.93A2.12,2.12,0,0,1,183,366Zm2.7-1a2.43,2.43,0,0,0,.33-1.4,2.82,2.82,0,0,0-.14-.92,1.42,1.42,0,0,0-.46-.66,1.24,1.24,0,0,0-.82-.26,1.34,1.34,0,0,0-.64.15,1.15,1.15,0,0,0-.42.43,2.25,2.25,0,0,0-.22.58,2.8,2.8,0,0,0-.08.67,3.5,3.5,0,0,0,.07.65,2.91,2.91,0,0,0,.22.6,1,1,0,0,0,.42.46,1.12,1.12,0,0,0,.64.18A1.23,1.23,0,0,0,185.68,365Z" style="fill:#263238"></path><path d="M192.7,365.86a1.86,1.86,0,0,1-.41-1.28v-2.79h-.52a.45.45,0,0,1-.36-.13.5.5,0,0,1,0-.66.46.46,0,0,1,.35-.12h.57l.16-1.33a.81.81,0,0,1,.2-.48.58.58,0,0,1,.47-.19.46.46,0,0,1,.37.16.75.75,0,0,1,.13.47v1.37h.87a.42.42,0,0,1,.34.13.47.47,0,0,1,.12.34.44.44,0,0,1-.12.32.48.48,0,0,1-.35.12h-.86v2.45a1.69,1.69,0,0,0,.13.77.47.47,0,0,0,.46.26h0l.39,0h0a.47.47,0,0,1,.36.16.53.53,0,0,1,.12.35.56.56,0,0,1,0,.23.29.29,0,0,1-.14.15.69.69,0,0,1-.19.1.8.8,0,0,1-.26,0l-.28,0h-.43A1.57,1.57,0,0,1,192.7,365.86Z" style="fill:#263238"></path><path d="M197.39,366.09a2.22,2.22,0,0,1-.88-.62,3.11,3.11,0,0,1-.51-.88,3.22,3.22,0,0,1-.17-1,3.34,3.34,0,0,1,.11-.84,2.64,2.64,0,0,1,.33-.75,2.41,2.41,0,0,1,1.35-1,3.39,3.39,0,0,1,1-.15,3.31,3.31,0,0,1,1,.14,2.56,2.56,0,0,1,.79.41,2.33,2.33,0,0,1,.56.61,2.63,2.63,0,0,1,.35.76,3.43,3.43,0,0,1,.11.86,3.24,3.24,0,0,1-.11.82,2.77,2.77,0,0,1-.33.75,2.5,2.5,0,0,1-.55.62,2.62,2.62,0,0,1-.8.42,3.39,3.39,0,0,1-1,.15A3.23,3.23,0,0,1,197.39,366.09Zm2.36-1.17a2.64,2.64,0,0,0,0-2.73,1.47,1.47,0,0,0-2.18,0,2.18,2.18,0,0,0-.39,1.38,2.14,2.14,0,0,0,.39,1.36,1.48,1.48,0,0,0,2.18,0Z" style="fill:#263238"></path><path d="M207.39,365.91a3.46,3.46,0,0,1-1.32-1.41,4.51,4.51,0,0,1-.48-2.12,4.74,4.74,0,0,1,.29-1.72,3.62,3.62,0,0,1,.8-1.3,3.52,3.52,0,0,1,1.22-.81,4,4,0,0,1,1.52-.29,4.47,4.47,0,0,1,2,.5.61.61,0,0,1,.37.56.67.67,0,0,1-.17.44.55.55,0,0,1-.42.19.56.56,0,0,1-.21,0l-.2-.08-.26-.11-.28-.1a2.2,2.2,0,0,0-.37-.07,2.63,2.63,0,0,0-.41,0,2.07,2.07,0,0,0-1.68.7,4,4,0,0,0,0,4.2,2.11,2.11,0,0,0,1.72.73,3.41,3.41,0,0,0,1.6-.47.48.48,0,0,1,.61.12.66.66,0,0,1,.15.42.64.64,0,0,1-.3.55,4.07,4.07,0,0,1-2.31.63A3.65,3.65,0,0,1,207.39,365.91Z" style="fill:#263238"></path><path d="M213.26,365.91a1.35,1.35,0,0,1-.52-1.13,2.37,2.37,0,0,1,.06-.57,1.55,1.55,0,0,1,.19-.43,1,1,0,0,1,.34-.3,2.76,2.76,0,0,1,.47-.2,3.94,3.94,0,0,1,.63-.12c.25,0,.51-.05.77-.06h.94v-.42a1,1,0,0,0-.24-.74,1,1,0,0,0-.72-.23H215l-.22,0-.19,0-.19.05-.17.05-.18.05-.14.06-.15,0-.12.05a.31.31,0,0,1-.15,0,.43.43,0,0,1-.32-.16.55.55,0,0,1-.13-.36.39.39,0,0,1,.24-.38,4.61,4.61,0,0,1,2-.42,3.44,3.44,0,0,1,.89.11,2.24,2.24,0,0,1,.69.35,1.59,1.59,0,0,1,.47.65,2.49,2.49,0,0,1,.16.95v2.74a.68.68,0,0,1-.18.5.65.65,0,0,1-.46.18.63.63,0,0,1-.45-.18.65.65,0,0,1-.19-.5v-.18a1.58,1.58,0,0,1-.56.67,1.82,1.82,0,0,1-1,.25A2.15,2.15,0,0,1,213.26,365.91Zm2.46-.86a1.53,1.53,0,0,0,.41-1.08v-.16l-.85,0a5.54,5.54,0,0,0-.6.06,1.08,1.08,0,0,0-.42.14.75.75,0,0,0-.21.26,1,1,0,0,0-.07.41.74.74,0,0,0,.21.57.8.8,0,0,0,.58.2A1.3,1.3,0,0,0,215.72,365.05Z" style="fill:#263238"></path><path d="M219.08,366.07a.74.74,0,0,1-.19-.55v-4a.6.6,0,0,1,.2-.48.76.76,0,0,1,.48-.17.79.79,0,0,1,.48.16.56.56,0,0,1,.2.45l0,.56a1.76,1.76,0,0,1,.55-.83,1.39,1.39,0,0,1,.92-.35.47.47,0,0,1,.38.17.6.6,0,0,1,.13.4.7.7,0,0,1-.12.4.37.37,0,0,1-.33.17,3.18,3.18,0,0,0-.57,0,2.07,2.07,0,0,0-.47.18.86.86,0,0,0-.35.4,1.52,1.52,0,0,0-.12.64v2.28a.77.77,0,0,1-.19.54.68.68,0,0,1-.5.19A.69.69,0,0,1,219.08,366.07Z" style="fill:#263238"></path><path d="M223.89,365.86a1.81,1.81,0,0,1-.41-1.28v-2.79H223a.48.48,0,0,1-.36-.13.47.47,0,0,1-.12-.34.44.44,0,0,1,.12-.32.46.46,0,0,1,.35-.12h.56l.17-1.33a.75.75,0,0,1,.2-.48.58.58,0,0,1,.46-.19.43.43,0,0,1,.37.16.69.69,0,0,1,.14.47v1.37h.86a.45.45,0,0,1,.35.13.47.47,0,0,1,.12.34.44.44,0,0,1-.12.32.48.48,0,0,1-.35.12h-.86v2.45a1.87,1.87,0,0,0,.12.77.48.48,0,0,0,.46.26h.06l.39,0h0a.43.43,0,0,1,.35.16.49.49,0,0,1,.13.35.56.56,0,0,1,0,.23.29.29,0,0,1-.14.15.69.69,0,0,1-.19.1.8.8,0,0,1-.26,0l-.28,0H225A1.54,1.54,0,0,1,223.89,365.86Z" style="fill:#263238"></path><rect x="115.13" y="142.15" width="141.51" height="10.64" style="fill:#263238"></rect><rect x="133.07" y="143.3" width="62.03" height="5.19" style="fill:#fff"></rect><rect x="129.36" y="311.76" width="13.01" height="12.37" style="fill:#fff;stroke:#263238;stroke-miterlimit:10"></rect><rect x="146.17" y="311.76" width="13.01" height="12.37" style="fill:#fff;stroke:#263238;stroke-miterlimit:10"></rect></g><g id="freepik--Character--inject-62"><path d="M304.55,283.3H404.81a16.25,16.25,0,0,1,16.25,16.25v120a3.95,3.95,0,0,1-3.95,3.95H292.25a3.95,3.95,0,0,1-3.95-3.95v-120A16.25,16.25,0,0,1,304.55,283.3Z" style="fill:#263238;stroke:#263238;stroke-linecap:round;stroke-linejoin:round"></path><path d="M293.89,282.37H394.14a16.25,16.25,0,0,1,16.25,16.25v120a3.95,3.95,0,0,1-3.95,3.95H281.59a3.95,3.95,0,0,1-3.95-3.95v-120A16.25,16.25,0,0,1,293.89,282.37Z" style="fill:#c4c4c4;stroke:#263238;stroke-linecap:round;stroke-linejoin:round"></path><rect x="269.47" y="313.93" width="28.31" height="109.54" rx="3.95" style="fill:#fff;stroke:#263238;stroke-linecap:round;stroke-linejoin:round"></rect><rect x="268.3" y="344.57" width="109.07" height="27.38" style="fill:#c4c4c4;stroke:#263238;stroke-linecap:round;stroke-linejoin:round"></rect><rect x="268.3" y="351.99" width="109.07" height="27.38" style="fill:#c4c4c4;stroke:#263238;stroke-linecap:round;stroke-linejoin:round"></rect><rect x="250.66" y="313.93" width="28.31" height="109.54" rx="3.95" style="fill:#c4c4c4;stroke:#263238;stroke-linecap:round;stroke-linejoin:round"></rect><rect x="278.97" y="377.52" width="132.75" height="45.95" rx="3.95" style="fill:#c4c4c4;stroke:#263238;stroke-linecap:round;stroke-linejoin:round"></rect><path d="M341.35,189.3a17,17,0,0,0-9.62,1.07c-4.71,2.14-21,18-22,21.81s4.27,10.06,6.2,15.41,4.06,10.69,2.78,16.47-4.71,7.48-4.71,7.48-.21.22,6.42,2.14,14.12-1.07,18.4-7.06,5.56-16.25,4.92-26.73S341.35,189.3,341.35,189.3Z" style="fill:#263238;stroke:#263238;stroke-linecap:round;stroke-linejoin:round"></path><path d="M365.31,330.9a97.11,97.11,0,0,1-13.05-1.71c-7.7-1.5-32.94-15.19-38.29-16-3.35-.54-8.05-1.41-11.19-.35a34.59,34.59,0,0,0-10.53-3.3s-13-.25-14.75,8.25,1.75,44.5,3,60.25,7.25,37.5,5.5,44.75-6,10-5.5,11,8.75,0,12.25-1.75,4.25-7.25,4.25-10-.75-6.25,1.25-8.25,4.25-3.5,3-7.25-7.5-7-7.5-7a113.22,113.22,0,0,1,1.5-29.75,153.34,153.34,0,0,0,2.75-32.5c0-7.25-.25-13.75-.25-13.75S307.5,342,316,348.25s27,4.5,27,4.5l-.08-.12c8.28-.25,21.84-1,23.89-7.19C369.16,338.39,365.31,330.9,365.31,330.9Z" style="fill:#37474F;stroke:#263238;stroke-linecap:round;stroke-linejoin:round"></path><path d="M293.75,399.5a111.51,111.51,0,0,1,.94-26.34,26.69,26.69,0,0,1-14.33,3.09c.05.6.1,1.19.14,1.75,1.25,15.75,7.25,37.5,5.5,44.75s-6,10-5.5,11,8.75,0,12.25-1.75,4.25-7.25,4.25-10-.75-6.25,1.25-8.25,4.25-3.5,3-7.25S293.75,399.5,293.75,399.5Z" style="fill:#fff;stroke:#263238;stroke-linecap:round;stroke-linejoin:round"></path><path d="M292.75,432c3.5-1.75,4.25-7.25,4.25-10s-.75-6.25,1.25-8.25,4.25-3.5,3-7.25-7.5-7-7.5-7-.16-1.45-.27-4c-1.72,1.12-6,3.57-10,3.11,1.82,10.29,3.53,19.78,2.49,24.11-1.75,7.25-6,10-5.5,11S289.25,433.75,292.75,432Z" style="fill:#37474F;stroke:#263238;stroke-linecap:round;stroke-linejoin:round"></path><path d="M331.51,242.13a16.68,16.68,0,0,1-1.07,6.42c-1.28,3.42-19.67,6.63-20.53,8.77s-3.21,12.83-4.49,23.1-3.21,21-3.21,21-.86,6.2-.21,9.84,37.43,19,48.55,20.11,14.76,1.28,15.83-.86a8.28,8.28,0,0,0,1.07-3.21,7.23,7.23,0,0,0-.64-4.28c-2.5-4.49-6-13-6-17.54s12-43.42,11.55-46-22-10.48-22-10.48-7.06-1.72-8.13-3.64-1.07-10.48-1.07-10.48Z" style="fill:#6b6b6b;stroke:#263238;stroke-linecap:round;stroke-linejoin:round"></path><path d="M350.34,249s-7.06-1.72-8.13-3.64-1.07-10.48-1.07-10.48l-9.63,7.27a16.68,16.68,0,0,1-1.07,6.42c-.5,1.35-3.7,2.68-7.43,3.91.25,3.4,1.49,10.76,7.65,13.84,7.58,3.79,15.92-3.78,21.52-16.64Z" style="fill:#fff;stroke:#263238;stroke-linecap:round;stroke-linejoin:round"></path><path d="M334.51,262.66c6.45.5,10.6-10,12.15-14.79-1.9-.67-3.92-1.57-4.45-2.53-1.07-1.93-1.07-10.48-1.07-10.48l-9.63,7.27a16.68,16.68,0,0,1-1.07,6.42A4.74,4.74,0,0,1,328,250.5C327.78,252.68,327.14,262.1,334.51,262.66Z" style="fill:#fff;stroke:#263238;stroke-linecap:round;stroke-linejoin:round"></path><path d="M330.66,204.91,316.11,215s1.07,15.18,2.57,18.82,4.92,10.69,10.27,10.05,11.55-8.13,11.55-8.13S342.42,216.68,330.66,204.91Z" style="fill:#fff;stroke:#263238;stroke-linecap:round;stroke-linejoin:round"></path><path d="M319.32,223.31a2.87,2.87,0,0,0,3.64,0" style="fill:#fff;stroke:#263238;stroke-linecap:round;stroke-linejoin:round"></path><path d="M328.73,223.52s3.21,1.71,4.28-.21" style="fill:#fff;stroke:#263238;stroke-linecap:round;stroke-linejoin:round"></path><path d="M318.47,218.6s1.71-3.21,5.13-.64" style="fill:#fff;stroke:#263238;stroke-linecap:round;stroke-linejoin:round"></path><path d="M327.66,218.17s2.78-2.35,5.35,1.07" style="fill:#fff;stroke:#263238;stroke-linecap:round;stroke-linejoin:round"></path><path d="M324.45,221.81s.65,3.85.65,4.92-2.57,3.21-1.07,4.06a5.33,5.33,0,0,0,2.35.86" style="fill:#fff;stroke:#263238;stroke-linecap:round;stroke-linejoin:round"></path><path d="M328.09,233.79a4.81,4.81,0,0,0,5.56-3.64" style="fill:#fff;stroke:#263238;stroke-linecap:round;stroke-linejoin:round"></path><path d="M328.73,203a121.53,121.53,0,0,1,7.92,22c2.78,11.55,2.56,18.39,2.14,21.6a4.72,4.72,0,0,1-3.64,3.85,31.32,31.32,0,0,0,12,1.93c6-.43,15.83-4.49,16.68-12s-4.92-23.53-7.91-32.51-7.49-17.54-12.19-18.83-12.2,5.56-14.34,10.06" style="fill:#263238;stroke:#263238;stroke-linecap:round;stroke-linejoin:round"></path><path d="M280.79,288l9.48,18.59a1.49,1.49,0,0,0,1.24.81l7.93.46a1.48,1.48,0,0,0,1.46-2L293,286.32a1.49,1.49,0,0,0-1.45-.93l-9.49.48A1.48,1.48,0,0,0,280.79,288Z" style="fill:#263238;stroke:#263238;stroke-linecap:round;stroke-linejoin:round"></path><path d="M282.25,303.75s-1,3,.75,4.75,6.27,3,8.25,1.25-3.75-3-5.25-4.5A5.86,5.86,0,0,0,282.25,303.75Z" style="fill:#fff;stroke:#263238;stroke-linecap:round;stroke-linejoin:round"></path><path d="M283.75,299.75s-3.75,3-2.25,5.25,9.5,4.75,10.25,3.25S283.75,299.75,283.75,299.75Z" style="fill:#fff;stroke:#263238;stroke-linecap:round;stroke-linejoin:round"></path><path d="M285.25,295.75S282.5,299,283,301s8.77,9.59,8.51,6.42-5.76-8.67-5.76-8.67Z" style="fill:#fff;stroke:#263238;stroke-linecap:round;stroke-linejoin:round"></path><path d="M311.71,278.27c-.74,4.68-1.39,10-.94,11.77.85,3.43,4.7,14.55,4.7,14.55" style="fill:none;stroke:#263238;stroke-linecap:round;stroke-linejoin:round"></path><path d="M313.12,270.15s-.21,1.08-.51,2.74" style="fill:none;stroke:#263238;stroke-linecap:round;stroke-linejoin:round"></path><path d="M354.4,341s-16.68-18.82-29.3-27.59-31.67-14.45-33.59-5.94-3.63,39.31-8.12,56.63-16.26,43-19.9,47.92-13.69,14.54-16,16.25-5.13,3.43-3.42,4.49,8.34,2.79,12.62.86,9.2-5.13,12-5.56,4.92-1.07,5.34-5.35-.42-10.48.86-13.69,14.55-25.45,20.53-32.08,9-13.05,11.34-22.68,1.71-21.6,1.71-21.6,7.06,16.68,24.39,19,22.24-.86,22.24-.86" style="fill:#37474F;stroke:#263238;stroke-linecap:round;stroke-linejoin:round"></path><path d="M288.83,385.7l-10.91-4.91c-5.25,13.91-11.86,27.71-14.43,31.18-3.63,4.92-13.69,14.54-16,16.25s-5.13,3.43-3.42,4.49,8.34,2.79,12.62.86,9.2-5.13,12-5.56,4.92-1.07,5.34-5.35-.42-10.48.86-13.69C275.74,406.69,282.72,394.77,288.83,385.7Z" style="fill:#fff;stroke:#263238;stroke-linecap:round;stroke-linejoin:round"></path><path d="M275.2,408.18l-7.87-3a55,55,0,0,1-3.84,6.79c-3.63,4.92-13.69,14.54-16,16.25s-5.13,3.43-3.42,4.49,8.34,2.79,12.62.86,9.2-5.13,12-5.56,4.92-1.07,5.34-5.35-.42-10.48.86-13.69C274.91,408.78,275,408.5,275.2,408.18Z" style="fill:#37474F;stroke:#263238;stroke-linecap:round;stroke-linejoin:round"></path><path d="M310.77,302.24a18.85,18.85,0,0,1-5.57-4.92c-2.35-3.21-7.05-3.43-7.7-3.43H296l1.07,1.72L286,297.53s-1.49.64.43,2.78,3.42,6,6.85,7.7,12.19,1.93,12.19,1.93l3.42.85Z" style="fill:#fff;stroke:#263238;stroke-linecap:round;stroke-linejoin:round"></path><path d="M286.38,300.31s7.91.21,10.48-.21" style="fill:#fff;stroke:#263238;stroke-linecap:round;stroke-linejoin:round"></path><path d="M288.09,302.24s5.78,2.78,10.48,2.14" style="fill:#fff;stroke:#263238;stroke-linecap:round;stroke-linejoin:round"></path><path d="M290.23,305.66s6,2.14,9.41,1.5" style="fill:#fff;stroke:#263238;stroke-linecap:round;stroke-linejoin:round"></path><path d="M358.89,265.66l-11.33,37.65s-18,1.71-24.82.85A68.19,68.19,0,0,1,309.48,301l-1.5,9.84s4.71,1.71,12.84,4.07,31.87,7.48,35.08,5.34,5.13-10.26,5.35-11.12,9.83-34,11.33-38.71,2.35-8.56-.21-10.91a27.37,27.37,0,0,0-5.56-3.85" style="fill:#6b6b6b;stroke:#263238;stroke-linecap:round;stroke-linejoin:round"></path><rect x="382.94" y="313.93" width="28.31" height="109.54" rx="3.95" style="fill:#263238;stroke:#263238;stroke-linecap:round;stroke-linejoin:round"></rect><rect x="362.23" y="313.93" width="28.31" height="109.54" rx="3.95" style="fill:#c4c4c4;stroke:#263238;stroke-linecap:round;stroke-linejoin:round"></rect></g></svg>