<svg version="1.1" id="Layer_1" xmlns="http://www.w3.org/2000/svg" xmlns:xlink="http://www.w3.org/1999/xlink" x="0px" y="0px" viewBox="0 0 500 500" style="width: 188px;" xml:space="preserve" data-imageid="fornite-50" imageName="Fornite" class="illustrations_image">
<style type="text/css">
	.st0_fornite-50{fill:#FFFFFF;}
	.st1_fornite-50{fill:#231F20;}
	.st2_fornite-50{fill:#D1D3D4;}
	.st3_fornite-50{fill:#68E1FD;}
	.st4_fornite-50{fill:none;}
</style>
<g id="Frame_fornite-50">
	<rect x="20" y="101.9" class="st0_fornite-50" width="459.9" height="296.3"/>
	<path class="st1_fornite-50" d="M480,101.9v296.3H20V101.9H480 M480,100.5H20c-0.8,0-1.4,0.6-1.4,1.4l0,0v296.3c0,0.8,0.6,1.4,1.4,1.4h460&#10;&#9;&#9;c0.8,0,1.4-0.6,1.4-1.4V101.9C481.4,101.1,480.8,100.5,480,100.5z"/>
</g>
<g id="Background_fornite-50">
	<path class="st2_fornite-50" d="M269.8,265.5c-10,0-20-0.8-29.9-2.6c-12.2-2.2-24.3-6.1-35.9-9.8l-5.2-1.6C140.5,233.1,80.6,220.1,20,212.6&#10;&#9;&#9;c-0.4,0-0.7-0.4-0.6-0.8c0,0,0,0,0,0c0-0.4,0.4-0.7,0.8-0.6c0,0,0,0,0,0c60.7,7.5,120.7,20.6,179,38.9l5.2,1.6&#10;&#9;&#9;c11.6,3.7,23.6,7.5,35.8,9.7c37.4,6.9,75.6-1.2,108.1-9.9c8.4-2.3,17-4.7,25.2-7.1c26.5-7.6,53.8-15.5,81.6-18.5&#10;&#9;&#9;c7.6-0.8,16.5-1.4,25,0.5c0.4,0.1,0.6,0.5,0.5,0.8s-0.5,0.6-0.8,0.5c-8.3-1.8-17-1.2-24.5-0.5c-27.6,3-54.9,10.8-81.4,18.4&#10;&#9;&#9;c-8.3,2.4-16.8,4.8-25.3,7.1C324.6,259.4,297.5,265.5,269.8,265.5z"/>
	<path class="st2_fornite-50" d="M291,261.2c-0.2,0-0.5-0.1-0.6-0.3c-0.2-0.3-0.2-0.8,0.2-1c0,0,0,0,0,0c13.8-9.2,22.9-24,29.2-35.9l0.5-1&#10;&#9;&#9;c2.9-5.4,5.9-11.1,10.9-14.8c6.1-4.6,14.3-5.5,20.8-6.3l17.3-2c10.6-1.2,21.6-2.5,32.4-0.6c18.5,3.3,33.9,15.5,47.5,26.2&#10;&#9;&#9;c0.3,0.2,0.4,0.7,0.1,1c-0.2,0.3-0.7,0.4-1,0.1c-13.5-10.7-28.7-22.7-46.9-26c-10.6-1.9-21.4-0.6-32,0.6l-17.3,2&#10;&#9;&#9;c-6.7,0.8-14.4,1.7-20.2,6c-4.7,3.5-7.7,9-10.5,14.3l-0.5,1c-6.5,12-15.7,26.9-29.7,36.4C291.3,261.1,291.1,261.2,291,261.2z"/>
	<path class="st2_fornite-50" d="M242.3,262.4h-0.1c-0.4-0.1-0.6-0.5-0.5-0.8c0,0,0,0,0,0c1-4.3,3.8-8,7.7-10.1c3.5-2.1,7.7-2.7,11.6-1.8&#10;&#9;&#9;c0.2-2.9,1.5-5.5,3.6-7.5c2.2-2.1,5.1-3.2,8.1-3.1c2.1-4.6,6.4-9.6,12.5-10.4c5.4-0.7,10.4,3,11.9,8.6c5.6-3.6,11.4-3.4,15.7,0.6&#10;&#9;&#9;c0.3,0.3,0.3,0.7,0,1s-0.7,0.3-1,0c-5.8-5.4-12.3-1.8-14.8,0.1c-0.2,0.1-0.4,0.2-0.7,0.1c-0.2-0.1-0.4-0.3-0.4-0.5&#10;&#9;&#9;c-1-5.4-5.6-9.1-10.6-8.5c-5.7,0.7-9.7,5.6-11.5,10c-0.1,0.3-0.4,0.5-0.7,0.4c-5.5-0.4-10.2,3.7-10.6,9.2c0,0.3,0,0.5,0,0.8&#10;&#9;&#9;c0,0.2-0.1,0.5-0.3,0.6c-0.2,0.1-0.4,0.2-0.7,0.1c-7.9-2.2-16.1,2.4-18.3,10.3c0,0.1,0,0.2-0.1,0.2&#10;&#9;&#9;C242.9,262.2,242.6,262.4,242.3,262.4z"/>
	<path class="st2_fornite-50" d="M72.9,220.1c-0.2,0-0.3,0-0.4-0.1c-1.8-1.4-1.8-3.9-1.7-6c0-0.4,0-0.9,0-1.3c-0.4-6.2-5.8-10.9-12-10.5&#10;&#9;&#9;c-0.7,0-1.4,0.2-2.1,0.3c-0.3,0.1-0.6,0-0.8-0.2c-0.2-0.2-0.2-0.5-0.1-0.8c2-3.5,0.7-8.6-2.8-11.5c-4.2-3.4-9.7-3.2-12.6-2.8&#10;&#9;&#9;c-0.2,0-0.5,0-0.6-0.2c-0.2-0.2-0.2-0.4-0.2-0.6c0.9-4.5-0.6-9.2-4.1-12.3c-3.6-3-8.5-3.8-12.8-2.2c-0.4,0.1-0.8,0-0.9-0.4&#10;&#9;&#9;c-0.1-0.4,0-0.8,0.4-0.9c4.8-1.8,10.3-0.9,14.3,2.4c3.6,3.2,5.4,8,4.7,12.7c3.3-0.3,8.6-0.2,12.8,3.1c3.6,2.9,5.2,8,3.8,11.9&#10;&#9;&#9;c3.3-0.5,6.6,0.3,9.2,2.3c3.2,2.2,5.1,5.7,5.2,9.6c0,0.4,0,0.9,0,1.4c-0.1,2-0.2,3.9,1.1,4.8c0.3,0.2,0.4,0.7,0.1,1c0,0,0,0,0,0&#10;&#9;&#9;C73.4,220.1,73.1,220.1,72.9,220.1z"/>
	<path class="st2_fornite-50" d="M316.5,298.8c-0.7,0-1.4,0-2.1,0c-0.4,0-0.7-0.3-0.7-0.7c0-0.4,0.3-0.7,0.7-0.7l0,0c17.6,0.4,35-4.1,50.3-12.9&#10;&#9;&#9;c0.3-0.2,0.8-0.1,1,0.2c0.2,0.3,0.1,0.8-0.2,1c0,0,0,0-0.1,0C350.5,294.3,333.6,298.8,316.5,298.8z"/>
	<path class="st2_fornite-50" d="M246.1,325.5c-4.9,0-9.8-0.5-14.6-1.6c-0.4,0-0.7-0.4-0.6-0.8c0-0.4,0.4-0.7,0.8-0.6c0,0,0.1,0,0.1,0&#10;&#9;&#9;c8.5,1.8,17.2,2,25.8,0.5c0.4-0.1,0.8,0.1,0.9,0.5c0.1,0.4-0.1,0.8-0.5,0.9c-0.1,0-0.1,0-0.2,0C254,325.1,250.1,325.5,246.1,325.5z&#10;&#9;&#9;"/>
	<path class="st2_fornite-50" d="M296.7,214.2c-0.4,0-0.7-0.3-0.7-0.7c0-3.5-0.1-7.4,1.5-10.9c1.3-3.1,4.4-6.1,8.3-6.2&#10;&#9;&#9;c0.6-8.5,7.2-15.3,15.7-16.2c-3.8-9.1,0.5-19.6,9.7-23.4c2.4-1,5-1.5,7.7-1.3c-2.1-5.2,0.4-11.1,5.6-13.2c2.6-1,5.5-1,8.1,0.2&#10;&#9;&#9;c5.2-6.7,14.4-8.7,22-5c1.3-2.1,3.3-3.6,5.6-4.3c2.5-0.9,5.3-0.7,7.7,0.4c0.3,0.2,0.4,0.6,0.2,1c-0.2,0.3-0.5,0.4-0.9,0.3&#10;&#9;&#9;c-4.3-2-9.4-0.3-11.7,3.9c-0.1,0.2-0.2,0.3-0.4,0.4c-0.2,0.1-0.4,0-0.5-0.1c-6.8-4.1-16.6-1.9-21.1,4.7c-0.2,0.3-0.6,0.4-0.9,0.2&#10;&#9;&#9;c-4.2-2.3-9.5-0.7-11.9,3.5c-1.4,2.6-1.4,5.8,0,8.4c0.2,0.3,0,0.8-0.3,0.9c-0.1,0.1-0.3,0.1-0.4,0.1c-9.1-1-17.2,5.5-18.3,14.5&#10;&#9;&#9;c-0.4,3.1,0.2,6.3,1.6,9.1c0.1,0.2,0.1,0.5,0,0.7c-0.1,0.2-0.3,0.3-0.6,0.3c-8.4,0.3-15.1,7.2-15.3,15.6c0,0.2-0.1,0.4-0.2,0.5&#10;&#9;&#9;c-0.1,0.1-0.3,0.2-0.5,0.2c-3.4-0.3-6.4,2.4-7.6,5.3c-1.4,3.2-1.4,7-1.3,10.3C297.5,213.8,297.2,214.1,296.7,214.2&#10;&#9;&#9;C296.8,214.1,296.8,214.1,296.7,214.2L296.7,214.2z"/>
	<path class="st2_fornite-50" d="M321.7,243.2c-0.2,0-0.3,0-0.4-0.1c-0.3-0.2-0.4-0.7-0.2-1c0,0,0,0,0,0c5.6-7.5,10.1-15.8,13.3-24.6&#10;&#9;&#9;c0.1-0.4,0.5-0.6,0.9-0.4c0.4,0.1,0.6,0.5,0.4,0.9c-3.3,8.9-7.8,17.4-13.5,25C322.1,243.1,321.9,243.2,321.7,243.2z"/>
	<path class="st2_fornite-50" d="M348.6,239.3c-0.1,0-0.2,0-0.3-0.1c-0.4-0.1-0.5-0.6-0.4-0.9c0,0,0,0,0,0c2.6-5.9,4.7-12.1,6.3-18.3&#10;&#9;&#9;c0.1-0.4,0.5-0.6,0.8-0.5c0,0,0,0,0,0c0.4,0.1,0.6,0.5,0.5,0.8c0,0,0,0,0,0c-1.6,6.3-3.7,12.5-6.4,18.5&#10;&#9;&#9;C349.2,239.1,348.9,239.3,348.6,239.3z"/>
</g>
<g id="Character_fornite-50">
	<path class="st0_fornite-50" d="M196.2,283.8c0,0.4-0.1,0.7-0.2,1.1c-0.4,2.1-1.8,6.4-6.1,7.5l0.5,3c0,0,9.3-4.6,9.4-13.2"/>
	<path class="st1_fornite-50" d="M190.5,296.2c-0.3,0-0.6-0.2-0.7-0.6l-0.5-3c-0.1-0.4,0.2-0.7,0.5-0.8c3.8-1,5.1-4.8,5.6-7&#10;&#9;&#9;c0.1-0.3,0.1-0.7,0.2-1c0-0.4,0.4-0.7,0.8-0.6c0.4,0,0.7,0.4,0.6,0.8c0,0,0,0.5-0.2,1.2c-0.4,1.9-1.8,6.4-6,7.9l0.2,1.4&#10;&#9;&#9;c2.2-1.3,8.1-5.5,8.2-12.1c0-0.4,0.3-0.7,0.7-0.7l0,0c0.4,0,0.7,0.3,0.7,0.7c0,0,0,0,0,0c-0.1,9-9.4,13.6-9.8,13.8&#10;&#9;&#9;C190.7,296.1,190.6,296.2,190.5,296.2z"/>
	<path class="st1_fornite-50" d="M198.8,282.2c0,0,4.9,1.2,8.6,0s6.2-8.7,6.4-9.9s-1-4.8-1-4.8l-14.1,5.3l-0.3,9.9"/>
	<path class="st1_fornite-50" d="M203.5,283.5c-1.5,0-2.9-0.1-4.3-0.4c-0.1,0.3-0.4,0.4-0.7,0.4c-0.4,0-0.7-0.3-0.7-0.7c0,0,0,0,0,0l0.3-9.9&#10;&#9;&#9;c0-0.3,0.2-0.5,0.4-0.6l14.1-5.3c0.2-0.1,0.4-0.1,0.6,0c0.2,0.1,0.3,0.2,0.4,0.4c0.2,0.6,1.2,3.9,1,5.2c-0.2,1-2.7,9.1-6.9,10.4&#10;&#9;&#9;C206.3,283.3,204.9,283.5,203.5,283.5z M199.2,281.6c1.1,0.2,5,0.9,7.9,0c3.3-1,5.8-8.2,6-9.3c-0.1-1.3-0.3-2.6-0.7-3.8l-12.9,4.9&#10;&#9;&#9;L199.2,281.6z"/>
	<path class="st1_fornite-50" d="M176.7,308.3c0,0-5.5-5.2-5.6-7.2s0.1-2.4,1.6-6.3c0,0,10-5.3,12.4-6.2s5.4-2.9,6.8-2.2&#10;&#9;&#9;c1.5,0.8,2.1,2.6,1.4,4.1c0,0,0,0.1,0,0.1c-0.8,2-1.1,2.9-1.1,2.9c2,1.2,3.5,3.2,4.2,5.4c1.1,3.8,0,12,0,12&#10;&#9;&#9;S182.3,312.3,176.7,308.3z"/>
	<path class="st1_fornite-50" d="M191.4,311.9c-4.7,0-11.5-0.5-15.1-3l-0.1-0.1c-0.9-0.9-5.7-5.5-5.8-7.6s0.1-2.6,1.3-5.9l0.3-0.7&#10;&#9;&#9;c0.1-0.2,0.2-0.3,0.3-0.4c0.4-0.2,10.1-5.4,12.5-6.2c0.8-0.3,1.6-0.6,2.3-1c1.9-0.9,3.8-1.8,5-1.1c1.9,1,2.6,3.2,1.6,5.1&#10;&#9;&#9;c-0.5,1.1-0.7,1.9-0.9,2.3c1.9,1.3,3.4,3.3,4.1,5.5c1.1,3.9,0.1,11.9,0,12.2c0,0.3-0.3,0.6-0.6,0.6&#10;&#9;&#9;C196.2,311.8,194.2,311.9,191.4,311.9z M177.2,307.8c4.7,3.3,15.9,2.8,18.6,2.6c0.2-1.9,0.8-8.1-0.1-11.1c-0.6-2.1-2-3.9-3.9-5&#10;&#9;&#9;c-0.3-0.2-0.4-0.5-0.3-0.8c0,0,0.3-0.9,1.1-3c0.7-1.1,0.3-2.6-0.9-3.3c0,0-0.1-0.1-0.1-0.1c-0.6-0.3-2.3,0.5-3.7,1.1&#10;&#9;&#9;c-0.8,0.4-1.7,0.8-2.5,1.1c-2.1,0.8-10.6,5.2-12.1,6l-0.2,0.5c-1.2,3.2-1.4,3.6-1.3,5.3C171.9,302.2,175,305.7,177.2,307.8&#10;&#9;&#9;L177.2,307.8z"/>
	<path class="st1_fornite-50" d="M219.7,257.3l-3.9,2.4c0,0-2.1-4.1-1.9-4.2s4.9-2.3,4.9-2.3S221.3,253.6,219.7,257.3z"/>
	<path class="st1_fornite-50" d="M215.8,260.4c-0.1,0-0.1,0-0.2,0c-0.2-0.1-0.3-0.2-0.4-0.4c-2.4-4.5-2.2-4.7-1.8-5.1c0.1-0.1,0.3-0.2,5.1-2.4&#10;&#9;&#9;c0.1,0,0.3,0,0.4,0c0.7,0.1,1.4,0.6,1.8,1.3c0.5,1,0.4,2.3-0.3,3.9c-0.1,0.1-0.2,0.3-0.3,0.3l-3.9,2.4&#10;&#9;&#9;C216,260.4,215.9,260.4,215.8,260.4z M214.7,255.8c0.3,0.6,0.8,1.8,1.4,2.9l3.1-1.9c0.4-0.7,0.5-1.6,0.2-2.4&#10;&#9;&#9;c-0.1-0.2-0.3-0.4-0.6-0.5C217.4,254.6,215.5,255.4,214.7,255.8L214.7,255.8z M219.7,257.3L219.7,257.3z"/>
	<polygon class="st0_fornite-50" points="171.1,266.9 204.6,250.9 215.2,252.5 180.3,268.8 &#9;"/>
	<path class="st1_fornite-50" d="M180.3,269.5h-0.1l-9.2-1.9c-0.3-0.1-0.5-0.3-0.6-0.6c0-0.3,0.1-0.6,0.4-0.7l33.5-16.1&#10;&#9;&#9;c0.1-0.1,0.3-0.1,0.4-0.1l10.6,1.6c0.3,0,0.5,0.3,0.6,0.6c0,0.3-0.1,0.6-0.4,0.7l-34.9,16.3C180.5,269.5,180.4,269.5,180.3,269.5z&#10;&#9;&#9; M173.3,266.7l6.9,1.4l32.6-15.3l-8.1-1.2L173.3,266.7z"/>
	<path class="st3_fornite-50 targetColor" d="M203.4,336.4c0,0-3.4-22.6-6.3-28.1c0,0-7.4-5.8-20.3,0l-1.8,26.8C174.9,335.2,199.7,333.5,203.4,336.4z" style="fill: rgb(8, 8, 8);"/>
	<path class="st0_fornite-50" d="M197,303.4c-0.1-0.4-5.5-10.6-8.4-9.5c-1.9,0.9-3.5,2.3-4.6,4.1l12.5,9L197,303.4z"/>
	<path class="st1_fornite-50" d="M196.4,307.7c-0.1,0-0.3,0-0.4-0.1l-12.5-9c-0.3-0.2-0.4-0.6-0.2-0.9c1.2-2,2.9-3.5,5-4.4&#10;&#9;&#9;c0.6-0.2,1.3-0.1,1.9,0.2c3.2,1.5,7.3,9.4,7.4,9.8c0,0.1,0,0.2,0,0.3l-0.6,3.6c0,0.2-0.2,0.4-0.4,0.5&#10;&#9;&#9;C196.6,307.7,196.5,307.7,196.4,307.7z M184.9,297.8l11,8l0.3-2.2c-0.9-2-5.6-9.7-7.5-9C187.2,295.2,185.8,296.4,184.9,297.8z"/>
	<path class="st0_fornite-50" d="M156,279.3c7.6-6.5,10.1-8.6,15.1-12.4c0,0,6.2-1.5,10.7,0l0,0c0,0,1.6,24.2,0,25.6s-12.5,10.9-12.6,11.2&#10;&#9;&#9;l-10.7,16.3l-14.2-3.3l-6.3-34.4C138,282.5,152.1,279.2,156,279.3z"/>
	<path class="st1_fornite-50" d="M158.4,320.8h-0.2l-14.2-3.3c-0.3-0.1-0.5-0.3-0.5-0.6l-6.2-34.4c-0.1-0.4,0.2-0.7,0.5-0.8&#10;&#9;&#9;c0.6-0.1,13.4-3.2,17.8-3.2h0.1c7.3-6.3,9.9-8.4,14.9-12.2c0.1-0.1,0.2-0.1,0.3-0.1c0.3-0.1,6.4-1.6,11.1,0&#10;&#9;&#9;c0.3,0.1,0.5,0.3,0.5,0.6c0.5,7.4,1.5,24.7-0.2,26.2l-2.3,2c-3.1,2.7-9.5,8.3-10.1,9l0,0L159,320.5&#10;&#9;&#9;C158.9,320.7,158.7,320.8,158.4,320.8z M144.9,316.3l13.2,3l10.5-15.9l0,0c0.3-0.5,1.9-1.9,10.4-9.3c1.1-1,1.9-1.7,2.3-2&#10;&#9;&#9;c0.8-1.2,0.5-13.3-0.2-24.6c-3.9-1.1-8.9-0.1-9.8,0.1c-5,3.8-7.5,6-15,12.3c-0.1,0.1-0.3,0.2-0.5,0.2c-3.3-0.1-14.3,2.3-17.1,3&#10;&#9;&#9;L144.9,316.3z"/>
	<path class="st0_fornite-50" d="M181.8,266.9l33.4-14.5l0.4,14.2l-14.3,7.8c0,0-1.1,8.3-2,9.4s-19.7,10.7-19.7,10.7L181.8,266.9z"/>
	<path class="st1_fornite-50" d="M179.6,295.2c-0.1,0-0.3,0-0.4-0.1c-0.2-0.1-0.3-0.4-0.3-0.6l2.2-27.6c0-0.3,0.2-0.5,0.4-0.6l33.4-14.5&#10;&#9;&#9;c0.2-0.1,0.5-0.1,0.6,0.1c0.2,0.1,0.3,0.3,0.3,0.6l0.4,14.2c0,0.3-0.1,0.5-0.4,0.6l-14,7.6c-0.3,2.3-1.2,8.3-2.1,9.4&#10;&#9;&#9;s-15.5,8.6-19.9,10.9C179.8,295.2,179.7,295.2,179.6,295.2z M182.4,267.4l-2.1,25.9c7.1-3.6,17.6-9.1,18.4-9.9&#10;&#9;&#9;c0.4-0.6,1.3-5.1,1.9-9c0-0.2,0.2-0.4,0.4-0.5l14-7.5l-0.4-12.8L182.4,267.4z"/>
	<path class="st2_fornite-50" d="M184,282.4c-0.4,0-0.7-0.3-0.7-0.7c0-0.3,0.2-0.5,0.4-0.6l15.9-7.6c0.4-0.2,0.8,0,0.9,0.3s0,0.8-0.3,0.9&#10;&#9;&#9;l-15.9,7.6C184.2,282.4,184.1,282.4,184,282.4z"/>
	
		<ellipse transform="matrix(7.323814e-02 -0.9973 0.9973 7.323814e-02 -111.1775 450.9732)" class="st2_fornite-50" cx="187.1" cy="285.3" rx="2.3" ry="1.4"/>
	<path class="st2_fornite-50" d="M185.9,278c-0.4,0-0.7-0.3-0.7-0.7l0,0v-2.7c0-0.4,0.3-0.7,0.7-0.7s0.7,0.3,0.7,0.7c0,0,0,0,0,0v2.7&#10;&#9;&#9;C186.6,277.7,186.3,278,185.9,278C185.9,278,185.9,278,185.9,278z"/>
	<path class="st2_fornite-50" d="M188.6,276.6c-0.4,0-0.7-0.3-0.7-0.7l0,0v-2.7c0-0.4,0.3-0.7,0.7-0.7c0.4,0,0.7,0.3,0.7,0.7v2.7&#10;&#9;&#9;C189.2,276.3,188.9,276.6,188.6,276.6C188.6,276.6,188.6,276.6,188.6,276.6z"/>
	<path class="st0_fornite-50" d="M213.4,273.9c-0.1,0.1-4.4,0.9-5.7,0c-0.8-0.4-1.3-1.1-1.5-2c0,0,1.8-3.3,2-4.9s-0.4-2.6-0.3-3.3&#10;&#9;&#9;s1.1-3.1,2.1-3s3.1,2.8,4.1,3.7s1.1,1,1.4,1.6S215.1,272.4,213.4,273.9z"/>
	<path class="st1_fornite-50" d="M210,275c-1,0.1-1.9-0.1-2.8-0.5c-0.9-0.5-1.6-1.4-1.8-2.5c0-0.1,0-0.3,0.1-0.4c0.8-1.4,1.5-3,1.9-4.6&#10;&#9;&#9;c0.1-0.7,0-1.3-0.2-2c-0.1-0.4-0.2-0.9-0.1-1.4c0.1-0.5,1.1-3.8,2.9-3.6c0.9,0.1,2,1.3,3.6,2.9c0.4,0.4,0.7,0.7,0.9,1l0.2,0.2&#10;&#9;&#9;c0.5,0.4,1,1,1.3,1.6c0.5,1-0.2,7-2.1,8.6C212.6,274.9,211.3,275.1,210,275z M213.3,273.9L213.3,273.9z M206.9,272&#10;&#9;&#9;c0.2,0.5,0.6,1,1.1,1.3c0.9,0.6,4.2,0.2,5,0c1.4-1.4,1.9-6.2,1.7-6.9c-0.2-0.4-0.2-0.4-1-1.1l-0.2-0.2c-0.3-0.2-0.6-0.6-1-1&#10;&#9;&#9;c-0.7-0.8-2.2-2.4-2.7-2.5c-0.7,0.7-1.1,1.5-1.3,2.4c0,0.3,0,0.6,0.1,0.9c0.2,0.8,0.3,1.6,0.2,2.4&#10;&#9;&#9;C208.4,268.9,207.8,270.5,206.9,272L206.9,272z"/>
	<polygon class="st1_fornite-50" points="209.1,254.5 209.5,242.4 200.8,241 200.8,253.4 202.7,253.5 202.6,242.7 207.9,243.8 207.2,254.2 &#9;"/>
	<path class="st1_fornite-50" d="M209.1,255.2L209.1,255.2l-2-0.2c-0.4,0-0.6-0.4-0.6-0.8l0.6-9.8l-3.8-0.8l0.1,9.9c0,0.2-0.1,0.4-0.2,0.5&#10;&#9;&#9;c-0.1,0.1-0.3,0.2-0.5,0.2l-1.9-0.1c-0.4,0-0.7-0.3-0.7-0.7V241c0-0.2,0.1-0.4,0.2-0.5c0.2-0.1,0.4-0.2,0.6-0.2l8.7,1.4&#10;&#9;&#9;c0.3,0.1,0.6,0.4,0.6,0.7l-0.4,12.1c0,0.2-0.1,0.4-0.2,0.5C209.5,255.1,209.3,255.2,209.1,255.2z M207.9,253.6l0.5,0.1l0.3-10.7&#10;&#9;&#9;l-7.3-1.1v10.9h0.5l-0.1-10c0-0.2,0.1-0.4,0.3-0.6c0.2-0.1,0.4-0.2,0.6-0.1l5.3,1.1c0.3,0.1,0.6,0.4,0.6,0.7L207.9,253.6z"/>
	<path class="st0_fornite-50" d="M216.3,253.7l5.2-2.7c0,0,4.2,0.4,2.7,4.5l-5.2,3C219,258.5,220,253.7,216.3,253.7z"/>
	<path class="st1_fornite-50" d="M219,259.1c-0.2,0-0.3-0.1-0.4-0.1c-0.2-0.2-0.3-0.4-0.3-0.7c0.1-0.6,0.3-2.3-0.4-3.2c-0.4-0.4-1-0.7-1.6-0.6&#10;&#9;&#9;c-0.3,0-0.6-0.2-0.7-0.5c-0.1-0.3,0.1-0.6,0.4-0.8l5.2-2.7c0.1-0.1,0.3-0.1,0.4-0.1c1.3,0.1,2.4,0.8,3.2,1.8&#10;&#9;&#9;c0.6,1.1,0.6,2.5,0.1,3.6c-0.1,0.2-0.2,0.3-0.3,0.4l-5.3,3C219.2,259.1,219.1,259.1,219,259.1z M218.2,253.5&#10;&#9;&#9;c0.3,0.2,0.5,0.4,0.7,0.6c0.6,0.9,0.9,1.9,0.9,3l3.9-2.2c0.3-0.7,0.3-1.5-0.1-2.1c-0.5-0.6-1.2-1-2-1.1L218.2,253.5z"/>
	<path class="st0_fornite-50" d="M159.1,284.9c0,0-0.9,34.6-0.7,35.2s-14.2-3.3-14.2-3.3l-6.3-34.4C138,282.5,153,281.8,159.1,284.9z"/>
	<path class="st1_fornite-50" d="M158.3,320.8c-1.1,0-4.2-0.6-14.2-3.3c-0.3-0.1-0.5-0.3-0.5-0.6l-6.2-34.4c0-0.2,0-0.4,0.1-0.6&#10;&#9;&#9;c0.1-0.2,0.3-0.2,0.5-0.3c0.6,0,15.2-0.6,21.4,2.5c0.2,0.1,0.4,0.4,0.4,0.6c-0.4,13.5-0.8,34-0.7,35c0.1,0.2,0,0.5-0.2,0.6&#10;&#9;&#9;C158.9,320.7,158.8,320.8,158.3,320.8z M144.9,316.3c5.2,1.4,11,2.8,12.9,3.1c0-3.2,0.2-14.6,0.7-34c-5.3-2.4-16.5-2.3-19.6-2.2&#10;&#9;&#9;L144.9,316.3z"/>
	<path class="st0_fornite-50" d="M159.1,284.9l6.2-2.2c0,0,12.1-13.2,16.4-15.8"/>
	<path class="st1_fornite-50" d="M159.1,285.6c-0.3,0-0.6-0.2-0.7-0.5c-0.1-0.4,0.1-0.8,0.4-0.9c0,0,0,0,0,0l6.1-2.1&#10;&#9;&#9;c1.4-1.5,12.3-13.3,16.4-15.8c0.3-0.2,0.8-0.1,1,0.2c0,0,0,0,0,0c0.2,0.3,0.1,0.7-0.2,1c0,0,0,0-0.1,0&#10;&#9;&#9;c-4.2,2.5-16.2,15.5-16.3,15.7c-0.1,0.1-0.2,0.1-0.3,0.2l-6.2,2.2C159.3,285.6,159.2,285.6,159.1,285.6z"/>
	<path class="st2_fornite-50" d="M185,269.5c-0.4,0-0.7-0.3-0.7-0.7c0-0.3,0.2-0.5,0.4-0.6l28-12.5c0.3-0.2,0.8,0,0.9,0.3c0,0,0,0,0,0&#10;&#9;&#9;c0.2,0.4,0,0.8-0.3,0.9c0,0,0,0,0,0l-28,12.5C185.2,269.5,185.1,269.5,185,269.5z"/>
	<path class="st2_fornite-50" d="M164.6,291.8c-0.4,0-0.7-0.3-0.7-0.7c0-0.3,0.1-0.5,0.4-0.6l12.9-7.1c0.3-0.2,0.8-0.1,0.9,0.3&#10;&#9;&#9;c0.2,0.3,0.1,0.8-0.3,1l-12.9,7.1C164.8,291.8,164.7,291.8,164.6,291.8z"/>
	<path class="st0_fornite-50" d="M169.6,233.3c0,0,2.3,14.2,0.7,15.7s-6.9,0.8-6.9,0.8"/>
	<path class="st1_fornite-50" d="M166,250.6c-0.9,0-1.8-0.1-2.8-0.2c-0.4,0-0.7-0.4-0.6-0.8c0-0.4,0.4-0.7,0.8-0.6l0,0c1.9,0.2,5.4,0.3,6.3-0.6&#10;&#9;&#9;c0.8-0.9,0.1-8.5-0.9-15c-0.1-0.4,0.2-0.7,0.6-0.8c0.4-0.1,0.7,0.2,0.8,0.6c0.7,4.4,2.1,14.7,0.5,16.3&#10;&#9;&#9;C169.8,250.4,167.7,250.6,166,250.6z"/>
	<path class="st0_fornite-50" d="M136.7,280.2c1.4-7.1,3.3-14,5.8-20.8c0,0,7.7,6.5,15.2,2.2s16.9-37.6,16.2-42.3s-42.8-11.1-50-1.4&#10;&#9;&#9;s-16.2,57-16.2,57S123.6,293.3,136.7,280.2z"/>
	<path class="st1_fornite-50" d="M126.2,285.6h-0.5c-9.8-0.4-18.1-9.8-18.5-10.2c-0.1-0.2-0.2-0.4-0.2-0.6c0.4-1.9,9.1-47.6,16.3-57.3&#10;&#9;&#9;c5.8-7.8,31.1-5.4,42.7-2.6c8.2,2,8.5,3.8,8.5,4.3c0.8,4.8-8.7,38.5-16.5,43c-6.4,3.7-13-0.1-15.2-1.7c-2.3,6.5-4.1,13.1-5.4,19.8&#10;&#9;&#9;c0,0.1-0.1,0.3-0.2,0.4C134.3,283.8,130.3,285.6,126.2,285.6z M108.4,274.7c1.4,1.5,8.9,9.2,17.2,9.5c3.9,0.1,7.7-1.5,10.3-4.3&#10;&#9;&#9;c1.4-7,3.3-13.9,5.8-20.7c0.1-0.2,0.3-0.4,0.5-0.4c0.2-0.1,0.5,0,0.6,0.1c0.1,0.1,7.4,6.1,14.4,2.1c3-1.8,7.1-9.5,10.9-20.7&#10;&#9;&#9;c3.3-9.8,5.3-18.9,5-20.9c-0.1-0.4-1.5-1.7-7.5-3.2c-14-3.5-36.4-4.4-41.3,2.1C117.7,227.3,109.3,270.4,108.4,274.7z M136.7,280.2&#10;&#9;&#9;L136.7,280.2z"/>
	<path class="st3_fornite-50 targetColor" d="M145.2,279.9c0,0-24.9-16.4-45.5-12.4s-39.9,31.3-41.3,43.7s9.8,86.9,9.8,86.9H158c0,0,8.7-50.9,9.1-62.8&#10;&#9;&#9;S152,288.7,145.2,279.9z" style="fill: rgb(8, 8, 8);"/>
	<path class="st0_fornite-50" d="M193.6,381.4c-15.2,1.8-55.1-40.6-55.1-40.6c-10.4,13.1-24.5,16.4-36.4,13.9l0,0c-9.1-1.9-16.9-7.1-20.5-13.9&#10;&#9;&#9;c-8.3-15.6-2.2-45.6,14.1-59.1c6.2-5.2,13.9-8.3,22-8.8c4-0.3,8.1,0.1,12,1.2c30.1,4,31.5,37.3,31.5,37.3l19.6,21&#10;&#9;&#9;c7.6-3.7,16.6-2,22.5,4C204.1,344.8,208.8,379.5,193.6,381.4z"/>
	<path class="st1_fornite-50" d="M192.6,382.1c-15.2,0-49.1-35.1-54.1-40.3c-9.3,11.3-22.9,16.4-36.5,13.6h0c-9.4-1.9-17.2-7.3-21-14.3&#10;&#9;&#9;c-8.9-16.6-1.7-46.8,14.3-59.9c6.3-5.3,14.2-8.4,22.4-8.9c4.1-0.3,8.3,0.1,12.2,1.2c28.8,3.8,31.8,34.5,32,37.7l19.1,20.5&#10;&#9;&#9;c13.5-5.9,22.7,4.2,22.8,4.4c0.1,0.1,0.2,0.3,0.2,0.4c0.1,0.6,0.1,1.4,0.2,2.3c1.1,11.4,4.2,41.7-10.6,43.4l0,0&#10;&#9;&#9;C193.3,382.1,193,382.1,192.6,382.1z M138.5,340.1c0.2,0,0.4,0.1,0.5,0.2c0.4,0.4,39.8,42.1,54.5,40.4l0,0&#10;&#9;&#9;c13.4-1.6,10.5-30.9,9.4-41.9c-0.1-0.8-0.1-1.5-0.2-2c-5.6-5.7-14.3-7.2-21.5-3.6c-0.3,0.1-0.6,0.1-0.8-0.2l-19.6-21&#10;&#9;&#9;c-0.1-0.1-0.2-0.3-0.2-0.4c0-0.3-1.8-32.8-30.9-36.7c-3.9-1.1-7.9-1.5-11.9-1.2c-8,0.5-15.5,3.5-21.7,8.6&#10;&#9;&#9;c-15.5,12.7-22.6,42.1-14,58.1c3.5,6.6,11.2,11.8,20,13.6l0,0c13.5,2.8,26.5-2.2,35.7-13.7C138,340.2,138.2,340.1,138.5,340.1&#10;&#9;&#9;L138.5,340.1z"/>
	<path class="st1_fornite-50" d="M145.1,347.5c0.4,0.4,21.2-12.2,23.3-28.5c4.2,4,8.1,8.2,11.8,12.6c0,0-8.4,28.1-26,24.6L145.1,347.5z"/>
	<path class="st1_fornite-50" d="M157.1,357.2c-1,0-2.1-0.1-3.1-0.3c-0.1,0-0.2-0.1-0.3-0.2l-9.1-8.7l0,0c-0.3-0.3-0.3-0.7,0-1&#10;&#9;&#9;c0.1-0.1,0.3-0.2,0.4-0.2c1.7-0.7,20.7-12.4,22.7-27.9c0-0.3,0.2-0.5,0.5-0.6c0.2-0.1,0.5,0,0.7,0.1c4.2,4,8.1,8.3,11.8,12.7&#10;&#9;&#9;c0.1,0.2,0.2,0.4,0.1,0.6c-1.6,4.9-3.8,9.5-6.5,13.8C169.3,353.3,163.4,357.2,157.1,357.2z M154.5,355.6&#10;&#9;&#9;c15.5,2.9,23.8-20.6,24.9-23.8c-3.3-4-6.8-7.8-10.5-11.3c-2.7,14.2-18.5,25-22.6,27.2L154.5,355.6z"/>
	<line class="st4_fornite-50" x1="180.9" y1="332.4" x2="196" y2="347.2"/>
	<path class="st1_fornite-50" d="M196,347.9c-0.2,0-0.4-0.1-0.5-0.2l-15.1-14.8c-0.3-0.3-0.3-0.7,0-1c0,0,0,0,0,0c0.3-0.3,0.7-0.3,1,0&#10;&#9;&#9;c0,0,0,0,0,0l15.1,14.8c0.3,0.3,0.3,0.7,0,1c0,0,0,0,0,0C196.4,347.8,196.2,347.9,196,347.9z"/>
	<path class="st1_fornite-50" d="M138.5,341.5c-0.2,0-0.5-0.1-0.6-0.3c-0.1-0.1-6.2-9.4-16.9-12.7c-6.1-2-12.4-2.9-18.8-2.6&#10;&#9;&#9;c-0.4,0-0.7-0.2-0.8-0.6c0-0.4,0.2-0.7,0.6-0.8c0,0,0,0,0,0c0.3,0,8.2-0.7,19.3,2.7s17.4,12.8,17.7,13.2c0.2,0.3,0.1,0.8-0.2,1&#10;&#9;&#9;c0,0,0,0,0,0C138.7,341.4,138.6,341.5,138.5,341.5z"/>
	<path class="st1_fornite-50" d="M152.3,349c-10.2,1.5-19.7,6.3-27,13.5C125.3,362.5,148.2,366.9,152.3,349z"/>
	<path class="st1_fornite-50" d="M131,363.7c-2,0-3.9-0.1-5.9-0.5c-0.4-0.1-0.6-0.4-0.6-0.8c0-0.1,0.1-0.3,0.2-0.4c7.5-7.4,17.1-12.2,27.5-13.7&#10;&#9;&#9;c0.2,0,0.4,0.1,0.6,0.2c0.2,0.2,0.2,0.4,0.2,0.6C150.1,361.7,138.3,363.7,131,363.7z M126.8,362.1c3.5,0.4,7,0.3,10.4-0.3&#10;&#9;&#9;c7.6-1.4,12.4-5.4,14.2-11.9C142.2,351.5,133.6,355.8,126.8,362.1L126.8,362.1z"/>
	<path class="st1_fornite-50" d="M152.3,349c0,0-5.1,13.3-1.4,24.2C150.9,373.2,164.1,372.7,152.3,349z"/>
	<path class="st1_fornite-50" d="M150.9,373.9c-0.3,0-0.6-0.2-0.7-0.5c-3.7-11,1.2-24.1,1.5-24.6c0.1-0.3,0.3-0.4,0.6-0.5&#10;&#9;&#9;c0.3,0,0.5,0.1,0.7,0.4c5,10,6.3,17.3,3.7,21.6C155.4,372.4,153.3,373.7,150.9,373.9L150.9,373.9z M152.4,350.9&#10;&#9;&#9;c-1.2,3.7-3.6,13.3-1.1,21.5c1.7-0.3,3.2-1.3,4.1-2.8C157,367,157.6,361.8,152.4,350.9L152.4,350.9z"/>
	<path class="st0_fornite-50" d="M135.5,240.6c0,0,33.6-4.8,40.3-13.4s0-16.8,0-16.8s3.6-10.1-15-18.8s-36.2-3.9-45.9,6.8s-9.9,42.7-2.2,53&#10;&#9;&#9;S132.8,252,135.5,240.6z"/>
	<path class="st1_fornite-50" d="M120.5,256.4c-2.5,0-5.6-1-8.3-4.7c-7.8-10.5-7.9-42.8,2.2-53.9c8.5-9.3,25.8-16.7,46.7-6.9&#10;&#9;&#9;c17.2,8,15.9,17.3,15.5,19.3c1.1,1.6,6.1,9.4-0.2,17.4c-6.5,8.3-36.1,13-40.3,13.6c-1.9,7.3-7.6,13.7-13.4,14.9&#10;&#9;&#9;C121.9,256.3,121.2,256.4,120.5,256.4z M141.5,187.7c-9.9-0.1-19.3,3.9-26.1,11.1c-9.5,10.5-9.5,42.2-2.1,52.1&#10;&#9;&#9;c2.5,3.3,5.6,4.6,9,3.9c5.5-1.1,10.8-7.3,12.5-14.4c0.1-0.3,0.3-0.5,0.6-0.5c0.3-0.1,33.4-4.9,39.9-13.1c6.3-8,0.3-15.6,0-15.9&#10;&#9;&#9;c-0.2-0.2-0.2-0.4-0.1-0.7c0.1-0.4,3.1-9.7-14.6-18C154.6,189.3,148.1,187.8,141.5,187.7L141.5,187.7z"/>
	<path class="st1_fornite-50" d="M119.7,209.2c-0.3,1-0.9,2-1.7,2.7c-1.2,0.9-2.9,1.3-4.4,0.8c-2.9-0.7-5.2-3-5.8-5.9c-0.2-1.4-0.3-2.8-0.1-4.1&#10;&#9;&#9;c0.3-4,3.2-13.7,9.2-10C122.1,195.9,121.5,204.4,119.7,209.2z"/>
	<path class="st1_fornite-50" d="M115.1,213.6c-0.5,0-1-0.1-1.5-0.2c-3.2-0.7-5.7-3.2-6.4-6.4c-0.3-1.4-0.3-2.9-0.1-4.3c0.2-2.2,1.6-9.1,5.4-11&#10;&#9;&#9;c1.6-0.8,3.5-0.6,4.9,0.5c5.6,3.5,4.8,12.4,3.1,17.3c-0.4,1.1-1,2.2-1.8,3C117.6,213.2,116.4,213.6,115.1,213.6z M114.4,192.6&#10;&#9;&#9;c-0.5,0-0.9,0.1-1.3,0.3c-2.7,1.4-4.3,6.7-4.6,9.9c-0.2,1.3-0.1,2.6,0.1,3.9c0.6,2.6,2.7,4.7,5.3,5.4c1.3,0.4,2.7,0.1,3.8-0.7&#10;&#9;&#9;c0.7-0.7,1.2-1.5,1.4-2.4l0,0c1.8-4.8,2.1-12.7-2.5-15.6C115.9,192.9,115.2,192.7,114.4,192.6z"/>
	<path class="st0_fornite-50" d="M102.8,192.8c-4.9,0.6-9.1,3.7-11.1,8.1c-1.4,3.1-1.6,6.6-2,10c-0.9,7.6-2.7,15.1-5.5,22.2c-1,3-2.5,5.7-4.6,8&#10;&#9;&#9;c-2.2,2.2-5.4,3.6-8.4,2.9c3.8,6.1,11,9.5,18.2,10.3c4.5,0.5,9.3,0.1,13.2-2.2c3.7-2.1,6.8-5.4,8.7-9.2&#10;&#9;&#9;c4.8-10.2,10.8-22.4,7.7-33.9C117.1,201.8,111.2,191.9,102.8,192.8z"/>
	<path class="st1_fornite-50" d="M92.7,255.2c-1.1,0-2.3-0.1-3.4-0.2c-8.1-0.9-15.1-4.9-18.7-10.6c-0.2-0.2-0.2-0.5,0-0.8&#10;&#9;&#9;c0.2-0.2,0.5-0.3,0.7-0.3c3,0.7,6-0.9,7.7-2.7c2-2.2,3.5-4.9,4.4-7.7c2.8-7.1,4.6-14.5,5.5-22.1l0.2-1.3c0.2-3,0.8-6,1.9-8.8&#10;&#9;&#9;c2.1-4.7,6.6-8,11.7-8.6l0,0c8.9-1,15,9.5,17,16.7c3,11.4-2.4,22.9-7.2,33.1l-0.6,1.3c-2,4-5.1,7.3-9,9.5&#10;&#9;&#9;C99.8,254.4,96.3,255.3,92.7,255.2z M72.7,244.9c3.6,4.7,9.7,7.9,16.8,8.7c5,0.6,9.4-0.1,12.7-2.1c3.6-2.1,6.6-5.2,8.4-8.9l0.6-1.3&#10;&#9;&#9;c4.7-10,10-21.3,7.1-32.2c-1.8-6.7-7.4-16.4-15.5-15.6c-4.6,0.5-8.6,3.5-10.6,7.7c-1,2.7-1.6,5.5-1.8,8.4l-0.2,1.4&#10;&#9;&#9;c-0.9,7.7-2.8,15.2-5.6,22.4c-1,3-2.6,5.8-4.8,8.2C78.1,243.7,75.5,244.8,72.7,244.9z"/>
	<path class="st0_fornite-50" d="M71.2,290.8c0,0,5.3,7.8,9.7,9.6"/>
	<path class="st1_fornite-50" d="M80.9,301.1c-0.1,0-0.2,0-0.3-0.1c-4.5-1.9-9.8-9.6-10-9.9c-0.2-0.3-0.2-0.8,0.2-1c0,0,0,0,0,0&#10;&#9;&#9;c0.3-0.2,0.7-0.2,1,0.1c0,0,0,0,0,0c0,0.1,5.3,7.7,9.4,9.4c0.4,0.1,0.5,0.6,0.4,0.9C81.4,300.9,81.2,301.1,80.9,301.1L80.9,301.1z"/>
	<path class="st1_fornite-50" d="M55.8,296c-3.5,1.1-6.4,3.4-8.4,6.5c-4.9,7.3-5.9,16.5-5.6,25.3c0.5,18.7-0.8,38.1,3.3,56.5&#10;&#9;&#9;c0.2,1.2,0.6,2.3,1.2,3.3c2.8,4,34.7,6.5,34.3,2.5c-1-11.3-2-34.2-3-45.5c-1.2-11.8-1.7-23.7-1.6-35.6c0.2-7.1-5.4-10.6-11.7-12.7&#10;&#9;&#9;C61.6,295.2,58.6,295.2,55.8,296z"/>
	<path class="st1_fornite-50" d="M71.4,392.8c-9.7,0-23.7-2-25.7-4.8c-0.7-1.1-1.1-2.3-1.3-3.5c-3.2-13.9-3.2-28.5-3.2-42.7c0-4.6,0-9.4-0.1-14&#10;&#9;&#9;c-0.3-11.3,1.5-19.5,5.8-25.7c2.1-3.2,5.2-5.6,8.8-6.8l0,0c3-0.9,6.2-0.8,9.1,0.2c8.3,2.8,12.3,7.2,12.2,13.4&#10;&#9;&#9;c-0.3,11.2,0.4,22.3,1.6,35.5c0.5,5.7,1,14.4,1.5,22.8s1,17.1,1.5,22.7c0.1,0.6-0.2,1.4-1.7,2C76.9,392.6,74.1,392.9,71.4,392.8z&#10;&#9;&#9; M56,296.7c-3.3,1.1-6.1,3.3-8,6.2c-4,6-5.8,13.9-5.5,24.9c0.1,4.6,0.1,9.4,0.1,14c0,14.1,0.1,28.6,3.2,42.4c0.2,1.1,0.6,2.1,1.1,3&#10;&#9;&#9;c2.1,3,26.2,5.6,32.2,3.4c0.7-0.2,0.8-0.5,0.8-0.5c-0.5-5.7-1-14.4-1.5-22.8s-1-17.1-1.5-22.8c-1.2-13.2-1.9-24.4-1.6-35.7&#10;&#9;&#9;c0.1-5.6-3.4-9.4-11.2-12C61.6,295.9,58.7,295.8,56,296.7L56,296.7z"/>
	<path class="st0_fornite-50" d="M157.1,241.4c1.4-3.5,1.7-7.4,0.9-11.1c-0.3-1.3-1-2.8-2.3-3s-2.4,0.9-3.2,2c-2.4,3.9-3.6,8.4-3.4,12.9&#10;&#9;&#9;c-0.1,1.2,0.2,2.4,0.7,3.5c0.5,1.1,1.6,1.8,2.9,1.8"/>
	<path class="st1_fornite-50" d="M152.5,248.2c-1.4-0.1-2.7-0.9-3.3-2.2c-0.6-1.2-0.8-2.5-0.8-3.8c-0.2-4.7,1-9.4,3.5-13.4&#10;&#9;&#9;c1.1-1.7,2.5-2.5,3.9-2.3s2.4,1.5,2.9,3.6c0.9,3.8,0.6,7.9-0.9,11.5c-0.1,0.4-0.5,0.6-0.9,0.5s-0.6-0.5-0.5-0.9c0,0,0-0.1,0-0.1&#10;&#9;&#9;c1.4-3.4,1.7-7.1,0.9-10.7c-0.2-0.7-0.6-2.3-1.8-2.5s-2,1-2.5,1.7c-2.8,4.2-3.3,9.1-3.3,12.5c0,1.1,0.2,2.2,0.6,3.2&#10;&#9;&#9;c0.4,0.9,1.3,1.4,2.2,1.4c0.4,0,0.7,0.2,0.8,0.6c0,0.4-0.2,0.7-0.6,0.8c0,0,0,0,0,0L152.5,248.2z"/>
	<path class="st1_fornite-50" d="M196,327.8c-0.3,0-0.6-0.2-0.7-0.6c-1-4.9-2.9-17.4-2.9-17.6c-0.1-0.4,0.1-0.8,0.5-0.8&#10;&#9;&#9;c0.4-0.1,0.8,0.1,0.8,0.5c0,0,0,0.1,0,0.1c0,0.1,1.9,12.6,2.9,17.5c0.1,0.4-0.2,0.7-0.6,0.8L196,327.8z"/>
	<path class="st2_fornite-50" d="M151.3,312.2c-0.5,0-1-0.2-1.3-0.6c-1.8-1.7-3.1-4-3.4-6.4c-2.3,0.8-4.8,0.9-7.2,0.5c-3.2-0.8-5.9-3.2-8.5-7.6&#10;&#9;&#9;c-0.9-1.4-1.5-3-1.7-4.6c-0.1-1.4,0.2-2.9,0.8-4.2c1-2.8,2.9-5.2,5.4-6.9c2.7-1.6,6-1.7,8.8-0.1c0.3,0.2,0.4,0.6,0.2,1c0,0,0,0,0,0&#10;&#9;&#9;c-0.2,0.3-0.7,0.4-1,0.2c0,0,0,0,0,0c-2.3-1.3-5.1-1.3-7.3,0.1c-2.3,1.5-4,3.6-4.8,6.1c-0.5,1.1-0.7,2.3-0.7,3.6&#10;&#9;&#9;c0.2,1.4,0.7,2.8,1.5,4c2.3,4,4.8,6.2,7.6,6.9c2.4,0.6,5,0,7.3-0.7c0.2-0.1,0.4,0,0.6,0.1c0.2,0.1,0.3,0.3,0.3,0.5&#10;&#9;&#9;c0.1,2.4,1.2,4.7,3,6.3c0.1,0.1,0.2,0.2,0.4,0.2c0,0,0-0.1,0-0.3c0.2-1.9-0.1-3.7-0.9-5.4c-0.2-0.3-0.1-0.7,0.2-0.9&#10;&#9;&#9;c0.3-0.2,0.7-0.1,0.9,0.1l2.4,3c0.1,0.1,0.2,0.2,0.2,0.2c0.1-0.2,0.2-0.4,0.2-0.6c0.1-0.9,0-1.8-0.3-2.7c-0.1-0.2-0.2-0.4-0.3-0.7&#10;&#9;&#9;c-0.1-0.4,0.1-0.8,0.5-0.9c0.3-0.1,0.7,0,0.8,0.3c0.1,0.2,0.2,0.4,0.3,0.6c0.1,0.2,0.3,0.4,0.4,0.6l0.4-1.3&#10;&#9;&#9;c0.1-0.4,0.5-0.6,0.9-0.5s0.6,0.5,0.5,0.9l0,0l-0.7,2.2c-0.1,0.4-0.5,0.6-0.8,0.5c-0.1,0-0.1,0-0.2-0.1l0,0c0,0.4,0,0.8,0,1.1&#10;&#9;&#9;c-0.1,0.6-0.4,1.2-0.9,1.6c-0.3,0.2-0.7,0.3-1.1,0.2c-0.4-0.1-0.8-0.4-1-0.7l-0.2-0.3c0.1,0.9,0.1,1.9,0,2.8c0,0.6-0.3,1.1-0.8,1.4&#10;&#9;&#9;C151.6,312.2,151.5,312.2,151.3,312.2z"/>
	<path class="st2_fornite-50" d="M141.5,298.1c-0.1,0-0.2,0-0.2,0c-0.4-0.1-0.5-0.5-0.4-0.9c0,0,0,0,0,0c0.9-2.5,1.7-5,2.2-7.6&#10;&#9;&#9;c0.1-0.4,0.4-0.6,0.8-0.5c0,0,0,0,0,0c0.4,0.1,0.6,0.4,0.6,0.8c-0.5,2.7-1.3,5.3-2.3,7.8C142,297.9,141.7,298.1,141.5,298.1z"/>
	<path class="st2_fornite-50" d="M146.6,295.4h-0.1c-2.8-0.4-5.6-1.1-8.3-2c-0.4-0.1-0.6-0.5-0.4-0.9c0.1-0.4,0.5-0.6,0.9-0.4l0,0&#10;&#9;&#9;c2.6,0.9,5.3,1.5,8.1,1.9c0.4,0.1,0.6,0.4,0.6,0.8C147.2,295.1,146.9,295.4,146.6,295.4L146.6,295.4z"/>
	<path class="st0_fornite-50" d="M55.8,386c-0.4,0-0.7-0.3-0.7-0.6c-0.6-5.9-4.4-60.5-2.2-75.9c0.7-5,2.5-8.2,5.5-9.6c4.5-2.2,9.8,0.7,10.1,0.8&#10;&#9;&#9;c0.3,0.2,0.5,0.6,0.3,1c-0.2,0.3-0.6,0.5-1,0.3c0,0,0,0,0,0c0,0-4.9-2.7-8.8-0.8c-2.5,1.2-4.1,4.1-4.7,8.6&#10;&#9;&#9;c-2.1,15,1.6,69.9,2.2,75.6C56.6,385.6,56.3,386,55.8,386L55.8,386z"/>
</g>
<g id="HUD_fornite-50">
	<rect x="362.3" y="346.8" class="st0_fornite-50" width="29.3" height="29.3"/>
	<path class="st2_fornite-50" d="M391.5,376.8h-29.2c-0.4,0-0.7-0.3-0.7-0.7v0v-29.3c0-0.4,0.3-0.7,0.7-0.7h0h29.2c0.4,0,0.7,0.3,0.7,0.7v0&#10;&#9;&#9;v29.3C392.2,376.4,391.9,376.8,391.5,376.8L391.5,376.8z M363,375.4h27.9v-27.9H363V375.4z"/>
	<rect x="373.3" y="379.8" class="st0_fornite-50" width="7.3" height="7.3"/>
	<path class="st2_fornite-50" d="M380.6,387.8h-7.3c-0.4,0-0.7-0.3-0.7-0.7v-7.3c0-0.4,0.3-0.7,0.7-0.7h7.3c0.4,0,0.7,0.3,0.7,0.7v0v7.3&#10;&#9;&#9;C381.3,387.5,380.9,387.8,380.6,387.8L380.6,387.8z M374,386.4h5.9v-5.9H374L374,386.4z"/>
	<rect x="398.3" y="346.8" class="st0_fornite-50" width="29.3" height="29.3"/>
	<path class="st2_fornite-50" d="M427.5,376.8h-29.3c-0.4,0-0.7-0.3-0.7-0.7v0v-29.3c0-0.4,0.3-0.7,0.7-0.7h29.3c0.4,0,0.7,0.3,0.7,0.7v0v29.3&#10;&#9;&#9;C428.2,376.4,427.9,376.8,427.5,376.8L427.5,376.8z M399,375.4h27.9v-27.9H399V375.4z"/>
	<rect x="409.3" y="379.8" class="st0_fornite-50" width="7.3" height="7.3"/>
	<path class="st2_fornite-50" d="M416.6,387.8h-7.3c-0.4,0-0.7-0.3-0.7-0.7v0v-7.3c0-0.4,0.3-0.7,0.7-0.7h0h7.3c0.4,0,0.7,0.3,0.7,0.7v7.3&#10;&#9;&#9;C417.3,387.5,416.9,387.8,416.6,387.8z M410,386.4h5.9v-5.9H410L410,386.4z"/>
	<rect x="434.3" y="346.8" class="st0_fornite-50" width="29.3" height="29.3"/>
	<path class="st2_fornite-50" d="M463.5,376.8h-29.3c-0.4,0-0.7-0.3-0.7-0.7v0v-29.3c0-0.4,0.3-0.7,0.7-0.7h0h29.3c0.4,0,0.7,0.3,0.7,0.7v0&#10;&#9;&#9;v29.3C464.2,376.4,463.9,376.8,463.5,376.8L463.5,376.8z M435,375.4h27.9v-27.9H435V375.4z"/>
	<rect x="445.3" y="379.8" class="st0_fornite-50" width="7.3" height="7.3"/>
	<path class="st2_fornite-50" d="M452.5,387.8h-7.3c-0.4,0-0.7-0.3-0.7-0.7v0v-7.3c0-0.4,0.3-0.7,0.7-0.7h0h7.3c0.4,0,0.7,0.3,0.7,0.7v0v7.3&#10;&#9;&#9;C453.2,387.5,452.9,387.8,452.5,387.8L452.5,387.8z M446,386.4h5.9v-5.9H446L446,386.4z"/>
	<rect x="391.5" y="321.4" class="st0_fornite-50" width="14.4" height="14.4"/>
	<path class="st2_fornite-50" d="M406,336.5h-14.5c-0.4,0-0.7-0.3-0.7-0.7v0v-14.4c0-0.4,0.3-0.7,0.7-0.7h0H406c0.4,0,0.7,0.3,0.7,0.7v0v14.4&#10;&#9;&#9;C406.7,336.2,406.4,336.5,406,336.5L406,336.5z M392.2,335.1h13v-13h-13.1L392.2,335.1z"/>
	<rect x="410.7" y="321.4" class="st0_fornite-50" width="14.4" height="14.4"/>
	<path class="st2_fornite-50" d="M425.2,336.5h-14.4c-0.4,0-0.7-0.3-0.7-0.7v0v-14.4c0-0.4,0.3-0.7,0.7-0.7h0h14.4c0.4,0,0.7,0.3,0.7,0.7v0&#10;&#9;&#9;v14.4C425.9,336.2,425.6,336.5,425.2,336.5L425.2,336.5z M411.4,335.1h13v-13h-13V335.1z"/>
	<rect x="429.9" y="321.4" class="st0_fornite-50" width="14.4" height="14.4"/>
	<path class="st2_fornite-50" d="M444.4,336.5h-14.4c-0.4,0-0.7-0.3-0.7-0.7v0v-14.4c0-0.4,0.3-0.7,0.7-0.7h0h14.5c0.4,0,0.7,0.3,0.7,0.7v0&#10;&#9;&#9;v14.4C445.1,336.2,444.7,336.5,444.4,336.5C444.4,336.5,444.4,336.5,444.4,336.5z M430.6,335.1h13v-13h-13V335.1z"/>
	<rect x="449.1" y="321.4" class="st0_fornite-50" width="14.4" height="14.4"/>
	<path class="st2_fornite-50" d="M463.5,336.5h-14.4c-0.4,0-0.7-0.3-0.7-0.7v0v-14.4c0-0.4,0.3-0.7,0.7-0.7h0h14.4c0.4,0,0.7,0.3,0.7,0.7v0&#10;&#9;&#9;v14.4C464.2,336.2,463.9,336.5,463.5,336.5L463.5,336.5z M449.8,335.1h13v-13h-13V335.1z"/>
	<rect x="412.3" y="289" class="st0_fornite-50" width="14.4" height="20.8"/>
	<path class="st2_fornite-50" d="M426.7,310.4h-14.4c-0.4,0-0.7-0.3-0.7-0.7v0V289c0-0.4,0.3-0.7,0.7-0.7h0h14.4c0.4,0,0.7,0.3,0.7,0.7v0v20.8&#10;&#9;&#9;C427.4,310.2,427.1,310.4,426.7,310.4z M413,309h13v-19.3h-13V309z"/>
	<rect x="429.9" y="289" class="st0_fornite-50" width="14.4" height="20.8"/>
	<path class="st2_fornite-50" d="M444.4,310.4h-14.4c-0.4,0-0.7-0.3-0.7-0.7V289c0-0.4,0.3-0.7,0.7-0.7h0h14.5c0.4,0,0.7,0.3,0.7,0.7v0v20.8&#10;&#9;&#9;C445,310.1,444.7,310.4,444.4,310.4z M430.6,309h13v-19.3h-13V309z"/>
	<rect x="447.5" y="289" class="st0_fornite-50" width="14.4" height="20.8"/>
	<path class="st2_fornite-50" d="M462,310.4h-14.5c-0.4,0-0.7-0.3-0.7-0.7v0V289c0-0.4,0.3-0.7,0.7-0.7h0H462c0.4,0,0.7,0.3,0.7,0.7v0v20.8&#10;&#9;&#9;C462.7,310.2,462.4,310.4,462,310.4z M448.2,309h13v-19.3h-13V309z"/>
	<rect x="43.1" y="128.8" class="st0_fornite-50" width="76.7" height="6"/>
	<path class="st1_fornite-50" d="M119.9,128.8v6H43.1v-6H119.9 M119.9,127.3H43.1c-0.8,0-1.4,0.6-1.4,1.4l0,0v6c0,0.8,0.6,1.4,1.4,1.4&#10;&#9;&#9;c0,0,0,0,0,0h76.7c0.8,0,1.4-0.6,1.4-1.4v-6C121.3,128,120.7,127.3,119.9,127.3L119.9,127.3z"/>
	<rect x="43.1" y="128.8" class="st3_fornite-50 targetColor" width="36" height="6" style="fill: rgb(8, 8, 8);"/>
	<path class="st1_fornite-50" d="M88,119.9H54.4c-0.4,0-0.7-0.3-0.7-0.7c0-0.4,0.3-0.7,0.7-0.7H88c0.4,0,0.7,0.3,0.7,0.7&#10;&#9;&#9;C88.7,119.6,88.4,119.9,88,119.9z"/>
	<path class="st2_fornite-50" d="M201.5,118.1h-54.1c-0.4,0-0.7-0.3-0.7-0.7c0-0.4,0.3-0.7,0.7-0.7h54.1c0.4,0,0.7,0.3,0.7,0.7&#10;&#9;&#9;C202.2,117.8,201.8,118.1,201.5,118.1L201.5,118.1z"/>
	<path class="st2_fornite-50" d="M201.5,128.2h-54.1c-0.4,0-0.7-0.3-0.7-0.7c0-0.4,0.3-0.7,0.7-0.7h54.1c0.4,0,0.7,0.3,0.7,0.7&#10;&#9;&#9;C202.2,127.9,201.8,128.2,201.5,128.2L201.5,128.2z"/>
	<path class="st2_fornite-50" d="M184,138.3h-36.6c-0.4,0-0.7-0.3-0.7-0.7c0-0.4,0.3-0.7,0.7-0.7c0,0,0,0,0,0H184c0.4,0,0.7,0.3,0.7,0.7&#10;&#9;&#9;C184.7,138,184.4,138.3,184,138.3C184,138.3,184,138.3,184,138.3z"/>
	<rect x="214" y="375.4" class="st0_fornite-50" width="116.3" height="7.4"/>
	<path class="st1_fornite-50" d="M330.3,375.4v7.4H214v-7.4H330.3 M330.3,374H214c-0.8,0-1.4,0.6-1.4,1.4v7.4c0,0.8,0.6,1.4,1.4,1.4h116.3&#10;&#9;&#9;c0.8,0,1.4-0.6,1.4-1.4v-7.4C331.7,374.6,331,374,330.3,374z"/>
	<rect x="214" y="375.4" class="st3_fornite-50 targetColor" width="40.4" height="7.4" style="fill: rgb(8, 8, 8);"/>
	<rect x="214" y="362.2" class="st0_fornite-50" width="116.3" height="7.4"/>
	<path class="st1_fornite-50" d="M330.3,362.2v7.4H214v-7.4H330.3 M330.3,360.8H214c-0.8,0-1.4,0.6-1.4,1.4v7.4c0,0.8,0.6,1.4,1.4,1.4&#10;&#9;&#9;c0,0,0,0,0,0h116.3c0.8,0,1.4-0.6,1.4-1.4v-7.4C331.7,361.4,331,360.8,330.3,360.8L330.3,360.8z"/>
	<rect x="214" y="362.2" class="st2_fornite-50" width="19.4" height="7.4"/>
	
		<rect x="43.1" y="116.9" transform="matrix(0.7071 -0.7071 0.7071 0.7071 -70.9681 67.0746)" class="st3_fornite-50 targetColor" width="4.7" height="4.7" style="fill: rgb(8, 8, 8);"/>
</g>
<g id="Map_fornite-50">
	<rect x="397.2" y="113.8" class="st0_fornite-50" width="69.6" height="69.6"/>
	<path class="st1_fornite-50" d="M466.9,184.2h-69.7c-0.4,0-0.7-0.3-0.7-0.7c0,0,0,0,0,0v-69.7c0-0.4,0.3-0.7,0.7-0.7l0,0h69.7&#10;&#9;&#9;c0.4,0,0.7,0.3,0.7,0.7v0v69.6C467.6,183.8,467.3,184.2,466.9,184.2L466.9,184.2z M397.9,182.8h68.3v-68.3h-68.2L397.9,182.8z"/>
	<circle class="st0_fornite-50" cx="411.6" cy="193" r="4.8"/>
	<path class="st1_fornite-50" d="M411.6,198.5c-3,0-5.5-2.5-5.5-5.5s2.5-5.5,5.5-5.5s5.5,2.5,5.5,5.5c0,0,0,0,0,0&#10;&#9;&#9;C417.1,196.1,414.7,198.5,411.6,198.5z M411.6,188.9c-2.3,0-4.1,1.8-4.1,4.1c0,2.3,1.8,4.1,4.1,4.1c2.3,0,4.1-1.8,4.1-4.1&#10;&#9;&#9;C415.7,190.8,413.9,188.9,411.6,188.9z"/>
	<circle class="st0_fornite-50" cx="428.4" cy="193" r="4.8"/>
	<path class="st1_fornite-50" d="M428.4,198.5c-3,0-5.5-2.5-5.5-5.5s2.5-5.5,5.5-5.5c3,0,5.5,2.5,5.5,5.5c0,0,0,0,0,0&#10;&#9;&#9;C433.9,196,431.4,198.5,428.4,198.5z M428.4,188.9c-2.3,0-4.1,1.8-4.1,4.1s1.8,4.1,4.1,4.1c2.3,0,4.1-1.8,4.1-4.1c0,0,0,0,0,0&#10;&#9;&#9;C432.5,190.8,430.6,188.9,428.4,188.9z"/>
	<circle class="st0_fornite-50" cx="445.1" cy="193" r="4.8"/>
	<path class="st1_fornite-50" d="M445.1,198.5c-3,0-5.5-2.5-5.5-5.5s2.5-5.5,5.5-5.5c3,0,5.5,2.5,5.5,5.5c0,0,0,0,0,0&#10;&#9;&#9;C450.6,196.1,448.2,198.5,445.1,198.5z M445.1,188.9c-2.3,0-4.1,1.8-4.1,4.1s1.8,4.1,4.1,4.1c2.3,0,4.1-1.8,4.1-4.1c0,0,0,0,0,0&#10;&#9;&#9;C449.2,190.8,447.4,188.9,445.1,188.9z"/>
	<path class="st2_fornite-50" d="M456.3,175.4h-20.7c-0.4,0-0.7-0.3-0.7-0.7s0.3-0.7,0.7-0.7c0,0,0,0,0,0h20.7c0.4,0,0.7,0.3,0.7,0.7&#10;&#9;&#9;C457,175.1,456.7,175.4,456.3,175.4L456.3,175.4z"/>
	<path class="st1_fornite-50" d="M397.2,168.5c-0.1,0-0.1,0-0.2,0c-0.4-0.1-0.6-0.5-0.5-0.8c0,0,0,0,0,0c0-0.2,1.5-6,11.2-8.3&#10;&#9;&#9;c1.3-0.3,2.5-0.5,3.7-0.8c7.7-1.5,12.8-2.5,10.9-12.9c-1.3-7.1,4.3-12.5,9.8-17.7c4.8-4.6,9.4-8.9,9.4-14.2c0-0.4,0.3-0.7,0.7-0.7&#10;&#9;&#9;c0.4,0,0.7,0.3,0.7,0.7c0,0,0,0,0,0c0,5.9-5,10.7-9.8,15.2c-5.4,5.1-10.5,10-9.4,16.4c2.1,11.8-4.4,13-12,14.5&#10;&#9;&#9;c-1.2,0.2-2.4,0.5-3.7,0.8c-8.8,2-10.1,7-10.2,7.2C397.8,168.3,397.5,168.5,397.2,168.5z"/>
	<path class="st0_fornite-50" d="M416.4,183.5c1.2,0,5.5-21.7,14.2-22.1s6.3,4.6,15.3-1.2s1-14.2,4-19.3s17-1.7,17-1.7"/>
	<path class="st1_fornite-50" d="M416.4,184.2c-0.4,0-0.7-0.3-0.7-0.7c0-0.3,0.1-0.5,0.4-0.6c0.5-1.1,1-2.3,1.3-3.5c2.2-6.4,6.4-18.4,13.2-18.7&#10;&#9;&#9;c2.3-0.2,4.6,0.1,6.8,1c2,0.8,3,1.2,8.2-2.1s4.4-7.5,3.5-11.6c-0.5-2.7-1-5.3,0.2-7.5c3.1-5.5,17.1-2.2,17.7-2.1&#10;&#9;&#9;c0.4,0.1,0.6,0.5,0.5,0.8c0,0,0,0,0,0c-0.1,0.4-0.5,0.6-0.9,0.5c-3.8-0.9-14-2.4-16.2,1.4c-1,1.7-0.5,4.1,0,6.5&#10;&#9;&#9;c0.8,4.1,1.8,9.2-4.2,13c-5.5,3.6-7.1,3.2-9.5,2.3c-1.9-0.8-4.1-1.2-6.2-1c-5.9,0.3-9.8,11.7-11.9,17.8&#10;&#9;&#9;C417.5,183.3,417.2,184.2,416.4,184.2z"/>
	<path class="st0_fornite-50" d="M406.6,129c0.3,3.5,3.4,6,6.9,5.7c0,0,0.1,0,0.1,0c5.4-0.8,6.6-8.1,2.8-11.5S406.4,124.4,406.6,129z"/>
	<path class="st2_fornite-50" d="M412.8,135.4c-1.6,0-3.1-0.6-4.3-1.6c-1.5-1.2-2.4-2.9-2.6-4.8l0,0c0-3,1.8-5.8,4.6-7.1c2-1.1,4.6-0.8,6.3,0.7&#10;&#9;&#9;c2.2,2,3,5.1,2.1,8c-0.7,2.5-2.7,4.3-5.3,4.7C413.4,135.4,413.1,135.4,412.8,135.4z M413.2,122.7c-0.8,0-1.5,0.2-2.2,0.5&#10;&#9;&#9;c-2.3,1.1-3.7,3.3-3.8,5.8l0,0c0.3,3.1,3.1,5.3,6.2,5c0,0,0,0,0,0c2-0.3,3.7-1.8,4.1-3.7c0.7-2.3,0-4.9-1.7-6.6&#10;&#9;&#9;C415.2,123.1,414.2,122.7,413.2,122.7z"/>
	<polygon class="st3_fornite-50 targetColor" points="452.5,133.5 445.1,131.6 447,124.3 &#9;" style="fill: rgb(8, 8, 8);"/>
</g>
<g id="Crosshair_fornite-50">
	<path class="st1_fornite-50" d="M261,215.7c-0.4,0-0.7-0.3-0.7-0.7c0,0,0,0,0,0v-4.6c0-0.4,0.3-0.7,0.7-0.7c0.4,0,0.7,0.3,0.7,0.7c0,0,0,0,0,0&#10;&#9;&#9;v4.6C261.7,215.4,261.4,215.7,261,215.7C261,215.7,261,215.7,261,215.7z"/>
	<path class="st1_fornite-50" d="M261,237.5c-0.4,0-0.7-0.3-0.7-0.7c0,0,0,0,0,0v-4.6c0-0.4,0.3-0.7,0.7-0.7c0.4,0,0.7,0.3,0.7,0.7v4.6&#10;&#9;&#9;C261.7,237.2,261.4,237.5,261,237.5z"/>
	<path class="st1_fornite-50" d="M274.2,224.3h-4.6c-0.4,0-0.7-0.3-0.7-0.7c0-0.4,0.3-0.7,0.7-0.7h4.6c0.4,0,0.7,0.3,0.7,0.7&#10;&#9;&#9;S274.6,224.3,274.2,224.3C274.2,224.3,274.2,224.3,274.2,224.3z"/>
	<path class="st1_fornite-50" d="M252.4,224.3h-4.6c-0.4,0-0.7-0.3-0.7-0.7c0-0.4,0.3-0.7,0.7-0.7h4.6c0.4,0,0.7,0.3,0.7,0.7&#10;&#9;&#9;C253.1,224,252.8,224.3,252.4,224.3z"/>
	<path class="st1_fornite-50" d="M261.6,224.5h-1.1c-0.4,0-0.7-0.3-0.7-0.7c0-0.4,0.3-0.7,0.7-0.7h1.1c0.4,0,0.7,0.3,0.7,0.7&#10;&#9;&#9;S262,224.5,261.6,224.5C261.6,224.5,261.6,224.5,261.6,224.5z"/>
</g>
</svg>