<svg version="1.1" id="Layer_1" xmlns="http://www.w3.org/2000/svg" xmlns:xlink="http://www.w3.org/1999/xlink" x="0px" y="0px" viewBox="0 0 500 500" style="width: 188px;" xml:space="preserve" data-imageid="gaming-77" imageName="Gaming" class="illustrations_image">
<style type="text/css">
	.st0_gaming-77{fill:#FFFFFF;}
	.st1_gaming-77{fill:#D1D3D4;}
	.st2_gaming-77{fill:#231F20;}
	.st3_gaming-77{fill:#68E1FD;}
	.st4_gaming-77{fill:none;}
</style>
<g id="carpet_gaming-77">
	<polygon class="st0_gaming-77" points="307.2,353.7 64.9,353.7 26.1,399.5 355.8,405.4 &#9;"/>
	<path class="st1_gaming-77" d="M355.8,406.1L355.8,406.1l-329.6-5.9c-0.3,0-0.5-0.2-0.6-0.4c-0.1-0.3-0.1-0.6,0.1-0.8l38.8-45.8&#10;&#9;&#9;c0.1-0.2,0.3-0.3,0.6-0.3h242.3c0.2,0,0.4,0.1,0.5,0.2l48.5,51.7c0.2,0.2,0.2,0.5,0.1,0.8C356.3,405.9,356.1,406.1,355.8,406.1z&#10;&#9;&#9; M27.7,398.8l326.4,5.8l-47.2-50.2H65.2L27.7,398.8z"/>
</g>
<g id="Character_gaming-77">
	<path class="st0_gaming-77" d="M247.3,282.4c0,0,23.7,48.4,24.7,82.6c0,0,23.7,8,23.7,11.4s-35.4,3.1-35.4,3.1l-27.6-68.1L247.3,282.4z"/>
	<path class="st2_gaming-77" d="M262.9,380.2h-2.6c-0.3,0-0.6-0.2-0.7-0.5l-27.6-68.1c-0.1-0.2-0.1-0.4,0-0.6l14.5-29c0.1-0.2,0.4-0.4,0.6-0.4&#10;&#9;&#9;l0,0c0.3,0,0.5,0.2,0.6,0.4c0.2,0.5,23.6,48.5,24.8,82.4c6.2,2.1,23.8,8.4,23.8,11.9c0,0.4-0.2,0.7-0.4,1&#10;&#9;&#9;C293.3,380,270.9,380.2,262.9,380.2z M260.8,378.8c16.1,0.1,33.1-0.8,34.2-2.5c0-1.5-10.7-6.4-23.3-10.6c-0.3-0.1-0.5-0.4-0.5-0.7&#10;&#9;&#9;c-0.9-30.4-20.2-72.9-24-80.9l-13.7,27.4L260.8,378.8z"/>
	<path class="st2_gaming-77" d="M176.6,276.3c0,0,52,0,73.4,6.2l-12.3,34.3l-80-20.2L176.6,276.3z"/>
	<path class="st2_gaming-77" d="M237.8,317.5c-0.1,0-0.1,0-0.2,0l-80-20.2c-0.2-0.1-0.4-0.3-0.5-0.5c-0.1-0.2,0-0.5,0.2-0.7l18.9-20.2&#10;&#9;&#9;c0.1-0.1,0.3-0.2,0.5-0.2c0.5,0,52.4,0.1,73.6,6.2c0.2,0.1,0.4,0.2,0.4,0.4c0.1,0.2,0.1,0.4,0,0.6L238.4,317&#10;&#9;&#9;C238.3,317.3,238.1,317.5,237.8,317.5z M159.1,296.1l78.2,19.8l11.8-33c-20.6-5.6-67.8-5.9-72.1-5.9L159.1,296.1z"/>
	<path class="st0_gaming-77" d="M189,207.4c-0.5,0.8,11.5,20.9,14.3,22.3s35.1-5.8,42.5-7.5s11.8-0.7,12.4,2.4s-7.3,12.5-10.1,14&#10;&#9;&#9;s-35.7,20.3-46.2,17.2s-37.3-32.4-37.3-32.4"/>
	<path class="st2_gaming-77" d="M204.7,256.7c-1,0-2-0.1-3-0.4c-10.5-3.2-36.5-31.4-37.6-32.6c-0.3-0.3-0.3-0.8,0-1s0.8-0.3,1,0&#10;&#9;&#9;c0.3,0.3,26.8,29.1,37,32.2c6.1,1.8,21.9-4.1,44.6-16.6l1-0.6c2.7-1.4,10.3-10.6,9.7-13.2c-0.1-0.7-0.6-1.4-1.2-1.7&#10;&#9;&#9;c-1.9-1.2-5.5-1.2-10.3-0.1c-0.4,0.1-39.4,9.3-43,7.5c-3.1-1.5-14.1-20.1-14.7-22.5c-0.1-0.3-0.1-0.6,0.1-0.9&#10;&#9;&#9;c0.2-0.3,0.7-0.4,1-0.2c0.2,0.2,0.4,0.4,0.3,0.7c0.5,2,11.4,20.2,13.9,21.5c2.2,1.1,28.5-4.4,42-7.6c5.2-1.2,9.2-1.2,11.4,0.3&#10;&#9;&#9;c1,0.6,1.7,1.6,1.9,2.7c0.7,3.6-7.7,13.3-10.5,14.7l-1,0.6C232.9,247.7,214.4,256.7,204.7,256.7z M189.6,207.8L189.6,207.8z"/>
	<path class="st2_gaming-77" d="M252.2,239.6c0,0,3-8.4,2.6-9.7s-7.3-4.7-7.3-4.7s-6.2,0.6-5.6-0.7s9.3-5,12.9-4.5s13.6,4.5,15.2,6.3&#10;&#9;&#9;s-2.3,9.4-4.6,10.7S249.5,245.1,252.2,239.6z"/>
	<path class="st2_gaming-77" d="M253.1,242.4c-0.5,0.1-1.1-0.1-1.5-0.4c-0.6-0.6-0.6-1.4-0.1-2.6c1.4-3.8,2.8-8.4,2.5-9.2s-3.7-2.7-6.8-4.2&#10;&#9;&#9;c-3.5,0.3-5.5,0.1-6-0.7c-0.2-0.3-0.2-0.7-0.1-1c0.8-1.8,10.1-5.4,13.6-4.9c3.6,0.5,13.8,4.5,15.6,6.5c0.6,0.8,0.7,1.8,0.5,2.8&#10;&#9;&#9;c-0.5,3.1-3.3,8-5.2,9.1C265.5,237.6,257,242.4,253.1,242.4z M247.4,224.4c0.1,0,0.2,0,0.3,0.1c2.1,1,7.2,3.7,7.7,5.2&#10;&#9;&#9;s-1.6,7.6-2.6,10.2v0.1c-0.4,0.7-0.3,1-0.3,1c0.8,0.9,8.3-2.2,12.3-4.6c1.4-0.8,4-5.2,4.5-8c0.2-1.1,0-1.5-0.1-1.6&#10;&#9;&#9;c-1.4-1.6-11-5.5-14.7-6.1c-3-0.4-10,2.5-11.8,3.8C244.3,224.6,245.9,224.6,247.4,224.4L247.4,224.4z M252.2,239.5L252.2,239.5z"/>
	<path class="st0_gaming-77" d="M236.2,293.5c0,0,23.7,48.4,24.7,82.6c0,0,23.7,8,23.7,11.4s-35.4,3.1-35.4,3.1l-27.6-68.1L236.2,293.5z"/>
	<path class="st2_gaming-77" d="M251.8,391.3h-2.6c-0.3,0-0.6-0.2-0.7-0.5L221,322.8c-0.1-0.2-0.1-0.4,0-0.6l14.5-29c0.1-0.2,0.4-0.4,0.6-0.4&#10;&#9;&#9;l0,0c0.3,0,0.5,0.2,0.6,0.4c0.2,0.5,23.6,48.5,24.8,82.4c6.2,2.1,23.7,8.4,23.7,11.9c0,0.4-0.1,0.7-0.4,1&#10;&#9;&#9;C282.3,391.1,259.9,391.3,251.8,391.3z M249.7,389.8c16,0.1,33.1-0.8,34.2-2.5c0-1.5-10.7-6.4-23.2-10.6c-0.3-0.1-0.5-0.4-0.5-0.7&#10;&#9;&#9;c-0.9-30.5-20.2-72.9-24-80.9l-13.7,27.4L249.7,389.8z"/>
	<path class="st2_gaming-77" d="M183.6,280.7l55.4,9.8l-16,48.7c0,0-73.3,13.7-99.1,2s-18.5-64.9-18.5-64.9L183.6,280.7z"/>
	<path class="st2_gaming-77" d="M156.4,346.6c-14.8,0-25.8-1.6-32.8-4.8c-10.8-4.9-17.5-17.8-19.4-37.4c-0.8-9.4-0.7-18.8,0.4-28.2&#10;&#9;&#9;c0.1-0.4,0.4-0.6,0.8-0.6l78.2,4.4h0.1l55.4,9.8c0.4,0.1,0.7,0.5,0.6,0.9c0,0,0,0.1,0,0.1l-16,48.7c-0.1,0.2-0.3,0.4-0.6,0.5&#10;&#9;&#9;c-0.2,0-18.6,3.5-39.9,5.4C173.2,346.1,164.3,346.6,156.4,346.6z M106,277c-0.7,6.1-5.3,52.8,18.2,63.4c24.3,11,92.2-0.9,98.3-2&#10;&#9;&#9;L238,291l-54.6-9.6L106,277z"/>
	<path class="st3_gaming-77 targetColor" d="M189.8,185.9l-18.7-2.9c0,0-9.1-1.8-21.1,4.9c-9.4,5.2-21.5,17.4-27.6,27.9c-21.4,36.8-19.1,94.5-19.1,94.5&#10;&#9;&#9;s63-16.4,76.2-25.3c10.4-7,8.9-10,8.9-10s-6.4-11-5.4-19.8S199.5,197.7,189.8,185.9z" style="fill: rgb(16, 16, 16);"/>
	<path class="st0_gaming-77" d="M154,237.8c0,0,30.6,37.3,41.8,34.8s55.5-24.5,55.5-24.5s11.7-2.7,14.9-6.7s5.4-12.6,3.6-13.3&#10;&#9;&#9;s-17.4,7.1-17.4,7.1s3.7-4.7,1.9-6.7s-10.4,7.4-10.4,7.4l-45.6,11.9L175,214"/>
	<path class="st2_gaming-77" d="M194.6,273.4c-12.3,0-40-33.7-41.2-35.2c-0.2-0.3-0.2-0.7,0.1-1c0.3-0.2,0.7-0.2,1,0.1&#10;&#9;&#9;c0.3,0.4,30.4,37,41.1,34.5c11-2.5,54.9-24.3,55.4-24.5l0.1-0.1c0.1,0,11.5-2.7,14.5-6.4c3.2-4,4.7-11.4,3.9-12.2&#10;&#9;&#9;c-1.2-0.2-9.5,3.4-16.9,7.1c-0.4,0.2-0.8,0-1-0.3c-0.1-0.3-0.1-0.6,0.1-0.8c1.1-1.4,3-4.6,2-5.8l0,0c-1.7,0-6.5,4.4-9.3,7.4&#10;&#9;&#9;c-0.1,0.1-0.2,0.2-0.4,0.2l-45.7,11.9c-0.3,0.1-0.6,0-0.8-0.3l-23.2-33.8c-0.2-0.4-0.1-0.8,0.3-1c0.3-0.2,0.7-0.1,0.9,0.2&#10;&#9;&#9;l22.9,33.4l44.9-11.7c1.5-1.6,7.4-7.8,10.2-7.8l0,0c0.5,0,0.9,0.2,1.2,0.5c1.2,1.4,0.4,3.7-0.5,5.4c5.4-2.6,14.1-6.6,15.7-6&#10;&#9;&#9;c0.5,0.2,0.9,0.7,1,1.2c0.7,2.7-1.6,9.9-4.3,13.2c-3.2,4-14.1,6.6-15.2,6.9c-2.7,1.3-44.6,22-55.6,24.6&#10;&#9;&#9;C195.5,273.3,195.1,273.4,194.6,273.4z"/>
	<path class="st2_gaming-77" d="M175,214.8c-0.3,0-0.5-0.1-0.6-0.4l-8.2-13.1c-0.2-0.3-0.1-0.8,0.3-1c0.3-0.2,0.8-0.1,1,0.2l8.2,13.2&#10;&#9;&#9;c0.2,0.3,0.1,0.8-0.2,1C175.3,214.7,175.1,214.7,175,214.8z"/>
	<path class="st2_gaming-77" d="M154,238.5c-0.2,0-0.4-0.1-0.5-0.2L140,224.5c-0.3-0.2-0.5-0.7-0.3-1s0.7-0.5,1-0.3c0.1,0.1,0.2,0.2,0.3,0.3&#10;&#9;&#9;l13.5,13.8c0.3,0.3,0.3,0.8,0,1C154.3,238.4,154.1,238.5,154,238.5L154,238.5z"/>
	<path class="st0_gaming-77" d="M235.3,225.4c0,0,5.4-8,7.2-8.4s12.3,2.2,10.5,3.3s-7.4,0.9-7.4,0.9s-2.2,3.3-4.3,5.9"/>
	<path class="st2_gaming-77" d="M241.3,227.9c-0.2,0-0.3-0.1-0.5-0.2c-0.3-0.3-0.3-0.7-0.1-1c2.1-2.5,4.2-5.8,4.2-5.8c0.1-0.2,0.4-0.3,0.6-0.3&#10;&#9;&#9;c2.2,0.1,4.3,0,6.4-0.5c-1.8-1-8.1-2.5-9.4-2.2c-0.9,0.2-4.2,4.3-6.8,8.1c-0.2,0.3-0.7,0.4-1,0.2c-0.3-0.2-0.4-0.7-0.2-1&#10;&#9;&#9;c1.3-1.9,5.8-8.3,7.7-8.7c1.4-0.3,10.8,1.5,11.5,3.4c0.2,0.5,0,1-0.5,1.3c-1.7,1-6,1-7.4,1c-0.6,0.9-2.4,3.5-4.1,5.6&#10;&#9;&#9;C241.7,227.8,241.5,227.9,241.3,227.9z"/>
	<path class="st0_gaming-77" d="M264.2,227.4c-0.4-1-2.5-0.2-2,0.8S264.6,228.4,264.2,227.4z"/>
	<path class="st0_gaming-77" d="M259.2,226.7c-0.8,0.8,0.6,2.2,1.4,1.5S260,225.9,259.2,226.7z"/>
	<path class="st0_gaming-77" d="M261,229.3c-0.8,0.8,0.8,2.3,1.5,1.5S261.7,228.5,261,229.3z"/>
	<path class="st0_gaming-77" d="M258.5,229c-1.5,0.6-0.9,2,0.6,1.4S260,228.3,258.5,229z"/>
	<path class="st0_gaming-77" d="M248.8,224.1c-0.2,0-0.3-0.1-0.3-0.2c-0.1-0.2,0-0.4,0.2-0.5l5.4-2c0.2-0.1,0.4,0,0.5,0.2&#10;&#9;&#9;c0.1,0.2,0,0.4-0.2,0.5l-5.4,2C248.9,224.1,248.8,224.1,248.8,224.1z"/>
	<path class="st0_gaming-77" d="M253.8,224.4c-0.1,0-0.1,0-0.2-0.1l-4.1-2.5c-0.2-0.1-0.2-0.3-0.1-0.5c0,0,0,0,0,0c0.1-0.2,0.3-0.2,0.5-0.1&#10;&#9;&#9;c0,0,0,0,0,0l4.1,2.5c0.2,0.1,0.2,0.3,0.1,0.5c0,0,0,0,0,0C254,224.3,253.9,224.4,253.8,224.4z"/>
	<path class="st0_gaming-77" d="M170.3,179.2c-6.9,0.2-14.3-3.3-16.3-9.9c1.9,0.8,3.9,1.2,5.9,1.1c-4.2-6.9-7.4-14.6-7.3-22.7&#10;&#9;&#9;s4.1-16.4,11.3-20c3.9-2,8.3-2.5,12.6-2.5c3,0,6.1,0.2,8.5,2l-6.3-5c8.4-1.5,16.9,1,23.2,6.7l-2-6.6c6.2,2.6,11.2,7.4,14,13.5&#10;&#9;&#9;c2.1,4.4,3.9,15.6-4.7,14.2c0.4,0.1-5.8,9.4-6.5,10.2c-2.8,3-6,5.3-9.2,7.8c-6.7,5.4-13.4,10.3-22.5,11L170.3,179.2z"/>
	<path class="st2_gaming-77" d="M169.7,179.9c-6.7,0-14.3-3.5-16.4-10.4c-0.1-0.4,0.1-0.8,0.5-0.9c0.2-0.1,0.4,0,0.5,0&#10;&#9;&#9;c1.4,0.6,2.9,0.9,4.4,1.1c-4.6-7.9-6.8-15-6.7-21.9c0.1-9,4.7-17.1,11.7-20.6c3.4-1.7,7.5-2.5,12.9-2.6c1.4,0,2.9,0.1,4.3,0.3&#10;&#9;&#9;l-2.5-2c-0.3-0.2-0.4-0.7-0.1-1c0.1-0.1,0.3-0.2,0.5-0.3c7.7-1.4,15.7,0.6,21.9,5.3l-1.3-4.3c-0.1-0.4,0.1-0.8,0.4-0.9&#10;&#9;&#9;c0.2-0.1,0.4-0.1,0.6,0c6.4,2.6,11.5,7.6,14.4,13.8c1.6,3.5,2.9,10.1,0.4,13.4c-1.2,1.6-3,2.2-5.4,1.9c-1.3,2.8-6.3,9.9-6.4,10&#10;&#9;&#9;c-2.2,2.3-4.6,4.4-7.2,6.3l-2.1,1.6c-7.1,5.7-13.8,10.5-22.9,11.1h-0.8L169.7,179.9L169.7,179.9z M170.3,179.2L170.3,179.2z&#10;&#9;&#9; M155.3,170.5c2.5,5.4,9.2,8.1,15,7.9h0.7c8.7-0.6,15.1-5.3,22.1-10.8l2.1-1.7c2.5-1.8,4.8-3.9,7-6.1c2.3-3.1,4.4-6.4,6.3-9.8&#10;&#9;&#9;c0,0,0-0.1,0-0.1c0.1-0.4,0.4-0.7,0.8-0.6c0,0,0,0,0,0c2.1,0.3,3.6-0.1,4.5-1.3c2-2.7,1-8.6-0.6-11.9c-2.5-5.4-6.8-9.8-12.2-12.5&#10;&#9;&#9;l1.6,5.1c0.1,0.3,0,0.6-0.3,0.8c-0.3,0.2-0.6,0.1-0.9-0.1c-5.7-5.1-13.3-7.6-20.9-6.8l5,3.9c0.3,0.2,0.4,0.7,0.1,1&#10;&#9;&#9;c-0.2,0.3-0.7,0.4-1,0.2c-2.3-1.7-5.3-1.9-8.1-1.8c-5.2,0-9.1,0.8-12.3,2.4c-6.5,3.3-10.8,10.9-10.9,19.4&#10;&#9;&#9;c-0.1,6.9,2.2,14.2,7.2,22.3c0.1,0.2,0.1,0.5,0,0.7c-0.1,0.2-0.4,0.4-0.6,0.4C158.4,171.2,156.8,171,155.3,170.5L155.3,170.5z"/>
	<path class="st0_gaming-77" d="M209,162.9c0,0,4,11.2,2.2,12.9s-5.9-0.7-5.9-0.7"/>
	<path class="st2_gaming-77" d="M209.4,177.2c-1.6-0.1-3.1-0.6-4.5-1.4c-0.3-0.2-0.5-0.6-0.3-1c0,0,0,0,0,0c0.2-0.3,0.7-0.5,1-0.3c0,0,0,0,0,0&#10;&#9;&#9;c0.9,0.6,3.9,1.9,5,0.8c0.9-0.8-0.5-6.9-2.4-12.1c-0.1-0.4,0.1-0.8,0.4-0.9c0.4-0.1,0.8,0.1,0.9,0.4c1,2.8,4,11.9,2,13.7&#10;&#9;&#9;C211,176.9,210.2,177.2,209.4,177.2z"/>
	<path class="st0_gaming-77" d="M210.8,149.8c3.2,4.3,0.3,11.1-0.8,15.6c-1.6,6.4-3.4,12.8-5.3,19.1c-1.2,4-11.8,1.5-13.4-0.2l-2.3,16.5&#10;&#9;&#9;c0,0-5.4,0.1-12.9-5.9s-7.1-8.1-7.1-8.1l5.3-18.4c0,0,7,1.8,13.1-5.5s9.1-20.1,9.1-20.1S207.6,145.6,210.8,149.8z"/>
	<path class="st2_gaming-77" d="M188.9,201.6c-0.7,0-6-0.2-13.4-6.1s-7.5-8.2-7.4-8.8l5.3-18.5c0.1-0.4,0.5-0.6,0.9-0.5&#10;&#9;&#9;c0.3,0.1,6.6,1.6,12.4-5.3c6-7.1,8.9-19.7,9-19.8c0-0.2,0.2-0.4,0.3-0.5c0.2-0.1,0.4-0.1,0.6-0.1c0.5,0.1,11.5,2.8,14.8,7.2&#10;&#9;&#9;c2.9,3.9,1.3,9.4,0,13.8c-0.3,0.9-0.5,1.7-0.7,2.4c-1.6,6.4-3.4,12.8-5.3,19.2c-0.2,0.9-1,2-3,2.4c-3.2,0.7-8.1-0.3-10.4-1.6&#10;&#9;&#9;l-2.2,15.4C189.6,201.3,189.3,201.6,188.9,201.6L188.9,201.6z M169.6,187.1c0,0,0.3,2.1,6.9,7.3c5.8,4.6,10.3,5.5,11.9,5.7&#10;&#9;&#9;l2.2-15.8c0.1-0.4,0.4-0.7,0.8-0.6c0.2,0,0.3,0.1,0.4,0.2c0.9,0.9,6.6,2.7,10.1,1.9c1.1-0.3,1.8-0.7,2-1.4&#10;&#9;&#9;c1.9-6.3,3.7-12.7,5.3-19.1c0.2-0.8,0.4-1.6,0.7-2.5c1.2-4.1,2.7-9.2,0.2-12.5l0,0c-2.5-3.4-10.8-5.8-13.2-6.4&#10;&#9;&#9;c-0.7,2.8-3.7,13.2-9.1,19.7s-11.2,6.1-13.1,5.9L169.6,187.1L169.6,187.1z"/>
	<path class="st0_gaming-77" d="M205.6,179.7c0,0-2.1-0.7-7.4-6.9"/>
	<path class="st2_gaming-77" d="M205.6,180.4c-0.1,0-0.2,0-0.2,0c-0.2-0.1-2.5-1-7.7-7.1c-0.3-0.3-0.2-0.8,0.1-1s0.8-0.2,1,0.1l0,0&#10;&#9;&#9;c5,5.8,7.1,6.7,7.1,6.7c0.4,0.1,0.6,0.6,0.4,0.9C206.2,180.3,205.9,180.4,205.6,180.4z"/>
	<path class="st0_gaming-77" d="M195.6,164c0.2-1.7,0-3.3-0.7-4.9c-0.4-1.2-0.9-2.4-1.6-3.5c-0.7-1.1-1.9-1.8-3.2-1.9c-1.2,0-2.2,0.5-3,1.4&#10;&#9;&#9;c-0.8,0.9-1.3,1.9-1.6,3c-1.4,4.9-0.2,10.1,3.4,13.8l-0.3-0.5"/>
	<path class="st2_gaming-77" d="M188.9,172.6c-0.2,0-0.4-0.1-0.5-0.2c-3.7-3.9-5-9.4-3.5-14.5c0.3-1.2,0.9-2.3,1.8-3.3c0.9-1,2.2-1.6,3.6-1.6&#10;&#9;&#9;c1.5,0.1,2.9,0.9,3.8,2.2c0.7,1.1,1.3,2.4,1.7,3.7c0.7,1.7,1,3.5,0.7,5.3c-0.1,0.4-0.5,0.6-0.9,0.5c0,0,0,0,0,0&#10;&#9;&#9;c-0.4-0.1-0.6-0.5-0.6-0.9c0.2-1.5-0.1-3.1-0.7-4.4c-0.3-1.2-0.8-2.3-1.5-3.3c-0.6-0.9-1.6-1.5-2.6-1.6c-0.9,0-1.8,0.4-2.4,1.1&#10;&#9;&#9;c-0.7,0.8-1.2,1.7-1.4,2.7c-1.2,4.3-0.3,9,2.6,12.4c0.2,0,0.4,0.2,0.5,0.4l0.3,0.5c0.2,0.3,0.1,0.7-0.2,0.9&#10;&#9;&#9;C189.2,172.6,189,172.6,188.9,172.6z"/>
	<path class="st2_gaming-77" d="M191.2,184.4c0,0-5.1-3-6.7-7.4c0,0-2,9.9,5.6,14.8L191.2,184.4z"/>
	<path class="st2_gaming-77" d="M190.2,192.4c-0.1,0-0.3,0-0.4-0.1c-8-5.1-6-15.4-6-15.5c0.1-0.4,0.4-0.7,0.8-0.6c0.3,0,0.5,0.2,0.6,0.5&#10;&#9;&#9;c1.5,4.1,6.3,7,6.4,7.1c0.2,0.1,0.4,0.4,0.3,0.7l-1,7.4c0,0.2-0.2,0.5-0.4,0.6C190.4,192.4,190.3,192.4,190.2,192.4z M185.1,179.4&#10;&#9;&#9;c-0.1,2.9,0.5,7.8,4.6,11l0.8-5.7C188.3,183.3,186.5,181.6,185.1,179.4L185.1,179.4z"/>
	
		<ellipse transform="matrix(0.3976 -0.9175 0.9175 0.3976 -20.2416 284.3049)" class="st2_gaming-77" cx="206.4" cy="157.6" rx="2.4" ry="0.9"/>
	<line class="st4_gaming-77" x1="208.8" y1="156.2" x2="204.8" y2="153.1"/>
	<path class="st2_gaming-77" d="M208.8,156.9c-0.2,0-0.3-0.1-0.4-0.2l-4-3.2c-0.3-0.3-0.3-0.7-0.1-1c0.2-0.3,0.7-0.4,1-0.1l4,3.2&#10;&#9;&#9;c0.3,0.2,0.4,0.7,0.1,1C209.2,156.9,209,157,208.8,156.9L208.8,156.9z"/>
	<path class="st0_gaming-77" d="M239,291L239,291l-48.5-4.6c-0.4,0-0.6-0.3-0.6-0.7c0-0.4,0.3-0.6,0.7-0.6l48.4,4.6c0.4,0,0.6,0.3,0.6,0.7&#10;&#9;&#9;C239.6,290.8,239.3,291.1,239,291L239,291z"/>
</g>
<g id="Desk_gaming-77">
	<rect x="378.9" y="272.2" class="st0_gaming-77" width="86" height="16.5"/>
	<path class="st2_gaming-77" d="M464.9,289.4h-86c-0.4,0-0.7-0.3-0.8-0.8v-16.5c0-0.4,0.3-0.7,0.8-0.8h86c0.4,0,0.7,0.3,0.8,0.8v16.5&#10;&#9;&#9;C465.6,289.1,465.3,289.4,464.9,289.4z M379.6,287.9h84.5v-15h-84.5V287.9z"/>
	<polygon class="st0_gaming-77" points="378.9,272.2 361.3,280.4 361.3,291.6 378.9,288.7 &#9;"/>
	<path class="st2_gaming-77" d="M361.3,292.4c-0.2,0-0.4-0.1-0.5-0.2c-0.2-0.1-0.3-0.4-0.3-0.6v-11.2c0-0.3,0.2-0.6,0.4-0.7l17.6-8.2&#10;&#9;&#9;c0.2-0.1,0.5-0.1,0.7,0c0.2,0.1,0.3,0.4,0.4,0.6v16.5c0,0.4-0.3,0.7-0.6,0.7l-17.6,3L361.3,292.4z M362.1,280.9v9.8l16.1-2.7v-14.6&#10;&#9;&#9;L362.1,280.9z"/>
	<path class="st0_gaming-77" d="M378.9,288.7v95.6c0,0,84.2,0.8,84.2,0v-95.6H378.9z"/>
	<path class="st2_gaming-77" d="M438.1,385.4c-12.5,0-31.2-0.1-59.3-0.4c-0.4,0-0.7-0.3-0.7-0.8v-95.6c0-0.4,0.3-0.8,0.8-0.8h84.2&#10;&#9;&#9;c0.4,0,0.7,0.3,0.8,0.7c0,0,0,0,0,0v95.6c0,0.2-0.1,0.4-0.2,0.5C463.5,385,463,385.4,438.1,385.4z M379.6,383.5&#10;&#9;&#9;c31.2,0.3,77.2,0.6,82.7,0.1v-94.2h-82.7L379.6,383.5z"/>
	<polygon class="st0_gaming-77" points="361.3,291.6 361.3,370 378.9,384.2 378.9,288.7 &#9;"/>
	<path class="st2_gaming-77" d="M378.9,385c-0.2,0-0.3-0.1-0.5-0.2l-17.6-14.3c-0.2-0.1-0.3-0.4-0.3-0.6v-78.4c0-0.4,0.3-0.7,0.6-0.7l17.6-3&#10;&#9;&#9;c0.2,0,0.4,0,0.6,0.2c0.2,0.1,0.3,0.3,0.3,0.6v95.6c0,0.3-0.2,0.6-0.4,0.7C379.1,384.9,379,385,378.9,385z M362.1,369.6l16.1,13&#10;&#9;&#9;v-93.1l-16.1,2.7V369.6z"/>
	<polygon class="st2_gaming-77" points="375.2,294.4 364.6,296 364.6,367.4 375.2,374.7 &#9;"/>
	<path class="st2_gaming-77" d="M375.2,375.4c-0.1,0-0.3,0-0.4-0.1l-10.6-7.3c-0.2-0.1-0.3-0.4-0.3-0.6V296c0-0.4,0.3-0.7,0.6-0.7l10.6-1.6&#10;&#9;&#9;c0.4-0.1,0.8,0.2,0.8,0.6c0,0,0,0.1,0,0.1v80.3c0,0.3-0.2,0.5-0.4,0.6C375.5,375.4,375.4,375.4,375.2,375.4z M365.3,367.1l9.2,6.3&#10;&#9;&#9;v-78.1l-9.2,1.4V367.1z"/>
	<path class="st0_gaming-77" d="M375.2,333.4c-0.1,0-0.2,0-0.2,0l-10.2-3.7c-0.4-0.1-0.6-0.5-0.4-0.9s0.5-0.6,0.9-0.4l10.2,3.7&#10;&#9;&#9;c0.4,0.1,0.6,0.5,0.4,0.9C375.8,333.3,375.6,333.5,375.2,333.4L375.2,333.4z"/>
	<path class="st0_gaming-77" d="M375.2,371.9c-0.1,0-0.3,0-0.4-0.1l-8-5.1c-0.2-0.1-0.3-0.4-0.3-0.6l0.3-15.2c0-0.2,0.1-0.5,0.3-0.6&#10;&#9;&#9;c0.2-0.1,0.5-0.1,0.7,0l7.7,3.6c0.4,0.2,0.5,0.6,0.4,1c-0.2,0.4-0.6,0.5-1,0.4l0,0l-6.7-3.1l-0.3,13.6l7.7,4.9&#10;&#9;&#9;c0.3,0.2,0.4,0.7,0.2,1c0,0,0,0,0,0C375.7,371.7,375.5,371.9,375.2,371.9z"/>
	<path class="st0_gaming-77" d="M367.6,351.5c-0.3,0-0.6-0.2-0.7-0.5c-0.1-0.4,0.1-0.8,0.5-0.9l7.7-2c0.4-0.1,0.8,0.1,0.9,0.4&#10;&#9;&#9;c0.1,0.4-0.1,0.8-0.4,0.9c0,0-0.1,0-0.1,0l-7.7,2L367.6,351.5z"/>
	<path class="st0_gaming-77" d="M364.6,367.5c-0.3,0-0.6-0.2-0.7-0.5c-0.1-0.4,0.1-0.8,0.5-0.9l2.6-0.8c0.4-0.1,0.8,0.1,0.9,0.5c0,0,0,0,0,0&#10;&#9;&#9;c0.1,0.4-0.1,0.8-0.5,0.9c0,0,0,0,0,0l-2.6,0.8L364.6,367.5z"/>
</g>
<g id="Bean_Bag_gaming-77">
	<path class="st0_gaming-77" d="M209.5,373c5.8-5.4,11.7-16.5,12.2-24.6c0.5-10-8.7-20.6-15.9-26.4c-9.1-7.2-20.1-11.6-31.1-15.5&#10;&#9;&#9;s-22.1-7.8-31.8-14.2c-14.7-9.8-25.8-26.2-28.8-43.7c-2.2-12.7,4.2-32.9-14-35.9c-8.8-1.5-17.7,3.2-23.7,9.8&#10;&#9;&#9;c-7.8,8.5-11.6,19.9-14.1,31.1c-5.7,25.8-5.3,53.3,4.4,77.9s29.3,45.7,54.3,54.2c23.9,8.2,53.5,5.8,76.2-4.7&#10;&#9;&#9;C201.7,379,205.8,376.3,209.5,373z"/>
	<path class="st2_gaming-77" d="M152.2,391.3c-10.6,0.1-21.2-1.6-31.3-4.9c-24-8.2-44.5-28.6-54.8-54.7c-9.1-23.1-10.7-50.2-4.5-78.3&#10;&#9;&#9;c2.2-9.7,5.7-22.1,14.3-31.5c6.9-7.5,16.2-11.3,24.4-10c14.2,2.4,14.1,14.8,14.1,25.8c-0.1,3.6,0.1,7.2,0.5,10.7&#10;&#9;&#9;c2.9,17.1,13.5,33.3,28.4,43.2c8.9,5.9,19.2,9.7,29.2,13.3l2.4,0.9c11.3,4.1,22.1,8.4,31.3,15.6c7.8,6.2,16.7,17,16.1,27&#10;&#9;&#9;c-0.5,8.8-6.8,19.9-12.4,25.1l0,0c-3.7,3.3-7.9,6.1-12.4,8.1C183.3,388.1,167.8,391.3,152.2,391.3z M96.9,213.1&#10;&#9;&#9;c-8,0-15.3,4.8-19.9,9.8c-6.5,7.1-10.8,16.6-13.9,30.8c-6.2,27.8-4.7,54.6,4.4,77.4c10.1,25.6,30.2,45.7,53.8,53.8&#10;&#9;&#9;c22.9,7.8,52.6,6,75.6-4.6c4.4-1.9,8.4-4.6,12-7.8c5.4-5.1,11.5-16,11.9-24.1c0.5-9.4-8.1-19.8-15.6-25.7&#10;&#9;&#9;c-8.9-7.1-19.7-11.4-30.9-15.4l-2.4-0.9c-10.1-3.6-20.5-7.4-29.6-13.5c-15.2-10.1-26.1-26.7-29.1-44.2c-0.5-3.6-0.7-7.3-0.5-11&#10;&#9;&#9;c0-10.9,0.1-22.2-12.8-24.3C99,213.2,98,213.1,96.9,213.1z M209.5,373L209.5,373z"/>
</g>
<g id="Tv_gaming-77">
	<path class="st2_gaming-77" d="M432.6,203.4c0,0,24.2,9.3,22.3,19.6s-11.5,48.3-11.5,48.3h-8c0,0,12.8-42.8,12-48.3s-14.8-10.4-14.8-10.4&#10;&#9;&#9;L432.6,203.4z"/>
	<path class="st2_gaming-77" d="M443.4,272h-8c-0.2,0-0.4-0.1-0.6-0.3c-0.1-0.2-0.2-0.4-0.1-0.6c4.4-14.8,12.6-43.8,12-48s-10.5-8.5-14.3-9.8&#10;&#9;&#9;c-0.3-0.1-0.5-0.4-0.5-0.7v-9.2c0-0.2,0.1-0.5,0.3-0.6c0.2-0.1,0.4-0.2,0.7-0.1c1,0.4,24.7,9.7,22.7,20.4&#10;&#9;&#9;c-1.9,10.1-11.5,48-11.6,48.3C444,271.8,443.7,272,443.4,272z M436.4,270.5h6.4c1.2-4.7,9.6-38.3,11.4-47.7&#10;&#9;&#9;c1.6-8.4-16.4-16.5-20.8-18.4v7.5c2.8,1,14,5.5,14.8,10.8C448.8,228,438.3,264,436.4,270.5L436.4,270.5z"/>
	<polygon class="st0_gaming-77" points="429.9,117.7 393.7,143.4 393.7,250 429.9,250 &#9;"/>
	<path class="st2_gaming-77" d="M429.9,117.7V250h-36.2V143.4L429.9,117.7 M429.9,116.2c-0.3,0-0.6,0.1-0.9,0.3l-36.2,25.6&#10;&#9;&#9;c-0.4,0.3-0.6,0.7-0.6,1.2V250c0,0.8,0.7,1.5,1.5,1.5h36.2c0.8,0,1.5-0.7,1.5-1.5V117.7c0-0.6-0.3-1.1-0.8-1.3&#10;&#9;&#9;C430.4,116.3,430.2,116.2,429.9,116.2z"/>
	<rect x="429.9" y="117.7" class="st2_gaming-77" width="5.5" height="132.2"/>
	<path class="st2_gaming-77" d="M435.4,117.7V250h-5.5V117.7H435.4 M435.4,116.3h-5.5c-0.8,0-1.4,0.6-1.5,1.4c0,0,0,0,0,0V250&#10;&#9;&#9;c0,0.8,0.6,1.4,1.5,1.4l0,0h5.5c0.8,0,1.5-0.6,1.5-1.4c0,0,0,0,0,0V117.7C436.9,116.9,436.2,116.3,435.4,116.3&#10;&#9;&#9;C435.4,116.3,435.4,116.3,435.4,116.3z"/>
	<path class="st2_gaming-77" d="M414.6,268.6H450c0.9,0,1.6,0.7,1.6,1.6v0.5c0,0.9-0.7,1.6-1.6,1.6h-35.4c-0.9,0-1.6-0.7-1.6-1.6v-0.5&#10;&#9;&#9;C413,269.3,413.7,268.6,414.6,268.6z"/>
	<path class="st2_gaming-77" d="M450,272.9h-35.4c-1.3,0-2.3-1-2.3-2.3c0,0,0,0,0,0v-0.4c0-1.3,1-2.3,2.3-2.3c0,0,0,0,0,0H450&#10;&#9;&#9;c1.3,0,2.3,1,2.3,2.3v0.4C452.3,271.9,451.3,272.9,450,272.9z M414.6,269.4c-0.5,0-0.8,0.4-0.8,0.8v0.4c0,0.5,0.4,0.8,0.8,0.8H450&#10;&#9;&#9;c0.5,0,0.8-0.4,0.8-0.8v-0.4c0-0.5-0.4-0.8-0.8-0.8H414.6z"/>
	<path class="st1_gaming-77" d="M395,230.9c-0.4,0-0.7-0.4-0.7-0.8c0-0.3,0.2-0.6,0.6-0.7l32.7-6.2c0.4-0.1,0.8,0.2,0.8,0.6&#10;&#9;&#9;c0.1,0.4-0.2,0.8-0.6,0.8l0,0l-32.7,6.3L395,230.9z"/>
	<path class="st1_gaming-77" d="M410.6,227.2c-0.4,0-0.7-0.3-0.7-0.6c-1.1-8.9-5.5-25.5-15.3-31.1c-0.3-0.2-0.5-0.7-0.3-1&#10;&#9;&#9;c0.2-0.3,0.7-0.5,1-0.3c0,0,0,0,0,0c10.2,5.9,14.9,23,16,32.2C411.4,226.8,411.1,227.1,410.6,227.2L410.6,227.2z"/>
	<path class="st1_gaming-77" d="M418.4,200.2h-0.1c-0.4-0.1-0.6-0.5-0.6-0.9c3-14.1,9.5-16.7,9.8-16.8c0.4-0.1,0.8,0.1,0.9,0.4&#10;&#9;&#9;c0.1,0.4-0.1,0.8-0.4,0.9c0,0-6,2.4-8.8,15.7C419,199.9,418.7,200.2,418.4,200.2z"/>
	<path class="st1_gaming-77" d="M415.5,226.8c-0.4,0-0.7-0.3-0.7-0.7c0-5.2,0.3-10.4,1-15.6c0.1-0.4,0.4-0.7,0.8-0.6c0.4,0,0.7,0.4,0.6,0.8&#10;&#9;&#9;c0,0,0,0,0,0c-0.6,5.1-1,10.3-1,15.4C416.2,226.5,415.9,226.8,415.5,226.8C415.5,226.8,415.5,226.8,415.5,226.8z"/>
	<path class="st1_gaming-77" d="M397.6,153.1c-0.1,0-0.2,0-0.3-0.1c-0.2-0.1-0.4-0.4-0.4-0.6v-4.5c0-0.2,0.1-0.4,0.3-0.6l15.2-10.9&#10;&#9;&#9;c0.2-0.2,0.5-0.2,0.8-0.1c0.2,0.1,0.4,0.4,0.4,0.6v4.7c0,0.2-0.1,0.5-0.3,0.6L398,153C397.9,153.1,397.7,153.1,397.6,153.1z&#10;&#9;&#9; M398.3,148.3v2.7l13.8-9.7v-2.9L398.3,148.3z"/>
	<path class="st1_gaming-77" d="M405.8,147.4c-0.4,0-0.7-0.3-0.7-0.7l0,0v-4.5c0-0.4,0.3-0.7,0.7-0.7l0,0c0.4,0,0.7,0.3,0.7,0.7v4.5&#10;&#9;&#9;C406.5,147,406.2,147.4,405.8,147.4z"/>
	<path class="st1_gaming-77" d="M423,135.9c-1.4,0-2.5-1.6-2.5-3.5s1.1-3.5,2.5-3.5s2.4,1.6,2.4,3.5S424.4,135.9,423,135.9z M423,130.3&#10;&#9;&#9;c-0.4,0-1,0.8-1,2.1s0.6,2.1,1,2.1s1-0.8,1-2.1S423.4,130.3,423,130.3L423,130.3z"/>
	<path class="st1_gaming-77" d="M407.5,191.6c-0.1,0-0.3,0-0.4-0.1c-0.2-0.1-0.3-0.4-0.3-0.6v-10.1c0-0.3,0.1-0.5,0.4-0.6&#10;&#9;&#9;c2.2-1.2,9.6-5,10.5-5.2c0.2,0,0.4,0,0.6,0.1c0.2,0.1,0.3,0.4,0.3,0.6v10.3c0,0.3-0.2,0.5-0.4,0.6l-10.3,4.9&#10;&#9;&#9;C407.7,191.5,407.6,191.6,407.5,191.6z M408.2,181.2v8.5l8.8-4.2v-8.7C415.2,177.6,411.1,179.7,408.2,181.2z"/>
	<path class="st1_gaming-77" d="M402.4,172.1c-0.1,0-0.3,0-0.4-0.1c-0.2-0.1-0.3-0.4-0.3-0.6v-10.1c0-0.3,0.2-0.5,0.4-0.6&#10;&#9;&#9;c2.2-1.2,9.6-5,10.5-5.2c0.2-0.1,0.5,0,0.6,0.1c0.2,0.1,0.3,0.3,0.3,0.6v10.3c0,0.3-0.2,0.5-0.4,0.6l-10.3,5&#10;&#9;&#9;C402.6,172,402.5,172.1,402.4,172.1z M403.1,161.7v8.5l8.8-4.2v-8.7C410.1,158.1,406,160.2,403.1,161.7L403.1,161.7z"/>
	<path class="st1_gaming-77" d="M398.5,230.1c-0.1,0-0.3,0-0.4-0.1c-0.2-0.1-0.3-0.3-0.3-0.5c-0.2-1.3-0.3-2.7-0.2-4.1&#10;&#9;&#9;c-0.1-0.9,0.2-1.8,0.6-2.5c0.3-0.4,0.7-0.7,1.2-0.9c-0.2-0.3-0.4-0.6-0.4-1c-0.1-0.8,0.1-1.6,0.6-2.2c0.2-0.3,0.6-0.6,0.9-0.8l0,0&#10;&#9;&#9;c0.9-0.4,1.9-0.3,2.7,0.2c1.1,0.7,1.4,2.1,0.8,3.2c0.2,0.1,0.4,0.2,0.5,0.3c0.4,0.3,0.8,0.8,1,1.2c0.2,0.7,0.4,1.5,0.5,2.2&#10;&#9;&#9;c0.1,0.4,0.1,0.7,0.2,0.8s0.1,0.9,0.2,2c0,0.4-0.2,0.7-0.6,0.8C400.5,229.8,399,230.1,398.5,230.1z M401.6,219.1&#10;&#9;&#9;c-0.2,0-0.4,0-0.6,0.1l0,0c-0.2,0.1-0.3,0.2-0.4,0.4c-0.3,0.3-0.4,0.7-0.3,1.1c0,0.3,0.2,0.6,0.5,0.6c0.4,0.1,0.6,0.5,0.5,0.9&#10;&#9;&#9;c0,0.2-0.2,0.3-0.3,0.4c-0.3,0.2-0.6,0.3-0.9,0.4c-0.3,0.1-0.7,0.3-0.9,0.6c-0.3,0.5-0.4,1.1-0.4,1.8c0,0.9,0,2.1,0.1,3.1&#10;&#9;&#9;c1.2-0.2,3.8-0.7,5.7-1.1c0-0.6-0.1-1.1-0.1-1.2s-0.1-0.5-0.2-0.9c-0.1-0.6-0.2-1.3-0.4-1.9c-0.1-0.3-0.3-0.5-0.5-0.7&#10;&#9;&#9;c-0.3-0.2-0.7-0.3-1.1-0.3c-0.4,0-0.7-0.4-0.7-0.8c0-0.2,0.2-0.5,0.4-0.6c0.3-0.2,0.5-0.5,0.6-0.9c0-0.4-0.1-0.7-0.5-0.9&#10;&#9;&#9;C402.1,219.2,401.9,219.2,401.6,219.1L401.6,219.1z M400.7,218.6L400.7,218.6z"/>
	<path class="st1_gaming-77" d="M427.7,217.5c-0.3,0-0.6-0.2-0.7-0.5c0-0.1-3-7.4-7.2-6.8c-1.7,0.3-3.3,0.9-4.7,2c-1.2,0.8-2.3,1.6-3.7,0.6&#10;&#9;&#9;c-0.5-0.3-0.8-0.8-0.8-1.4c0-0.4,0.1-0.8,0.2-1.2c-0.2,0-0.3,0-0.5-0.1c-0.5-0.2-0.8-0.6-0.9-1.1c-0.4-1.6,1-4.3,3.6-7.2&#10;&#9;&#9;c3.7-4.1,14.1-5.8,14.5-5.9c0.4,0,0.8,0.3,0.8,0.7c0,0.4-0.2,0.7-0.6,0.8c-0.1,0-10.3,1.6-13.7,5.4c-3.2,3.6-3.4,5.7-3.2,6&#10;&#9;&#9;c0.6-0.3,1.1-0.7,1.6-1.1c0.5-0.5,0.9-1,1.4-1.5c0.3-0.2,0.8-0.1,1,0.2c0.2,0.2,0.2,0.6,0,0.8c-0.4,0.5-0.9,1-1.4,1.5&#10;&#9;&#9;c-0.7,0.7-1.3,1.6-1.5,2.6c0,0.1,0.1,0.2,0.2,0.3c0.5,0.4,0.8,0.2,2-0.6c1.6-1.2,3.4-2,5.3-2.3c5.4-0.8,8.6,7.4,8.8,7.7&#10;&#9;&#9;c0.1,0.4,0,0.8-0.4,0.9C427.8,217.4,427.7,217.5,427.7,217.5z"/>
	<path class="st1_gaming-77" d="M415.5,204.9c-0.2,0-0.4-0.1-0.5-0.2c-0.2-0.3-0.2-0.7,0.1-1l1-0.8c0.3-0.2,0.8-0.2,1,0.2&#10;&#9;&#9;c0.2,0.3,0.2,0.7-0.1,0.9l-1,0.8C415.8,204.9,415.6,204.9,415.5,204.9z"/>
	<path class="st1_gaming-77" d="M405.6,223.7c-0.4,0-0.7-0.3-0.7-0.7c0-0.1,0-0.3,1.3-5.2c0.1-0.4,0.6-0.6,0.9-0.4c0.3,0.1,0.5,0.5,0.5,0.8&#10;&#9;&#9;c-0.6,2.1-1.2,4.5-1.3,4.8C406.4,223.4,406.1,223.7,405.6,223.7C405.7,223.7,405.7,223.7,405.6,223.7L405.6,223.7z"/>
</g>
<path id="cable_gaming-77" class="st2_gaming-77" d="M336,399.4c-6.4,0-10.6-4-11.4-8.1c-0.1-0.5-0.2-1.1-0.2-1.6c-2.3-0.9-4.4-2-6.5-3.4&#10;&#9;c-7.6-5-13.8-13-18.9-24.5c-12.5-28.2-12.5-59.2-12.5-89.2v-0.9c0-20.3-2.4-47.4-23.8-48.4c-0.4,0-0.7-0.4-0.7-0.8&#10;&#9;c0-0.4,0.3-0.7,0.7-0.7c0,0,0,0,0,0c22.6,1.1,25.2,29,25.2,49.9v0.8c0,29.9,0,60.7,12.4,88.6c5,11.3,11,19.1,18.4,23.9&#10;&#9;c1.8,1.2,3.8,2.2,5.8,3.1c0.5-2.9,2.8-5.4,6.5-7c3.4-1.5,7.6-1.7,12.7-0.6c1.5,0.2,2.9,0.8,4,1.9c0.8,0.9,1.2,2.1,1.1,3.3&#10;&#9;c-0.1,1.6-0.8,3.1-2,4.2c-2.1,1.9-5.2,2.2-7.2,2.3c-4.6,0.2-9.3-0.5-13.6-2c0,0.3,0.1,0.5,0.1,0.8c0.8,3.4,4.6,7,10.3,6.9&#10;&#9;c19.3-0.4,34.2-19.6,36.9-37.2c0.1-0.4,0.4-0.7,0.8-0.6c0.4,0.1,0.7,0.4,0.6,0.8l0,0c-2.9,18.2-18.3,38.1-38.3,38.5L336,399.4z&#10;&#9; M325.9,388.7c4.3,1.6,8.9,2.3,13.5,2.1c1.9-0.1,4.6-0.4,6.4-1.9c0.9-0.8,1.5-2,1.6-3.2c0.1-0.8-0.2-1.6-0.7-2.2&#10;&#9;c-0.9-0.8-2-1.3-3.2-1.4c-4.8-1-8.7-0.8-11.8,0.5C328.2,384,326.2,386.2,325.9,388.7L325.9,388.7z"/>
</svg>