<svg version="1.1" id="Layer_1" xmlns="http://www.w3.org/2000/svg" xmlns:xlink="http://www.w3.org/1999/xlink" x="0px" y="0px" viewBox="0 0 500 500" style="width: 188px;" xml:space="preserve" data-imageid="shopping-cart-77" imageName="Shopping Cart" class="illustrations_image">
<style type="text/css">
	.st0_shopping-cart-77{fill:#D1D3D4;}
	.st1_shopping-cart-77{fill:#231F20;}
	.st2_shopping-cart-77{fill:#68E1FD;}
	.st3_shopping-cart-77{fill:#FFFFFF;}
</style>
<g id="Floor_shopping-cart-77">
	<path class="st0_shopping-cart-77" d="M435.9,363H64.1c-0.4,0-0.7-0.3-0.7-0.7c0-0.4,0.3-0.7,0.7-0.7h371.7c0.4,0,0.7,0.3,0.7,0.7&#10;&#9;&#9;S436.3,363,435.9,363C435.9,363,435.9,363,435.9,363z"/>
</g>
<g id="cart_shopping-cart-77">
	
		<rect x="360.1" y="253.7" transform="matrix(1 -6.108614e-03 6.108614e-03 1 -1.7666 2.348)" class="st0_shopping-cart-77" width="46.8" height="73.3"/>
	<path class="st1_shopping-cart-77" d="M360.4,327.8c-0.2,0-0.3-0.1-0.5-0.2c-0.1-0.1-0.2-0.3-0.2-0.5l-0.5-73.4c0-0.4,0.3-0.6,0.6-0.6c0,0,0,0,0,0&#10;&#9;&#9;l46.8-0.3c0.2,0,0.3,0.1,0.5,0.2c0.1,0.1,0.2,0.3,0.2,0.4l0.5,73.4c0,0.4-0.3,0.6-0.6,0.6c0,0,0,0,0,0L360.4,327.8z M360.5,254.4&#10;&#9;&#9;l0.4,72.1l45.5-0.3l-0.5-72.1L360.5,254.4z"/>
	
		<rect x="288" y="273" transform="matrix(0.9893 -0.1456 0.1456 0.9893 -40.4476 49.9478)" class="st2_shopping-cart-77 targetColor" width="66.1" height="56.7" style="fill: rgb(16, 16, 16);"/>
	<path class="st1_shopping-cart-77" d="M292.5,334.9c-0.3,0-0.6-0.2-0.6-0.5l-8.3-56.1c0-0.2,0-0.3,0.1-0.5c0.1-0.1,0.3-0.2,0.4-0.2l65.4-9.6&#10;&#9;&#9;c0.3,0,0.7,0.2,0.7,0.5l8.3,56.1c0.1,0.3-0.2,0.7-0.5,0.7c0,0,0,0,0,0L292.5,334.9L292.5,334.9z M285,278.6l8.1,54.9l64.1-9.4&#10;&#9;&#9;l-8.1-54.9L285,278.6z"/>
	
		<rect x="281.5" y="236.5" transform="matrix(0.9787 -0.2054 0.2054 0.9787 -45.6318 68.5508)" class="st0_shopping-cart-77" width="51.8" height="35.2"/>
	<path class="st1_shopping-cart-77" d="M285.7,277.3c-0.3,0-0.6-0.2-0.6-0.5l-7.2-34.4c0-0.2,0-0.3,0.1-0.5c0.1-0.1,0.2-0.2,0.4-0.3L329,231&#10;&#9;&#9;c0.2,0,0.3,0,0.5,0.1c0.1,0.1,0.2,0.2,0.3,0.4l7.2,34.4c0.1,0.3-0.1,0.7-0.5,0.8c0,0,0,0,0,0L285.7,277.3L285.7,277.3z&#10;&#9;&#9; M279.2,242.7l7,33.2l49.5-10.4l-7-33.2L279.2,242.7z"/>
	
		<rect x="337.9" y="221.1" transform="matrix(0.9887 -0.1497 0.1497 0.9887 -31.174 56.1332)" class="st1_shopping-cart-77" width="38.6" height="28.1"/>
	<path class="st1_shopping-cart-77" d="M340.3,252.6c-0.3,0-0.6-0.2-0.6-0.6l-4.2-27.8c-0.1-0.3,0.2-0.7,0.5-0.7c0,0,0,0,0,0l38.2-5.8&#10;&#9;&#9;c0.3,0,0.7,0.2,0.7,0.5l4.2,27.8c0,0.2,0,0.3-0.1,0.5c-0.1,0.1-0.3,0.2-0.4,0.3L340.3,252.6L340.3,252.6z M336.8,224.6l4,26.6&#10;&#9;&#9;l36.9-5.6l-4-26.6L336.8,224.6z"/>
	
		<rect x="301.1" y="209.8" transform="matrix(0.8955 -0.4451 0.4451 0.8955 -63.8413 165.5556)" class="st2_shopping-cart-77 targetColor" width="38.9" height="17.9" style="fill: rgb(16, 16, 16);"/>
	<path class="st1_shopping-cart-77" d="M307.1,236.1c-0.2,0-0.5-0.1-0.6-0.4l-8-16c-0.1-0.2-0.1-0.3,0-0.5c0.1-0.2,0.2-0.3,0.3-0.4l34.9-17.3&#10;&#9;&#9;c0.2-0.1,0.3-0.1,0.5,0c0.2,0.1,0.3,0.2,0.4,0.3l8,16.1c0.1,0.2,0.1,0.3,0,0.5c-0.1,0.2-0.2,0.3-0.3,0.4L307.4,236&#10;&#9;&#9;C307.3,236,307.2,236.1,307.1,236.1z M300,219.7l7.4,14.9l33.7-16.8l-7.4-14.9L300,219.7z"/>
	
		<rect x="385" y="225.7" transform="matrix(0.9375 -0.3479 0.3479 0.9375 -57.7044 152.0896)" class="st3_shopping-cart-77" width="19.2" height="22"/>
	<path class="st1_shopping-cart-77" d="M389.5,251c-0.1,0-0.2,0-0.3-0.1c-0.2-0.1-0.3-0.2-0.3-0.4l-7.6-20.6c-0.1-0.3,0-0.7,0.4-0.8l18-6.7&#10;&#9;&#9;c0.3-0.1,0.7,0,0.8,0.4c0,0,0,0,0,0l7.6,20.6c0.1,0.2,0.1,0.3,0,0.5c-0.1,0.2-0.2,0.3-0.4,0.3l-18,6.7&#10;&#9;&#9;C389.6,251,389.5,251,389.5,251z M382.6,230.1l7.2,19.4l16.8-6.2l-7.2-19.4L382.6,230.1z"/>
	
		<rect x="331.3" y="247.9" transform="matrix(0.9917 -0.1284 0.1284 0.9917 -30.3416 46.0294)" class="st0_shopping-cart-77" width="20.7" height="20.7"/>
	<path class="st1_shopping-cart-77" d="M332.7,270.5c-0.3,0-0.6-0.2-0.6-0.6l-2.7-20.6c0-0.2,0-0.3,0.1-0.5c0.1-0.1,0.3-0.2,0.4-0.2l20.5-2.7&#10;&#9;&#9;c0.4,0,0.7,0.2,0.7,0.6l2.7,20.5c0,0.4-0.2,0.7-0.6,0.7L332.7,270.5L332.7,270.5z M330.8,249.9l2.5,19.3l19.3-2.5l-2.5-19.3&#10;&#9;&#9;L330.8,249.9z"/>
	<circle class="st1_shopping-cart-77" cx="295.3" cy="397.5" r="10.7"/>
	<path class="st1_shopping-cart-77" d="M295.3,408.9c-6.3,0-11.4-5.1-11.4-11.4s5.1-11.4,11.4-11.4s11.4,5.1,11.4,11.4c0,0,0,0,0,0&#10;&#9;&#9;C306.6,403.8,301.5,408.9,295.3,408.9z M295.3,387.5c-5.5,0-10,4.5-10,10s4.5,10,10,10s10-4.5,10-10S300.8,387.5,295.3,387.5z"/>
	<path class="st0_shopping-cart-77" d="M292.9,381.8v13.8c0,3.6,4.1,3.8,5.9,0s5.9-14.3,5.9-14.3L292.9,381.8z"/>
	<path class="st1_shopping-cart-77" d="M295.2,399c-0.2,0-0.5,0-0.7-0.1c-1.5-0.4-2.4-1.8-2.3-3.3v-13.8c0-0.3,0.3-0.6,0.6-0.6l11.8-0.5&#10;&#9;&#9;c0.2,0,0.4,0.1,0.5,0.3c0.1,0.2,0.2,0.4,0.1,0.6c-0.2,0.4-4,10.6-5.9,14.3C298.7,397.6,297.1,398.8,295.2,399z M293.5,382.4v13.2&#10;&#9;&#9;c0,1.1,0.5,1.9,1.3,2.1c1,0.2,2.5-0.4,3.5-2.3c1.5-3.1,4.5-10.7,5.5-13.3L293.5,382.4z"/>
	<circle class="st1_shopping-cart-77" cx="385" cy="397.5" r="10.7"/>
	<path class="st1_shopping-cart-77" d="M385,408.9c-6.3,0-11.4-5.1-11.4-11.4s5.1-11.4,11.4-11.4s11.4,5.1,11.4,11.4c0,0,0,0,0,0&#10;&#9;&#9;C396.4,403.8,391.3,408.9,385,408.9z M385,387.5c-5.5,0-10,4.5-10,10s4.5,10,10,10s10-4.5,10-10S390.5,387.5,385,387.5z"/>
	<path class="st0_shopping-cart-77" d="M382.6,381.8v13.8c0,3.6,4.1,3.8,6,0s5.8-14.3,5.8-14.3L382.6,381.8z"/>
	<path class="st1_shopping-cart-77" d="M384.9,399c-0.2,0-0.5,0-0.7-0.1c-1.5-0.4-2.4-1.8-2.3-3.3v-13.8c0-0.3,0.3-0.6,0.6-0.6l11.8-0.5&#10;&#9;&#9;c0.2,0,0.4,0.1,0.5,0.3c0.1,0.2,0.2,0.4,0.1,0.6c-0.2,0.4-4,10.6-5.9,14.3C388.5,397.7,386.8,398.9,384.9,399z M383.3,382.4v13.2&#10;&#9;&#9;c0,1.1,0.5,1.9,1.3,2.1c1,0.2,2.5-0.4,3.4-2.3c1.5-3.1,4.5-10.7,5.5-13.3L383.3,382.4z"/>
	<path class="st1_shopping-cart-77" d="M420.6,268.8L420.6,268.8l-165.4-8.7c-0.4,0-0.7-0.4-0.7-0.7c0-0.4,0.4-0.7,0.7-0.7l165.4,8.7&#10;&#9;&#9;c0.4,0,0.7,0.3,0.7,0.7C421.4,268.5,421.1,268.8,420.6,268.8L420.6,268.8z"/>
	<path class="st1_shopping-cart-77" d="M266.6,289.2c-0.4,0-0.7-0.3-0.7-0.7c0-0.4,0.3-0.7,0.7-0.7l152.7-1.5l0,0c0.4,0,0.7,0.3,0.7,0.7&#10;&#9;&#9;s-0.3,0.7-0.7,0.7c0,0,0,0,0,0L266.6,289.2L266.6,289.2z"/>
	<path class="st1_shopping-cart-77" d="M282.1,322c-0.4,0-0.7-0.3-0.7-0.7c0-0.4,0.3-0.7,0.7-0.7l0,0l134.5-9.7c0.4,0,0.7,0.3,0.8,0.6&#10;&#9;&#9;c0,0.4-0.3,0.7-0.6,0.8L282.1,322L282.1,322z"/>
	<path class="st1_shopping-cart-77" d="M293.4,343.6c-4.6,0-8.7-2.9-10.4-7.1c-20.6-53.1-34.5-87.8-36.5-91c-1.6-1.2-11.5-3.7-19.8-5.4&#10;&#9;&#9;c-1.1-0.3-1.8-1.4-1.6-2.5c0.2-1.1,1.3-1.8,2.4-1.6c5.8,1.1,19.6,4.1,22.1,6.6c0.6,0.6,2.4,2.4,37.4,92.4c1.1,2.9,4,4.7,7.1,4.4&#10;&#9;&#9;l112-9.5c3.1-0.3,5.6-2.7,6-5.8l6.6-56.1c0.1-1.2,1.1-2,2.3-1.9c1.2,0.1,2,1.1,1.9,2.3c0,0,0,0.1,0,0.1l-6.6,56.2&#10;&#9;&#9;c-0.6,5.1-4.7,9.1-9.8,9.5l-112,9.5C294,343.6,293.7,343.6,293.4,343.6z M246.5,245.5L246.5,245.5z"/>
	<path class="st3_shopping-cart-77" d="M231.2,233.9l-2.7,9.5l-21.9-5.9c-2.1-0.6-3.4-2.7-2.9-4.9c0,0,0-0.1,0-0.1l0,0c0.6-2,2.6-3.3,4.6-2.9&#10;&#9;&#9;L231.2,233.9z"/>
	<path class="st1_shopping-cart-77" d="M228.5,244.1h-0.2l-21.9-5.9c-2.5-0.7-4-3.3-3.3-5.8c0.7-2.4,3-3.9,5.5-3.4l22.7,4.3c0.2,0,0.4,0.1,0.5,0.3&#10;&#9;&#9;c0.1,0.2,0.1,0.4,0.1,0.6l-2.7,9.5C229.1,243.9,228.8,244.1,228.5,244.1z M207.7,230.2c-1.9,0-3.3,1.5-3.3,3.4c0,1.5,1,2.8,2.5,3.2&#10;&#9;&#9;l21.1,5.7l2.3-8.1l-21.9-4.2C208.1,230.2,207.9,230.2,207.7,230.2z"/>
	<path class="st1_shopping-cart-77" d="M304.3,340.1c-0.3,0-0.6-0.2-0.7-0.5l-25.5-78.7c-0.1-0.4,0-0.8,0.4-0.9c0.4-0.1,0.8,0,0.9,0.4c0,0,0,0,0,0.1&#10;&#9;&#9;l25.5,78.7c0.1,0.4-0.1,0.8-0.5,0.9C304.5,340.1,304.4,340.1,304.3,340.1z"/>
	<path class="st1_shopping-cart-77" d="M315.6,339.5c-0.3,0-0.5-0.2-0.6-0.5l-21.6-77.3c-0.1-0.4,0.1-0.8,0.5-0.9c0.4-0.1,0.8,0.1,0.9,0.5l21.6,77.3&#10;&#9;&#9;c0.1,0.4-0.1,0.8-0.5,0.9C315.8,339.5,315.7,339.5,315.6,339.5z"/>
	<path class="st1_shopping-cart-77" d="M326.5,338.5c-0.3,0-0.6-0.2-0.7-0.5l-18.7-75.7c-0.1-0.4,0.1-0.8,0.5-0.8c0.4-0.1,0.8,0.1,0.8,0.5l18.7,75.7&#10;&#9;&#9;c0.1,0.4-0.1,0.8-0.5,0.8c0,0,0,0,0,0L326.5,338.5z"/>
	<path class="st1_shopping-cart-77" d="M336.7,337.5c-0.3,0-0.6-0.2-0.7-0.6l-14.3-73.9c-0.1-0.4,0.2-0.7,0.6-0.8c0,0,0,0,0,0&#10;&#9;&#9;c0.4-0.1,0.7,0.2,0.8,0.5c0,0,0,0,0,0l14.3,73.9c0.1,0.4-0.2,0.7-0.6,0.8L336.7,337.5z"/>
	<path class="st1_shopping-cart-77" d="M347.7,336.3c-0.3,0-0.6-0.2-0.7-0.6L334.8,264c-0.1-0.4,0.2-0.7,0.6-0.8s0.7,0.2,0.8,0.6l12.3,71.8&#10;&#9;&#9;c0.1,0.4-0.2,0.7-0.6,0.8c0,0,0,0,0,0L347.7,336.3z"/>
	<path class="st1_shopping-cart-77" d="M358.8,335c-0.4,0-0.6-0.3-0.7-0.6l-9.5-69.9c-0.1-0.4,0.2-0.7,0.6-0.8s0.7,0.2,0.8,0.6l9.5,69.9&#10;&#9;&#9;C359.6,334.6,359.3,334.9,358.8,335L358.8,335z"/>
	<path class="st1_shopping-cart-77" d="M369.5,333.6c-0.4,0-0.7-0.3-0.7-0.6l-6.1-67.8c0-0.4,0.3-0.7,0.6-0.8c0.4,0,0.7,0.2,0.8,0.6c0,0,0,0,0,0&#10;&#9;&#9;l6.1,67.8C370.3,333.2,370,333.6,369.5,333.6C369.6,333.6,369.6,333.6,369.5,333.6L369.5,333.6z"/>
	<path class="st1_shopping-cart-77" d="M381,332.1c-0.4,0-0.7-0.3-0.7-0.7l-4.3-65.5c0-0.4,0.3-0.7,0.6-0.7c0,0,0,0,0,0c0.4,0,0.7,0.3,0.7,0.6&#10;&#9;&#9;l4.3,65.5C381.7,331.7,381.4,332,381,332.1L381,332.1z"/>
	<path class="st1_shopping-cart-77" d="M391.9,333.6c-0.4,0-0.7-0.3-0.7-0.7l-1.6-66.4c0-0.4,0.3-0.7,0.7-0.7c0,0,0,0,0,0c0.4,0,0.7,0.3,0.7,0.7&#10;&#9;&#9;l1.6,66.4C392.6,333.3,392.3,333.6,391.9,333.6C391.9,333.6,391.9,333.6,391.9,333.6L391.9,333.6z"/>
	<path class="st1_shopping-cart-77" d="M403.9,331.7c-0.4,0-0.7-0.3-0.7-0.7v0v-63.7c0-0.4,0.3-0.7,0.7-0.7c0.4,0,0.7,0.3,0.7,0.7V331&#10;&#9;&#9;C404.6,331.4,404.3,331.7,403.9,331.7z"/>
	<path class="st1_shopping-cart-77" d="M398.5,384.5H283.7c-3.2,0-5.8-2.6-5.8-5.8c0-0.9,0.2-1.8,0.6-2.6l17.3-34.9c0.5-1.1,1.7-1.6,2.8-1.1&#10;&#9;&#9;s1.6,1.7,1.1,2.8c0,0.1-0.1,0.1-0.1,0.2L282.3,378c-0.4,0.8-0.1,1.7,0.7,2.1c0.2,0.1,0.4,0.2,0.7,0.2h114.8c1.2,0,2.1,0.9,2.1,2.1&#10;&#9;&#9;S399.6,384.5,398.5,384.5z"/>
</g>
<g id="Character_shopping-cart-77">
	<path class="st3_shopping-cart-77" d="M153.1,386.5l-1.4,11.6c0,0,10.9,0.5,11,0s3.7-15,3.7-15L153.1,386.5z"/>
	<path class="st1_shopping-cart-77" d="M159.5,399c-1.7,0-4.2-0.1-7.9-0.2c-0.2,0-0.4-0.1-0.5-0.2c-0.1-0.1-0.2-0.3-0.2-0.5l1.4-11.6&#10;&#9;&#9;c0-0.3,0.2-0.5,0.5-0.6l13.4-3.4c0.2-0.1,0.5,0,0.7,0.2c0.2,0.2,0.2,0.4,0.2,0.7c-0.4,1.5-3.6,14.5-3.8,15.1&#10;&#9;&#9;C163.3,398.7,163.2,399,159.5,399z M152.5,397.4c4.1,0.2,8.5,0.3,9.7,0.1c0.4-1.6,2.1-8.4,3.4-13.5l-11.8,3L152.5,397.4z"/>
	<path class="st3_shopping-cart-77" d="M94.4,368.9l-6.2,9.9c0,0,9.6,5.1,10,4.7s9.7-12,9.7-12L94.4,368.9z"/>
	<path class="st1_shopping-cart-77" d="M98.2,384.2c-0.8,0-2.9-0.9-10.3-4.8c-0.3-0.2-0.5-0.6-0.3-0.9c0,0,0,0,0-0.1l6.2-9.9c0.2-0.2,0.4-0.4,0.7-0.3&#10;&#9;&#9;l13.6,2.5c0.2,0,0.4,0.2,0.5,0.4c0.1,0.2,0,0.5-0.1,0.7c-1,1.2-9.4,11.6-9.8,12C98.6,384.1,98.4,384.2,98.2,384.2z M89.2,378.5&#10;&#9;&#9;c2.8,1.6,5.7,3,8.7,4.2c1-1.2,5.4-6.7,8.8-10.8l-11.9-2.2L89.2,378.5z"/>
	<path class="st1_shopping-cart-77" d="M123.6,239.7c2.7,1.6,26.3,56.6,29.5,61.7s-2.9,87.6-2.9,87.6h17.3c0,0,19.2-66.2,19.2-83.2&#10;&#9;&#9;s-22.4-72.4-22.4-72.4l-40.6,1.5"/>
	<path class="st1_shopping-cart-77" d="M167.4,389.7h-17.3c-0.2,0-0.4-0.1-0.5-0.2c-0.1-0.1-0.2-0.3-0.2-0.5c2.4-33.1,5.2-83.6,3-87.2&#10;&#9;&#9;c-1.3-2-5.7-11.9-10.9-23.2c-7.1-15.6-16.8-37-18.4-38.3c-0.3-0.2-0.4-0.6-0.2-0.9c0,0,0,0,0,0c0.2-0.3,0.6-0.4,1-0.2c0,0,0,0,0,0&#10;&#9;&#9;c1.5,0.9,7.1,12.8,18.9,38.9c5.1,11.3,9.6,21.1,10.8,23.1c3.1,5-1.9,75.9-2.8,87.2h16c1.8-6.2,19.1-66.6,19.1-82.5&#10;&#9;&#9;s-20.1-66.4-22.2-71.7l-40.1,1.4c-0.4,0-0.7-0.2-0.8-0.6s0.2-0.7,0.6-0.8c0.1,0,0.1,0,0.2,0l40.6-1.4c0.3,0,0.6,0.2,0.7,0.4&#10;&#9;&#9;c0.9,2.3,22.5,55.8,22.5,72.7s-18.5,80.6-19.3,83.4C168,389.5,167.7,389.7,167.4,389.7z"/>
	<path class="st1_shopping-cart-77" d="M117.3,244.1l2.4,57.9l-30.4,67.6l15.2,9.2c0.8,2,39.7-54.1,44.1-71.1c3-11.8,0.4-68,0.4-68L117.3,244.1z"/>
	<path class="st1_shopping-cart-77" d="M104.6,379.6c-0.2,0-0.3-0.1-0.4-0.2l0,0L89,370.2c-0.3-0.2-0.4-0.6-0.3-0.9l30.3-67.5l-2.4-57.7&#10;&#9;&#9;c0-0.4,0.2-0.7,0.6-0.7l31.7-4.4c0.4-0.1,0.7,0.2,0.8,0.6c0,0,0,0,0,0.1c0.1,2.3,2.6,56.5-0.4,68.2&#10;&#9;&#9;C145.1,324.2,107.6,379.4,104.6,379.6L104.6,379.6z M90.2,369.4l14.3,8.7c4.2-3.6,39.2-54.3,43.3-70.6c2.8-10.8,0.7-60.3,0.4-67&#10;&#9;&#9;l-30.3,4.2l2.4,57.2c0,0.1,0,0.2-0.1,0.3L90.2,369.4z"/>
	<path class="st1_shopping-cart-77" d="M151.7,398.1l-1.6,8.9c0,0,28.7,1.8,27.8,0s-15.1-8.9-15.1-8.9H151.7z"/>
	<path class="st1_shopping-cart-77" d="M170.1,408.5c-5.6,0-13.2-0.4-20-0.8c-0.2,0-0.4-0.1-0.5-0.3c-0.1-0.2-0.2-0.4-0.1-0.5l1.6-8.9&#10;&#9;&#9;c0.1-0.3,0.4-0.6,0.7-0.6h11c0.1,0,0.2,0,0.3,0.1c3.4,1.7,14.5,7.4,15.5,9.2c0.1,0.3,0.1,0.6-0.1,0.9&#10;&#9;&#9;C178,408.2,174.7,408.5,170.1,408.5z M150.9,406.3c11,0.7,22.9,1,25.9,0.5c-1.8-1.5-8.2-5-14.2-8.1h-10.3L150.9,406.3z"/>
	<path class="st1_shopping-cart-77" d="M88.2,378.8c0,0-0.3,0.4-0.8,1c-1.5,1.8-4.5,5.6-3.7,6.6c1.1,1.2,24.8,15.3,24.3,14.4s-9.7-17.3-9.7-17.3"/>
	<path class="st1_shopping-cart-77" d="M108,401.5c-0.7,0-2.7-1-12.3-6.8c-2.7-1.6-11.8-7-12.6-7.9c-0.4-0.5-1.3-1.5,3.7-7.5l0.8-1&#10;&#9;&#9;c0.3-0.2,0.8-0.1,1,0.2c0.1,0.2,0.2,0.5,0,0.7l-0.8,1c-3.1,3.7-3.7,5.4-3.7,5.7c0.9,0.9,16.5,10.3,22,13.3&#10;&#9;&#9;c-2.5-4.4-8.3-14.9-8.7-15.4c-0.2-0.3-0.1-0.8,0.2-1c0,0,0,0,0,0c0.3-0.2,0.7-0.1,1,0.2c0,0,0,0,0,0.1c3.2,5.7,9.3,16.6,9.7,17.3&#10;&#9;&#9;c0.2,0.3,0.1,0.8-0.2,1C108.2,401.4,108.1,401.5,108,401.5z"/>
	<path class="st3_shopping-cart-77" d="M148.6,137.7c-2,0.9-4.4,0-5.3-2c-0.5-0.7-0.7-1.7-0.4-2.5c0.3-0.8,1.2-1.2,2-0.9c0.1,0,0.1,0.1,0.2,0.1&#10;&#9;&#9;c-2-2.4-3.6-5.1-4.8-8.1c-1-3-1.1-6.4,0.6-9.1c-2.3-1.2-4.7-2.6-5.9-4.9c-1.2-3-0.4-6.4,2.1-8.5c2.5-2,5.7-2.7,8.9-2.1&#10;&#9;&#9;c-0.4-1.5-1.5-2.8-2.9-3.4c3.4-3.3,8.4-4.3,13.1-4.5c7.9-0.3,16.1,1.7,21.8,7.1c4.4,4.2,6.6,10.2,5.9,16.2&#10;&#9;&#9;c-1.2,7.9-6.8,4.3-12.2,7.3c-2.6,1.5-4.5,4.1-6.7,6c-3.8,3.3-8.7,4.2-12.5,7C151.4,136.4,150,137.2,148.6,137.7z"/>
	<path class="st1_shopping-cart-77" d="M146.9,138.8c-1.7,0-3.3-1-4.1-2.6c-0.6-0.9-0.8-2.1-0.4-3.2c0.3-0.6,0.8-1.1,1.4-1.3c-1.7-2.1-3-4.5-4-7&#10;&#9;&#9;c-1.1-2.9-1-6.2,0.3-9c-2-1.1-4.4-2.5-5.5-4.9c-1.4-3.3-0.5-7,2.2-9.3c2.3-1.9,5.3-2.7,8.2-2.4c-0.5-0.9-1.2-1.6-2.1-2&#10;&#9;&#9;c-0.3-0.2-0.5-0.6-0.3-0.9c0-0.1,0.1-0.1,0.2-0.2c3-2.9,7.6-4.5,13.6-4.7c9.1-0.3,17,2.3,22.3,7.3c4.6,4.3,6.8,10.6,6.1,16.8&#10;&#9;&#9;c-0.8,5.7-3.9,6-7.2,6.4c-1.9,0.1-3.7,0.6-5.3,1.4c-1.6,1-3,2.2-4.2,3.5c-0.8,0.8-1.6,1.6-2.4,2.4c-2.2,1.7-4.6,3.1-7.2,4.1&#10;&#9;&#9;c-1.9,0.8-3.7,1.7-5.4,2.9c-1.2,1-2.6,1.7-4.1,2.3l0,0C148.3,138.6,147.6,138.7,146.9,138.8z M148.6,137.8L148.6,137.8z&#10;&#9;&#9; M144.5,132.9c-0.1,0-0.1,0-0.2,0c-0.3,0.1-0.5,0.3-0.6,0.6c-0.2,0.7-0.1,1.4,0.4,1.9c1.1,1.8,2.5,2.3,4.4,1.7l0,0&#10;&#9;&#9;c1.3-0.5,2.6-1.3,3.7-2.1c1.8-1.2,3.7-2.2,5.7-3c2.5-1,4.8-2.3,6.8-3.9c0.8-0.7,1.5-1.5,2.3-2.3c1.3-1.5,2.8-2.8,4.5-3.9&#10;&#9;&#9;c1.8-0.9,3.8-1.5,5.8-1.6c3.2-0.4,5.3-0.6,6-5.2c0.7-5.8-1.4-11.6-5.7-15.6c-6.8-6.5-16.3-7.1-21.3-6.9s-9.2,1.4-12,3.7&#10;&#9;&#9;c1.2,0.8,2,2,2.4,3.4c0.1,0.2,0,0.5-0.2,0.7c-0.2,0.2-0.4,0.3-0.6,0.2c-2.9-0.6-5.9,0.2-8.3,2c-2.3,1.9-3,5-1.9,7.7&#10;&#9;&#9;c1,2,3.1,3.3,5.6,4.6c0.2,0.1,0.3,0.3,0.4,0.4c0,0.2,0,0.4-0.1,0.6c-1.4,2.6-1.6,5.7-0.5,8.5c1.2,2.8,2.8,5.5,4.7,7.9&#10;&#9;&#9;c0.2,0.3,0.2,0.7-0.1,0.9c-0.2,0.2-0.6,0.3-0.9,0.1C144.7,133,144.6,132.9,144.5,132.9L144.5,132.9z"/>
	<path class="st3_shopping-cart-77" d="M176.7,123.6c0,0,3.8,8.4,2.5,9.8s-4.6-0.2-4.6-0.2"/>
	<path class="st1_shopping-cart-77" d="M177.6,134.6c-1.1-0.1-2.3-0.3-3.3-0.9c-0.3-0.2-0.5-0.6-0.3-0.9c0,0,0,0,0,0c0.2-0.3,0.6-0.5,0.9-0.3&#10;&#9;&#9;c0,0,0,0,0,0c0.9,0.4,3,1.1,3.8,0.4c0.5-0.6-0.7-4.9-2.6-9.1c-0.1-0.4,0.1-0.8,0.4-0.9c0.3-0.1,0.7,0,0.8,0.3&#10;&#9;&#9;c1.2,2.7,3.8,9,2.3,10.6C179.1,134.4,178.3,134.7,177.6,134.6z"/>
	<path class="st3_shopping-cart-77" d="M177.3,113.3c2.8,3.1,0.9,8.5,0.3,12.1c-0.9,5-1.9,10-3,15c-0.7,3.2-9,1.9-10.3,0.7l-1,10.7&#10;&#9;&#9;c0,0-2.9,5.5-9.1,1.3s-7-8.7-7-8.7l3-14.5c0,0,5.5,0.9,9.8-5s5.8-16,5.8-16S174.6,110.3,177.3,113.3z"/>
	<path class="st1_shopping-cart-77" d="M158.6,155.4c-1.7-0.1-3.4-0.7-4.7-1.7c-6.3-4.3-7.3-9-7.3-9.2c0-0.1,0-0.2,0-0.3l3-14.5&#10;&#9;&#9;c0.1-0.4,0.4-0.6,0.8-0.6c0.2,0,5.1,0.8,9.1-4.8c4.2-5.8,5.7-15.6,5.7-15.7c0-0.2,0.1-0.4,0.3-0.5c0.2-0.1,0.3-0.2,0.5-0.1&#10;&#9;&#9;c0.4,0.1,9,1.5,11.9,4.7l0,0c2.5,2.9,1.6,7.2,0.9,10.7c-0.1,0.7-0.3,1.3-0.4,1.9c-0.9,5-1.9,10.1-3,15.1c-0.3,1.1-1.2,1.9-2.3,2.2&#10;&#9;&#9;c-2.7,0.6-5.5,0.4-8.1-0.5l-0.9,9.6c0,0.1,0,0.2-0.1,0.3c-0.9,1.5-2.3,2.6-4,3.1C159.5,155.4,159.1,155.4,158.6,155.4z M148,144.4&#10;&#9;&#9;c0.2,0.7,1.4,4.6,6.7,8.1c1.8,1.3,3.5,1.7,5,1.3c1.2-0.4,2.3-1.2,3-2.3l1-10.5c0-0.3,0.2-0.5,0.4-0.6c0.2-0.1,0.5,0,0.7,0.1&#10;&#9;&#9;c0.7,0.6,5.2,1.6,7.8,0.8c0.8-0.2,1.2-0.6,1.4-1.1c1.1-5,2.1-10,3-15c0.1-0.6,0.2-1.3,0.4-2c0.7-3.2,1.5-7.2-0.5-9.5&#10;&#9;&#9;s-8.3-3.7-10.4-4.1c-0.4,2.4-2.1,10.4-5.8,15.6s-8.1,5.4-9.8,5.4L148,144.4z"/>
	<path class="st3_shopping-cart-77" d="M175.1,136.7c0,0-4.3,1.8-5.7-2.6"/>
	<path class="st1_shopping-cart-77" d="M173.2,137.7c-0.7,0-1.4-0.1-2-0.4c-1.2-0.6-2.1-1.7-2.5-3c-0.1-0.4,0.1-0.8,0.5-0.9c0.3-0.1,0.7,0.1,0.8,0.4&#10;&#9;&#9;c0.2,0.9,0.9,1.7,1.7,2.2c1,0.4,2.1,0.4,3.1,0c0.4-0.1,0.8,0,0.9,0.4c0,0,0,0,0,0c0.1,0.4,0,0.8-0.4,0.9c0,0,0,0,0,0&#10;&#9;&#9;C174.7,137.6,173.9,137.7,173.2,137.7z"/>
	<path class="st3_shopping-cart-77" d="M164.6,124.1c0.1-1.3-0.2-2.6-0.8-3.7c-0.3-0.9-0.8-1.8-1.4-2.6c-0.6-0.8-1.6-1.3-2.6-1.3&#10;&#9;&#9;c-0.9,0.1-1.7,0.5-2.2,1.2c-0.5,0.7-0.9,1.5-1,2.4c-0.8,3.8,0.5,7.8,3.4,10.4l-0.2-0.4"/>
	<path class="st1_shopping-cart-77" d="M159.8,131.3c-0.2,0-0.3-0.1-0.5-0.2c-3.1-2.8-4.5-7-3.6-11.1c0.2-1,0.6-1.9,1.2-2.7c0.7-0.9,1.7-1.4,2.8-1.5&#10;&#9;&#9;c1.2,0,2.4,0.6,3.1,1.5c0.7,0.8,1.2,1.8,1.6,2.8c0.7,1.2,1,2.7,0.9,4.1c-0.1,0.4-0.4,0.7-0.8,0.6s-0.7-0.4-0.6-0.8l0,0&#10;&#9;&#9;c0-1.2-0.2-2.3-0.8-3.3c-0.3-0.9-0.8-1.7-1.3-2.4c-0.5-0.6-1.2-1-2-1c-0.7,0.1-1.3,0.4-1.7,1c-0.5,0.6-0.8,1.3-0.9,2.1&#10;&#9;&#9;c-0.7,3.3,0.3,6.8,2.7,9.2c0.2,0,0.3,0.1,0.4,0.3l0.2,0.4c0.2,0.3,0.1,0.7-0.1,0.9C160.2,131.3,160,131.3,159.8,131.3z"/>
	<path class="st1_shopping-cart-77" d="M164.3,141.1c0,0-4.1-2-5.6-5.3c0,0-1,7.7,5.2,11L164.3,141.1z"/>
	<path class="st1_shopping-cart-77" d="M164,147.5c-0.1,0-0.2,0-0.3-0.1c-6.6-3.5-5.6-11.6-5.6-11.7c0.1-0.4,0.4-0.7,0.8-0.6c0.2,0,0.4,0.2,0.5,0.4&#10;&#9;&#9;c1.4,3,5.2,5,5.3,5c0.3,0.1,0.4,0.4,0.4,0.7l-0.4,5.7c0,0.2-0.1,0.5-0.4,0.6C164.2,147.5,164.1,147.5,164,147.5z M159.4,138.1&#10;&#9;&#9;c0.1,3,1.6,5.7,3.9,7.5l0.2-4.1C162,140.6,160.6,139.5,159.4,138.1L159.4,138.1z"/>
	<ellipse transform="matrix(0.3252 -0.9456 0.9456 0.3252 4.5796 245.5832)" class="st1_shopping-cart-77" cx="174.4" cy="119.6" rx="1.8" ry="0.7"/>
	<path class="st2_shopping-cart-77 targetColor" d="M138.6,143.8c0,0,21.9,3.6,26,16.2s-2.8,53.1,0,57s9.8,28.3,9.8,29.1c0,6.8-58.8,9-58.8,9s-1.5-29.6-2-47.6&#10;&#9;&#9;S122.6,139.6,138.6,143.8z" style="fill: rgb(16, 16, 16);"/>
	<path class="st1_shopping-cart-77" d="M171.4,233.8c-0.1,0-0.2,0-0.2,0c-0.3-0.1-0.5-0.4-0.5-0.7c-0.1-0.6-1.7-4.4-3.1-7.6c-2-4.7-4-9.5-4.4-10.9&#10;&#9;&#9;c-0.4-1.6,0.3-12.8,1.2-27.3c0.4-6.3,0.7-11.8,0.8-13.9c-0.1-4.4-0.5-8.8-1.3-13.2c0-0.4,0.2-0.7,0.6-0.8c0.3,0,0.7,0.2,0.8,0.5&#10;&#9;&#9;c0.9,4.4,1.3,9,1.4,13.5c0,2.1-0.4,7.6-0.8,14c-0.7,10.7-1.6,25.3-1.2,26.9c0.3,1.3,2.4,6.3,4.3,10.7c3.3,7.9,3.3,8,3.1,8.4&#10;&#9;&#9;C171.9,233.7,171.6,233.8,171.4,233.8z"/>
	<path class="st2_shopping-cart-77 targetColor" d="M136.1,133.7c-1.7-1.2-3.7-1.9-5.7-2.3c-5.2-0.6-9.2,0.9-13.4,3.8c-5.5,3.8-11.3,8.3-12.7,14.8&#10;&#9;&#9;c-1.2,6.4,2.1,12.8,8.1,15.5c1,0.5,2.2,0.7,3.3,0.6c2.2-0.3,3.6-2.3,5-3.9c3.8-4.1,7.3-4.9,12.6-5.5c3.3-0.4,6.6-0.6,9.9-0.5&#10;&#9;&#9;c6.8,0.2,13.4,2.2,20.1,3.2c4.2,0.6,2.4-3.8,0.8-5.3c-2.8-2.6-5.7-5.1-8.7-7.5C149.2,141.9,142.8,137.6,136.1,133.7z" style="fill: rgb(16, 16, 16);"/>
	<path class="st3_shopping-cart-77" d="M223.2,243.6c-0.1,0.4-0.5,0.6-0.8,0.7c-4.2,1.7-9,2.5-13.3,1c-5-1.8-7.7-6.3-12.8-7.9&#10;&#9;&#9;c-1.8-0.6-3.6-1.1-5.5-1.6c-2.6-0.7-5.3-1.4-7.9-2.1c-7.5-2-16.7-3.2-23.4-7.1c-5.6-3.2-21.5-30.8-25.9-42.4s9.2-18.4,9.2-18.4&#10;&#9;&#9;c7.3-6.1,26.6,44.6,26.6,44.6l27.7,13l5.7,2.7c1.2,0.6,2.4,1.2,3.6,1.6c2.9,0.7,6.5-0.6,9.3-1.2c0.7-0.2,1.4-0.2,2,0.1&#10;&#9;&#9;c1.2,0.4,2.3,1.1,3.4,1.8c1,0.8,1.7,1.9,1.9,3.2l-3.9-0.1c-3-0.1-4.3,3.6-2.8,6.1s5.3,2.7,6.7,5.2&#10;&#9;&#9;C223.2,243,223.2,243.3,223.2,243.6z"/>
	<path class="st1_shopping-cart-77" d="M214,246.8c-1.7,0-3.5-0.3-5.1-0.9c-2.4-0.9-4.5-2.3-6.4-4c-1.8-1.7-4-3-6.3-3.8c-1.8-0.6-3.6-1.1-5.5-1.6&#10;&#9;&#9;c-2.4-0.7-4.9-1.3-7.4-2l-0.5-0.1c-2-0.5-4-1-6.2-1.5c-6.1-1.4-12.3-2.8-17.4-5.7c-5.7-3.3-21.7-31-26.2-42.8&#10;&#9;&#9;c-4.4-11.6,8.4-18.6,9.5-19.2c0.7-0.6,1.7-0.8,2.6-0.5c3.7,0.9,9,8.9,15.9,23.7c4.6,9.9,8.5,19.8,9.1,21.5l27.4,12.9l5.7,2.7&#10;&#9;&#9;c0.3,0.1,0.6,0.3,0.9,0.5c0.8,0.5,1.7,0.8,2.6,1.1c2.1,0.5,4.7-0.2,7-0.8c0.7-0.2,1.4-0.4,2-0.5c0.5-0.1,1-0.2,1.5-0.1&#10;&#9;&#9;c0.3,0.1,0.7,0.2,1,0.3c1.3,0.5,2.4,1.1,3.5,1.9c1.2,0.9,2,2.2,2.1,3.7c0,0.2,0,0.4-0.2,0.5c-0.1,0.2-0.3,0.2-0.5,0.2l-3.9-0.1&#10;&#9;&#9;c-0.9,0-1.8,0.5-2.3,1.3c-0.7,1.2-0.7,2.6,0,3.7c0.8,1,1.9,1.8,3.1,2.3c1.5,0.6,2.7,1.6,3.7,2.9c0.2,0.4,0.3,0.8,0.3,1.2l0,0&#10;&#9;&#9;c-0.2,0.6-0.7,1-1.2,1.2C219.9,246,217,246.7,214,246.8z M144.2,166.1c-0.3,0-0.7,0.1-0.9,0.4c0,0-0.1,0.1-0.1,0.1&#10;&#9;&#9;c-0.5,0.3-13,6.7-8.9,17.5c4.3,11.3,20.2,39,25.6,42c4.9,2.8,11.1,4.2,17,5.5c2.2,0.5,4.3,0.9,6.3,1.5l0.5,0.1c2.5,0.6,5,1.3,7.4,2&#10;&#9;&#9;c1.8,0.5,3.7,1,5.5,1.6c2.5,0.9,4.8,2.3,6.8,4.1c1.8,1.6,3.8,2.9,6,3.8c4.6,1.6,9.5,0.4,12.8-1c0.1-0.1,0.3-0.1,0.4-0.2&#10;&#9;&#9;c0-0.1-0.1-0.2-0.1-0.2c-0.8-1-1.9-1.8-3.1-2.3c-1.4-0.6-2.7-1.6-3.6-2.8c-0.9-1.6-0.9-3.6,0-5.2c0.7-1.3,2-2,3.5-2l3,0.1&#10;&#9;&#9;c-0.3-0.8-0.8-1.4-1.4-1.9c-1-0.7-2.1-1.3-3.2-1.7c-0.2-0.1-0.4-0.2-0.6-0.2c-0.3,0-0.7,0-1,0.1c-0.6,0.1-1.3,0.3-1.9,0.5&#10;&#9;&#9;c-2.5,0.6-5.3,1.4-7.7,0.8c-1-0.3-2-0.7-2.9-1.2l-0.9-0.4l-5.7-2.7l-27.7-13c-0.2-0.1-0.3-0.2-0.4-0.4&#10;&#9;&#9;c-4.5-11.8-17.6-42.9-24.2-44.6C144.5,166.1,144.3,166.1,144.2,166.1L144.2,166.1z M223.2,243.6L223.2,243.6z M223.2,243.6&#10;&#9;&#9;L223.2,243.6z"/>
	<path class="st1_shopping-cart-77" d="M197.1,223.5l-6.3,12.4c-2.6-0.7-5.3-1.4-7.9-2.1c-7.5-2-16.7-3.2-23.4-7.1c-5.6-3.2-19.9-21-26.7-35.3&#10;&#9;&#9;c-8.4-17.7,11.2-29.6,11.2-29.6c7.3-6.1,25.5,48.7,25.5,48.7L197.1,223.5z"/>
	<path class="st1_shopping-cart-77" d="M190.9,236.6c-0.1,0-0.1,0-0.2,0c-2.4-0.7-4.9-1.3-7.4-2l-0.5-0.1c-2-0.5-4-1-6.2-1.5&#10;&#9;&#9;c-6.1-1.4-12.3-2.8-17.4-5.7c-5.9-3.4-20.3-21.6-27-35.6c-3.6-7.5-2.7-15.1,2.5-22.1c2.5-3.3,5.5-6.1,8.9-8.4&#10;&#9;&#9;c0.7-0.6,1.6-0.7,2.4-0.5c1.3,0.4,5.4,1.5,15.4,25.8c4.4,10.8,8.1,21.6,8.7,23.4c9.1,4.3,18.3,8.6,27.4,12.9&#10;&#9;&#9;c0.2,0.1,0.3,0.2,0.4,0.4c0.1,0.2,0.1,0.4,0,0.5l-6.3,12.4C191.4,236.4,191.1,236.6,190.9,236.6z M145.2,162&#10;&#9;&#9;c-0.3,0-0.6,0.1-0.8,0.3c-3.3,2.2-6.3,4.9-8.7,8.1c-4.9,6.7-5.7,13.6-2.3,20.7c7.1,14.8,21.3,32,26.4,35c4.9,2.8,11.1,4.2,17,5.5&#10;&#9;&#9;c2.2,0.5,4.3,0.9,6.3,1.5l0.5,0.1c2.3,0.6,4.6,1.2,6.9,1.8l5.7-11.2l-27.1-12.7c-0.2-0.1-0.3-0.2-0.4-0.4&#10;&#9;&#9;c-4.3-12.9-16.8-46.8-23.2-48.6C145.4,162,145.3,162,145.2,162z"/>
	<path class="st3_shopping-cart-77" d="M146.3,294.8c-0.2,0-0.4-0.1-0.5-0.2c-6.7-7.3-22.2-32.4-22.8-33.5c-0.2-0.3,0-0.8,0.3-0.9&#10;&#9;&#9;c0.3-0.2,0.7-0.1,0.9,0.2c0.2,0.3,16,26,22.7,33.3c0.3,0.3,0.3,0.7,0,1c0,0,0,0,0,0C146.7,294.7,146.5,294.8,146.3,294.8z"/>
	<path class="st1_shopping-cart-77" d="M123.6,160.4c-0.4,0-0.7-0.3-0.7-0.7c0-0.2,0.1-0.5,0.3-0.6c0.8-0.5,19.5-11.2,31.3-6.6&#10;&#9;&#9;c0.4,0.1,0.5,0.6,0.4,0.9s-0.6,0.5-0.9,0.4c-11.2-4.4-29.9,6.4-30.1,6.5C123.8,160.3,123.7,160.3,123.6,160.4z"/>
</g>
</svg>