<svg width="1000" height="1000" viewBox="0 0 1000 1000" fill="none" xmlns="http://www.w3.org/2000/svg">
<rect width="1000" height="1000" fill="url(#paint0_linear_85_157)"/>
<path d="M650 450H575C568.37 450 562.011 447.366 557.323 442.678C552.634 437.989 550 431.63 550 425C550 418.37 552.634 412.011 557.323 407.322C562.011 402.634 568.37 400 575 400H650C656.631 400 662.99 402.634 667.678 407.322C672.367 412.011 675 418.37 675 425C675 431.63 672.367 437.989 667.678 442.678C662.99 447.366 656.631 450 650 450ZM425 400H400V375C400 368.37 397.366 362.011 392.678 357.322C387.99 352.634 381.631 350 375 350C368.37 350 362.011 352.634 357.323 357.322C352.634 362.011 350 368.37 350 375V400H325C318.37 400 312.011 402.634 307.323 407.322C302.634 412.011 300 418.37 300 425C300 431.63 302.634 437.989 307.323 442.678C312.011 447.366 318.37 450 325 450H350V475C350 481.63 352.634 487.989 357.323 492.678C362.011 497.366 368.37 500 375 500C381.631 500 387.99 497.366 392.678 492.678C397.366 487.989 400 481.63 400 475V450H425C431.631 450 437.99 447.366 442.678 442.678C447.366 437.989 450 431.63 450 425C450 418.37 447.366 412.011 442.678 407.322C437.99 402.634 431.631 400 425 400ZM854.625 727.031C845.203 740.486 832.95 751.714 818.725 759.927C804.5 768.14 788.649 773.138 772.286 774.571C755.923 776.003 739.445 773.835 724.009 768.219C708.573 762.603 694.555 753.675 682.938 742.063C682.563 741.688 682.188 741.312 681.844 740.906L557.75 600H442.125L318.157 740.906L317.063 742.063C295.944 763.136 267.334 774.979 237.5 775C221.077 774.994 204.853 771.392 189.97 764.447C175.087 757.502 161.905 747.382 151.35 734.799C140.795 722.216 133.123 707.475 128.873 691.61C124.624 675.746 123.899 659.143 126.75 642.969C126.735 642.823 126.735 642.677 126.75 642.531L177.907 379.75C185.52 336.408 208.165 297.136 241.862 268.835C275.558 240.533 318.151 225.012 362.157 225H637.5C681.373 225.07 723.835 240.502 757.516 268.616C791.196 296.731 813.967 335.753 821.875 378.906C821.875 379.094 821.875 379.281 821.875 379.469L873.032 642.5C873.047 642.645 873.047 642.792 873.032 642.938C875.679 657.475 875.416 672.394 872.256 686.829C869.097 701.264 863.104 714.929 854.625 727.031ZM637.5 550C673.968 550 708.941 535.513 734.728 509.727C760.514 483.941 775 448.967 775 412.5C775 376.033 760.514 341.059 734.728 315.273C708.941 289.487 673.968 275 637.5 275H362.157C329.874 275.029 298.635 286.442 273.937 307.23C249.239 328.019 232.663 356.852 227.125 388.656V389.062L175.938 651.844C173.675 664.872 175.603 678.281 181.443 690.144C187.284 702.007 196.737 711.713 208.441 717.864C220.146 724.015 233.501 726.295 246.584 724.377C259.667 722.458 271.804 716.44 281.25 707.188L412.25 558.469C414.596 555.808 417.481 553.676 420.714 552.216C423.947 550.756 427.453 550.001 431 550H637.5ZM824.063 651.844L796.75 511.219C779.952 538.344 756.511 560.734 728.643 576.269C700.776 591.805 669.406 599.973 637.5 600H624.375L718.75 707.219C725.866 714.14 734.521 719.275 744.006 722.203C753.491 725.131 763.534 725.768 773.313 724.062C789.603 721.187 804.089 711.971 813.596 698.434C823.103 684.897 826.856 668.143 824.032 651.844H824.063Z" fill="#FAFAFA"/>
<defs>
<linearGradient id="paint0_linear_85_157" x1="0" y1="1000" x2="1000" y2="0" gradientUnits="userSpaceOnUse">
<stop stop-color="#0F0F0F"/>
<stop offset="0.25" stop-color="#131313"/>
<stop offset="0.5" stop-color="#232323"/>
<stop offset="0.75" stop-color="#222222"/>
<stop offset="1" stop-color="#1F1F1F"/>
</linearGradient>
</defs>
</svg>
